<svg xmlns="http://www.w3.org/2000/svg" xmlns:xlink="http://www.w3.org/1999/xlink" width="23" height="24" viewBox="0 0 23 24">
  <defs>
    <clipPath id="clip-path">
      <rect id="Rectangle_8" data-name="Rectangle 8" width="23" height="24" fill="#4e4e4e"/>
    </clipPath>
  </defs>
  <g id="Group_437" data-name="Group 437" transform="translate(-540 -1195)">
    <g id="Group_436" data-name="Group 436" transform="translate(540 1195)">
      <g id="Group_435" data-name="Group 435" clip-path="url(#clip-path)">
        <path id="Path_497" data-name="Path 497" d="M562.69,1216.553l-5.679-5.783a9.293,9.293,0,0,0,2.261-6.067,9.638,9.638,0,1,0-9.637,9.437,9.662,9.662,0,0,0,5.521-1.709l5.724,5.829a1.273,1.273,0,0,0,1.776.034,1.214,1.214,0,0,0,.035-1.741Zm-13.055-18.824a6.976,6.976,0,1,1-7.121,6.974,7.059,7.059,0,0,1,7.121-6.974Zm0,0" transform="translate(-540 -1195.13)" fill="#4e4e4e"/>
      </g>
    </g>
  </g>
</svg>
