<svg id="Group_17102" data-name="Group 17102" xmlns="http://www.w3.org/2000/svg" width="21.094" height="24" viewBox="0 0 21.094 24">
  <g id="Group_17101" data-name="Group 17101">
    <path id="Path_11396" data-name="Path 11396" d="M49.984,2.813h-.7v-.7A2.112,2.112,0,0,0,47.172,0H33.109A2.112,2.112,0,0,0,31,2.109V19.078a2.112,2.112,0,0,0,2.109,2.109h.7v.7A2.112,2.112,0,0,0,35.922,24H49.984a2.112,2.112,0,0,0,2.109-2.109V4.922A2.112,2.112,0,0,0,49.984,2.813ZM34.43,5.419a2.1,2.1,0,0,0-.618,1.492V19.781h-.7a.7.7,0,0,1-.7-.7V2.109a.7.7,0,0,1,.7-.7H47.172a.7.7,0,0,1,.7.7v.7H37.911a2.1,2.1,0,0,0-1.492.618Zm3.6-1.2V7.031H35.219V6.911a.7.7,0,0,1,.206-.5l1.989-1.989a.7.7,0,0,1,.5-.206ZM50.688,21.891a.7.7,0,0,1-.7.7H35.922a.7.7,0,0,1-.7-.7V8.438h3.516a.7.7,0,0,0,.7-.7V4.219H49.984a.7.7,0,0,1,.7.7Z" transform="translate(-31)" fill="#7e829e"/>
    <path id="Path_11397" data-name="Path 11397" d="M162.953,212H151.7a.7.7,0,1,0,0,1.406h11.25a.7.7,0,1,0,0-1.406Z" transform="translate(-145.375 -202.063)" fill="#7e829e"/>
    <path id="Path_11398" data-name="Path 11398" d="M162.953,272H151.7a.7.7,0,1,0,0,1.406h11.25a.7.7,0,1,0,0-1.406Z" transform="translate(-145.375 -259.25)" fill="#7e829e"/>
    <path id="Path_11399" data-name="Path 11399" d="M162.953,332H151.7a.7.7,0,1,0,0,1.406h11.25a.7.7,0,1,0,0-1.406Z" transform="translate(-145.375 -316.438)" fill="#7e829e"/>
    <path id="Path_11400" data-name="Path 11400" d="M162.953,392H151.7a.7.7,0,1,0,0,1.406h11.25a.7.7,0,1,0,0-1.406Z" transform="translate(-145.375 -373.625)" fill="#7e829e"/>
  </g>
  <path id="Path_11401" data-name="Path 11401" d="M9726.6,939.878v15.066h15.96v-18.6h-11.19l-1.651-.744Z" transform="translate(-9722.889 -932.298)" fill="#7e829e" opacity="0.3"/>
</svg>
