<svg xmlns="http://www.w3.org/2000/svg" width="145.748" height="112.762" viewBox="0 0 145.748 112.762">
  <g id="Group_16799" data-name="Group 16799" transform="translate(-418.544 -237.372) rotate(-22)">
    <path id="Path_11251" data-name="Path 11251" d="M368.911,417.034h-3.257v35.877c0,5.6-3.257,10.638-9.785,10.638H292v1.72c0,4.943,5.6,9.92,11.379,9.92h48.86l18.682,10.982-2.724-10.982h.717c5.777,0,8.369-4.977,8.369-9.92V425.554c0-4.938-2.593-8.52-8.369-8.52Zm0,0" transform="translate(26.909 19.785)" fill="#4484f4" opacity="0.3"/>
    <path id="Path_11252" data-name="Path 11252" d="M373.255,411.89H299.044c-6.528,0-14.044,5.791-14.044,11.393v44.964c0,5.147,6.358,8.878,12.474,9.445L293.5,492.779,318.963,477.8h54.293c6.513,0,12.552-3.974,12.552-9.557V423.283c0-5.6-6.038-11.393-12.552-11.393Zm-62.89,37.956a6.7,6.7,0,1,1,6.7-6.7,6.688,6.688,0,0,1-6.7,6.7Zm25.026,0a6.7,6.7,0,1,1,6.7-6.7,6.7,6.7,0,0,1-6.7,6.7Zm25.046,0a6.7,6.7,0,1,1,6.7-6.7,6.7,6.7,0,0,1-6.7,6.7Zm0,0" fill="#dbdbdb"/>
  </g>
</svg>
