<svg id="_003-bin-1" data-name="003-bin-1" xmlns="http://www.w3.org/2000/svg" width="19.69" height="24.003" viewBox="0 0 19.69 24.003">
  <path id="Path_531" data-name="Path 531" d="M200.469,180.938a.469.469,0,1,0-.469-.469A.469.469,0,0,0,200.469,180.938Zm0,0" transform="translate(-190.624 -171.561)" fill="#7e829e"/>
  <path id="Path_532" data-name="Path 532" d="M12.658,0H7.032A1.408,1.408,0,0,0,5.626,1.406V2.813H1.406A1.408,1.408,0,0,0,0,4.219V6.095a.469.469,0,0,0,.469.469H.985L2.723,22.752A1.405,1.405,0,0,0,4.121,24H15.569a1.406,1.406,0,0,0,1.4-1.253L18.7,6.563h.516a.469.469,0,0,0,.469-.469V4.219a1.408,1.408,0,0,0-1.406-1.406H14.064V1.406A1.408,1.408,0,0,0,12.658,0ZM6.563,1.406A.469.469,0,0,1,7.032.938h5.626a.469.469,0,0,1,.469.469V2.813H6.563Zm9.472,21.242a.469.469,0,0,1-.466.417H4.121a.468.468,0,0,1-.466-.415L1.928,6.563H17.762ZM18.752,4.219V5.626H.938V4.219a.469.469,0,0,1,.469-.469H18.284A.469.469,0,0,1,18.752,4.219Zm0,0" fill="#7e829e"/>
</svg>
