<svg xmlns="http://www.w3.org/2000/svg" xmlns:xlink="http://www.w3.org/1999/xlink" width="239.312" height="270.207" viewBox="0 0 239.312 270.207">
  <defs>
    <linearGradient id="linear-gradient" x1="0.5" x2="0.5" y2="0.916" gradientUnits="objectBoundingBox">
      <stop offset="0" stop-color="#263238"/>
      <stop offset="1" stop-color="#6e767a" stop-opacity="0"/>
    </linearGradient>
  </defs>
  <g id="Group_18079" data-name="Group 18079" transform="translate(-54 -243.514)">
    <g id="Background_Complete" data-name="Background Complete" transform="translate(54 293.053)" opacity="0.7">
      <g id="Group_18012" data-name="Group 18012" transform="translate(0)">
        <g id="Group_18011" data-name="Group 18011">
          <g id="Group_18008" data-name="Group 18008" transform="translate(0 0.172)">
            <g id="Group_17999" data-name="Group 17999">
              <g id="Group_17992" data-name="Group 17992">
                <g id="Group_17989" data-name="Group 17989" transform="translate(28.468 2.202)">
                  <path id="Path_11702" data-name="Path 11702" d="M235.92,66.712,310.2,163.2,110.435,113.545,221.7,63.134A11.777,11.777,0,0,1,235.92,66.712Z" transform="translate(-109.186 -61.661)" fill="#ebebeb"/>
                  <path id="Path_11703" data-name="Path 11703" d="M311.157,163.769l-75-97.428a12.135,12.135,0,0,0-14.715-3.7l-112.345,50.9Zm-84.664-101.4a11.314,11.314,0,0,1,9.007,4.477l0,0L309.064,162.4,111.592,113.312,221.778,63.391A11.411,11.411,0,0,1,226.493,62.365Z" transform="translate(-109.094 -61.542)" fill="#e0e0e0"/>
                </g>
                <g id="Group_17990" data-name="Group 17990" transform="translate(0 53.913)">
                  <path id="Rectangle_949" data-name="Rectangle 949" d="M10.705,0H195.857a10.705,10.705,0,0,1,10.705,10.705v109.6a0,0,0,0,1,0,0H0a0,0,0,0,1,0,0V10.705A10.705,10.705,0,0,1,10.705,0Z" transform="matrix(-0.97, -0.241, 0.241, -0.97, 200.461, 166.584)" fill="#f0f0f0"/>
                </g>
                <g id="Group_17991" data-name="Group 17991" transform="translate(41.364)">
                  <path id="Path_11704" data-name="Path 11704" d="M112.2,118.583l69.448,70.956,105-23.626,12.011-55.677A11.232,11.232,0,0,0,290.417,96.8L138.568,59.055a11.232,11.232,0,0,0-13.61,8.191Z" transform="translate(-112.195 -58.72)" fill="#fff"/>
                </g>
              </g>
              <g id="Group_17993" data-name="Group 17993" transform="translate(1.872 122.254)">
                <path id="Path_11705" data-name="Path 11705" d="M263.09,218.376l82.466,86.185h0a9.191,9.191,0,0,1-11.137,6.7L151.589,265.789a9.189,9.189,0,0,1-6.7-11.136l.17-.687L252.9,215.943A9.662,9.662,0,0,1,263.09,218.376Z" transform="translate(-144.615 -215.393)" fill="#e2e2e2"/>
              </g>
              <g id="Group_17994" data-name="Group 17994" transform="translate(145.183 46.314)">
                <rect id="Rectangle_950" data-name="Rectangle 950" width="61.219" height="6.253" transform="translate(59.41 20.844) rotate(-166.033)" fill="#e2e2e2"/>
              </g>
              <g id="Group_17995" data-name="Group 17995" transform="translate(68.767 43.678)">
                <rect id="Rectangle_951" data-name="Rectangle 951" width="135.824" height="7.06" transform="translate(131.809 39.634) rotate(-166.033)" fill="#e2e2e2"/>
              </g>
              <g id="Group_17996" data-name="Group 17996" transform="translate(64.601 60.425)">
                <rect id="Rectangle_952" data-name="Rectangle 952" width="135.824" height="7.06" transform="translate(131.809 39.634) rotate(-166.033)" fill="#e2e2e2"/>
              </g>
              <g id="Group_17997" data-name="Group 17997" transform="translate(61.363 78.025)">
                <path id="Path_11706" data-name="Path 11706" d="M158.958,163.281l4.127,4.13,110.65,28.929,14.459-3.384.546-1.568L157.359,158.712l-.565,2.271Z" transform="translate(-156.794 -158.712)" fill="#e2e2e2"/>
              </g>
              <g id="Group_17998" data-name="Group 17998" transform="translate(82.42 101.809)">
                <path id="Path_11707" data-name="Path 11707" d="M212.841,198.808l49.85,12.4,15.238-3.485-74.5-18.529Z" transform="translate(-203.43 -189.193)" fill="#e2e2e2"/>
              </g>
            </g>
            <g id="Group_18001" data-name="Group 18001" transform="translate(123.355 128.38)">
              <g id="Group_18000" data-name="Group 18000">
                <path id="Path_11708" data-name="Path 11708" d="M143.351,223.244a1.509,1.509,0,0,0,.19.231l.589.647,2.3,2.46,8.5,8.994c7.193,7.581,17.136,18.046,28.2,29.528s21.192,21.782,28.59,29.163c3.7,3.692,6.7,6.665,8.8,8.7,1.034,1,1.844,1.79,2.415,2.343l.635.6a1.474,1.474,0,0,0,.227.194,1.621,1.621,0,0,0-.2-.225c-.152-.158-.352-.367-.606-.631l-2.359-2.4-8.7-8.8c-7.342-7.436-17.43-17.762-28.5-29.248-11.041-11.489-21.036-21.889-28.291-29.44l-8.6-8.9-2.355-2.4-.62-.618A1.621,1.621,0,0,0,143.351,223.244Z" transform="translate(-143.351 -223.244)" fill="#fafafa"/>
              </g>
            </g>
            <g id="Group_18003" data-name="Group 18003" transform="translate(2.318 124.769)">
              <g id="Group_18002" data-name="Group 18002" transform="translate(0)">
                <path id="Path_11709" data-name="Path 11709" d="M270.1,254.674c.039.112,23.035-7.87,51.356-17.825s51.259-18.12,51.22-18.231-23.031,7.868-51.362,17.827S270.062,254.563,270.1,254.674Z" transform="translate(-270.102 -218.617)" fill="#fafafa"/>
              </g>
            </g>
            <g id="Group_18005" data-name="Group 18005" transform="translate(38.059 56.446)">
              <g id="Group_18004" data-name="Group 18004" transform="translate(0)">
                <path id="Path_11710" data-name="Path 11710" d="M271.153,131.059a1.106,1.106,0,0,0,.151.194l.474.542,1.852,2.053,6.886,7.482c5.841,6.294,13.975,14.929,23.087,24.343s17.484,17.825,23.59,23.863l7.263,7.116,2,1.914.527.49a1.017,1.017,0,0,0,.19.156,1.043,1.043,0,0,0-.159-.187l-.5-.52-1.939-1.971-7.166-7.212c-6.05-6.091-14.384-14.532-23.5-23.946s-17.277-18.013-23.174-24.252l-6.986-7.389-1.91-2c-.208-.211-.374-.38-.5-.512A1.021,1.021,0,0,0,271.153,131.059Z" transform="translate(-271.152 -131.059)" fill="#fafafa"/>
              </g>
            </g>
            <g id="Group_18007" data-name="Group 18007" transform="translate(123.355 103.743)">
              <g id="Group_18006" data-name="Group 18006">
                <path id="Path_11711" data-name="Path 11711" d="M110.435,216.308a1.3,1.3,0,0,0,.278-.049l.805-.186,3.083-.755c2.674-.671,6.552-1.609,11.349-2.738,9.592-2.271,22.892-5.2,37.592-8.38s28-6.158,37.579-8.506c4.79-1.167,8.657-2.15,11.318-2.87l3.064-.833.794-.227a1.432,1.432,0,0,0,.267-.091,1.362,1.362,0,0,0-.278.049l-.8.186-3.083.755c-2.673.671-6.551,1.609-11.348,2.737-9.592,2.271-22.893,5.2-37.6,8.382s-27.995,6.157-37.572,8.5c-4.79,1.167-8.658,2.15-11.319,2.87l-3.064.833-.794.227A1.461,1.461,0,0,0,110.435,216.308Z" transform="translate(-110.435 -191.671)" fill="#fafafa"/>
              </g>
            </g>
          </g>
          <g id="Group_18010" data-name="Group 18010" transform="translate(41.364)">
            <g id="Group_18009" data-name="Group 18009">
              <path id="Path_11712" data-name="Path 11712" d="M111.976,118.534s.078-.253.209-.75.322-1.247.572-2.211c.5-1.957,1.223-4.824,2.158-8.513,1.858-7.408,4.542-18.109,7.858-31.329q.62-2.481,1.27-5.078.325-1.3.656-2.624c.109-.443.218-.89.358-1.319a8.942,8.942,0,0,1,.473-1.282,11.081,11.081,0,0,1,11.754-6.446c.982.17,1.981.444,2.985.691l6.123,1.527,12.782,3.187L216.1,78.554l56.943,14.138,12.789,3.17,3.087.765a17.169,17.169,0,0,1,2.962.9,10.336,10.336,0,0,1,2.583,1.566,10.6,10.6,0,0,1,2.034,2.168,11.262,11.262,0,0,1,1.373,2.584,11.521,11.521,0,0,1,.631,2.8,17.3,17.3,0,0,1-.673,5.571l-2.243,10.466c-2.846,13.33-5.149,24.118-6.744,31.586-.786,3.724-1.4,6.617-1.812,8.592l-.461,2.236c-.1.5-.143.765-.143.765s.07-.254.186-.756l.5-2.228L289,154.305c1.626-7.461,3.975-18.239,6.877-31.556l2.271-10.459a17.63,17.63,0,0,0,.692-5.675,11.845,11.845,0,0,0-.646-2.893,11.582,11.582,0,0,0-1.41-2.668,10.972,10.972,0,0,0-2.1-2.243,10.685,10.685,0,0,0-2.666-1.622A17.541,17.541,0,0,0,289,96.265l-3.085-.769-12.785-3.187L216.2,78.138,159.27,64l-12.787-3.17-6.126-1.518c-1.007-.245-1.991-.515-3.02-.692a11.382,11.382,0,0,0-12.11,6.67,9.279,9.279,0,0,0-.484,1.321c-.144.448-.251.892-.359,1.334q-.328,1.327-.649,2.627-.643,2.6-1.256,5.081l-7.726,31.362c-.9,3.7-1.6,6.572-2.08,8.533l-.53,2.222C112.025,118.274,111.976,118.534,111.976,118.534Z" transform="translate(-111.976 -58.5)" fill="#e0e0e0"/>
            </g>
          </g>
        </g>
      </g>
    </g>
    <g id="Mail_Sent" data-name="Mail Sent" transform="translate(123.388 243.514)">
      <g id="Group_18078" data-name="Group 18078" transform="matrix(0.995, 0.105, -0.105, 0.995, 41.601, 0)">
        <path id="Path_11713" data-name="Path 11713" d="M0,7.265,16.117,19.541,15.333,42.99,30.1,31.267l8.15,6.98L69.229,0Z" fill="#4484f4"/>
        <path id="Path_11714" data-name="Path 11714" d="M6.845,0C6.821.717,0,18.455,0,18.455L14.765,6.733Z" transform="translate(15.332 24.535)" fill="rgba(78,78,78,0.5)"/>
        <path id="Path_11716" data-name="Path 11716" d="M53.9,0,6.845,24.535,0,42.99.785,19.541Z" transform="translate(15.332)" fill="rgba(78,78,78,0.2)"/>
      </g>
      <g id="Group_18073" data-name="Group 18073" transform="translate(0 29.862)">
        <path id="Union_22" data-name="Union 22" d="M61.652,203c-.061-.189,1.338-.8,3.074-1.5s3.174-1.228,3.262-1.049-1.228,1-2.994,1.708a11.615,11.615,0,0,1-3.161.9C61.725,203.051,61.662,203.034,61.652,203Zm12.3-5.884c-.106-.168,1.1-1.112,2.607-2.219s2.781-1.963,2.909-1.812-.95,1.265-2.487,2.386a9.8,9.8,0,0,1-2.962,1.669C73.987,197.139,73.964,197.132,73.954,197.115Zm10.518-8.687c-.143-.138.805-1.34,2.014-2.77s2.245-2.559,2.4-2.441-.629,1.451-1.861,2.9a8.957,8.957,0,0,1-2.521,2.323A.05.05,0,0,1,84.472,188.428Zm8.188-10.913c-.173-.1.464-1.491,1.3-3.17s1.56-3.024,1.744-2.948-.256,1.561-1.106,3.266a8.366,8.366,0,0,1-1.913,2.858A.042.042,0,0,1,92.659,177.516Zm5.277-12.573c-.189-.055-.021-1.584.377-3.413.442-1.821.78-3.313.977-3.288s.17,1.575-.279,3.429c-.4,1.828-.868,3.274-1.065,3.273Zm1.784-13.518c-.2,0-.348-1.52-.479-3.388s-.184-3.394.015-3.421.567,1.476.7,3.373-.038,3.437-.232,3.437Zm-3.079-16.687c-.579-1.783-1-3.253-.816-3.327s.905,1.3,1.493,3.107.811,3.344.621,3.39h-.01C97.728,137.909,97.214,136.49,96.641,134.738Zm-5.688-12.306c-.981-1.6-1.736-2.929-1.574-3.043s1.185,1.049,2.18,2.671,1.572,3.059,1.4,3.149a.045.045,0,0,1-.021,0A11.365,11.365,0,0,1,90.953,122.432Zm-8.431-10.614c-1.336-1.315-2.393-2.419-2.264-2.57s1.406.728,2.762,2.063,2.259,2.6,2.112,2.723a.051.051,0,0,1-.035.011A12.568,12.568,0,0,1,82.522,111.818ZM71.7,103.677c-1.62-.94-2.939-1.722-2.843-1.917.076-.158,1.546.342,3.193,1.3,1.634.98,2.87,1.906,2.76,2.068-.011.017-.037.025-.075.025A11.869,11.869,0,0,1,71.7,103.677ZM59.376,97.828c-1.722-.791-3.045-1.574-2.956-1.748s1.547.317,3.258,1.1,3.035,1.568,2.956,1.748c-.01.025-.048.037-.109.037A13.119,13.119,0,0,1,59.376,97.828Zm-11.8-7c-1.459-1.243-2.366-2.524-2.22-2.649s1.265.9,2.682,2.109,2.59,2.188,2.477,2.355a.069.069,0,0,1-.061.022A8.646,8.646,0,0,1,47.578,90.825ZM33.3,87c-1.9-.227-3.373-.734-3.328-.921s1.559-.006,3.413.214,3.368.4,3.367.6c0,.122-.629.226-1.573.226A15.672,15.672,0,0,1,33.3,87Zm10.256-.645c-.034-.2,1.436-.606,3.22-1.15s3.231-1.015,3.313-.835-1.271.963-3.108,1.517a11.726,11.726,0,0,1-3.013.555C43.714,86.444,43.566,86.413,43.556,86.356ZM20.2,82.9c-1.695-.883-2.9-1.874-2.791-2.033s1.463.539,3.119,1.4,3.007,1.578,2.932,1.764c-.011.027-.053.04-.124.04A10.135,10.135,0,0,1,20.2,82.9Zm20.118-3.641c-.369-1.907-.128-3.486.06-3.47.2.008.286,1.522.639,3.337s.818,3.257.631,3.339a.035.035,0,0,1-.016,0A6.2,6.2,0,0,1,40.314,79.263ZM55.755,80.6c-.143-.153.889-1.274,1.94-2.787,1.066-1.5,1.662-2.887,1.855-2.827.187.043-.14,1.637-1.27,3.232a6.722,6.722,0,0,1-2.485,2.4A.049.049,0,0,1,55.755,80.6ZM9.384,74.442C8.122,73,7.376,71.631,7.534,71.523s1.155,1.046,2.386,2.451,2.238,2.547,2.1,2.695a.053.053,0,0,1-.041.014A8.334,8.334,0,0,1,9.384,74.442Zm32.7-5.2c-.169-.074.418-1.6,1.869-2.937,1.468-1.36,3.089-1.712,3.132-1.535.077.2-1.32.817-2.648,2.058-1.294,1.192-2.109,2.42-2.33,2.42A.045.045,0,0,1,42.084,69.242Zm14.6-3.148c-1.47-1.061-2.933-1.508-2.879-1.716.021-.174,1.667-.026,3.3,1.138,1.647,1.166,2.216,2.777,2.037,2.831a.049.049,0,0,1-.022.005C58.891,68.353,58.116,67.1,56.68,66.095Zm-54.2-3.524c-.648-1.8-.872-3.337-.685-3.383s.72,1.382,1.355,3.141,1.144,3.2.963,3.282a.039.039,0,0,1-.018,0A7.754,7.754,0,0,1,2.484,62.571ZM.006,49.066c-.047-1.906.211-3.44.4-3.428s.26,1.54.307,3.41.055,3.4-.143,3.419h0C.378,52.468.049,50.957.006,49.066Zm1.264-10.2c-.19-.035-.057-1.584.464-3.417s1.217-3.225,1.4-3.154-.2,1.547-.711,3.347c-.5,1.777-.941,3.226-1.142,3.225ZM5.976,26.081c-.171-.091.427-1.527,1.478-3.116s2.13-2.707,2.282-2.587-.658,1.415-1.687,2.979A12.022,12.022,0,0,1,6,26.086.042.042,0,0,1,5.976,26.081Zm8.29-10.818c-.137-.135.84-1.344,2.283-2.588s2.78-2.035,2.894-1.88-1.009,1.193-2.429,2.42a13.155,13.155,0,0,1-2.707,2.061A.056.056,0,0,1,14.266,15.263Zm10.87-8.242c-.1-.168,1.148-1.09,2.849-1.94s3.186-1.3,3.26-1.122-1.264.917-2.941,1.758a15.193,15.193,0,0,1-3.088,1.332C25.175,7.048,25.148,7.039,25.136,7.021Zm12.538-5.38c-.058-.185,1.37-.79,3.223-1.218S44.3-.095,44.329.1s-1.445.593-3.27,1.019A21.092,21.092,0,0,1,37.9,1.7C37.765,1.7,37.687,1.681,37.674,1.641Z" transform="translate(0 0)" stroke="rgba(0,0,0,0)" stroke-miterlimit="10" stroke-width="1" fill="url(#linear-gradient)"/>
      </g>
      <g id="Group_18077" data-name="Group 18077" transform="translate(137.322 78.444)">
        <g id="Group_18074" data-name="Group 18074" transform="translate(0 0)">
          <path id="Path_11745" data-name="Path 11745" d="M129.937,115.851a16.3,16.3,0,1,1-11.789-19.8A16.3,16.3,0,0,1,129.937,115.851Z" transform="translate(-97.839 -95.542)" fill="#7e829e"/>
        </g>
        <g id="Group_18076" data-name="Group 18076" transform="translate(7.365 7.467)">
          <g id="Group_18075" data-name="Group 18075" transform="translate(0)">
            <path id="Path_11746" data-name="Path 11746" d="M122.258,105.114c.284.111-1.571,5.566-4.141,12.184l-1.1,2.783-.2.5-.492-.19c-5.285-2.039-9.142-3.715-9.051-3.959s4.1,1.024,9.427,2.954l-.688.308,1.07-2.794C119.658,110.28,121.974,105,122.258,105.114Z" transform="translate(-107.278 -105.112)" fill="#fff"/>
          </g>
        </g>
      </g>
    </g>
  </g>
</svg>
