<svg xmlns="http://www.w3.org/2000/svg" xmlns:xlink="http://www.w3.org/1999/xlink" width="12" height="12" viewBox="0 0 12 12">
  <defs>
    <clipPath id="clip-path">
      <rect id="Rectangle_694" data-name="Rectangle 694" width="12" height="12" fill="#a7a7a7"/>
    </clipPath>
  </defs>
  <g id="Group_16935" data-name="Group 16935" transform="translate(0 0)">
    <g id="Group_16934" data-name="Group 16934" transform="translate(0 0)" clip-path="url(#clip-path)">
      <path id="Path_11364" data-name="Path 11364" d="M266.852,388.87l4.067-4.056a.249.249,0,0,0,0-.353l-1.5-1.5a.25.25,0,0,0-.353,0L265,387.019l-4.067-4.056a.257.257,0,0,0-.353,0l-1.5,1.5a.249.249,0,0,0,0,.353l4.067,4.056-4.067,4.056a.249.249,0,0,0,0,.353l1.5,1.5a.25.25,0,0,0,.353,0L265,390.722l4.067,4.056a.249.249,0,0,0,.353,0l1.5-1.5a.249.249,0,0,0,0-.353Zm0,0" transform="translate(-259 -382.89)" fill="#a7a7a7"/>
    </g>
  </g>
</svg>
