<svg xmlns="http://www.w3.org/2000/svg" width="12.732" height="13" viewBox="0 0 12.732 13">
  <path id="Subtraction_27" data-name="Subtraction 27" d="M10.8,13H1.91a.4.4,0,0,1-.4-.4V6.957H.583a.574.574,0,0,1-.536-.363.586.586,0,0,1,.127-.65L5.944.175a.586.586,0,0,1,.834,0l5.784,5.77a.567.567,0,0,1,.125.627.6.6,0,0,1-.561.371h-.93V12.6A.4.4,0,0,1,10.8,13ZM4.841,7.863a.485.485,0,0,0-.362.149.47.47,0,0,0-.146.335,1.347,1.347,0,0,0,.109.514,1.7,1.7,0,0,0,.335.5,1.891,1.891,0,0,0,.566.406,2.457,2.457,0,0,0,.794.213v1.047a.492.492,0,0,0,.056.263.218.218,0,0,0,.2.086.191.191,0,0,0,.2-.1.927.927,0,0,0,.045-.333V9.976a2.173,2.173,0,0,0,.958-.291,1.65,1.65,0,0,0,.61-.63,1.729,1.729,0,0,0,.208-.828,1.622,1.622,0,0,0-.13-.649,1.467,1.467,0,0,0-.371-.51,1.6,1.6,0,0,0-.51-.314c-.188-.071-.438-.15-.765-.241V4.9a.884.884,0,0,1,.616.644.485.485,0,0,0,.492.411.473.473,0,0,0,.343-.141.46.46,0,0,0,.141-.335.943.943,0,0,0-.1-.384,1.654,1.654,0,0,0-.269-.408A1.408,1.408,0,0,0,7.34,4.3a2.419,2.419,0,0,0-.711-.171V3.71c0-.211-.084-.318-.249-.318s-.244.11-.244.326v.411a1.909,1.909,0,0,0-1.228.5,1.489,1.489,0,0,0-.424,1.093,1.493,1.493,0,0,0,.216.838,1.474,1.474,0,0,0,.567.5,4.7,4.7,0,0,0,.869.32v1.8a1.049,1.049,0,0,1-.417-.213.95.95,0,0,1-.235-.309A4.751,4.751,0,0,1,5.3,8.173a.42.42,0,0,0-.167-.228A.511.511,0,0,0,4.841,7.863ZM6.629,9.22h0v-1.7a1.71,1.71,0,0,1,.61.312.664.664,0,0,1,.208.522.8.8,0,0,1-.214.551,1.068,1.068,0,0,1-.6.314ZM6.137,6.37h0a1.56,1.56,0,0,1-.518-.284.6.6,0,0,1-.171-.463.6.6,0,0,1,.182-.481,1.36,1.36,0,0,1,.508-.256V6.37Z" transform="translate(0 0)" fill="#4484f4" opacity="0.5"/>
</svg>
