<svg xmlns="http://www.w3.org/2000/svg" width="20" height="20" viewBox="0 0 20 20">
  <g id="subject-property-icn-medium" transform="translate(-6949.168 -3345.2)" opacity="0.5">
    <rect id="Rectangle_1204" data-name="Rectangle 1204" width="20" height="20" transform="translate(6949.168 3345.2)" fill="none"/>
    <path id="Path_11776" data-name="Path 11776" d="M60.952,78c-.263.461-.559.921-.855,1.349,1.842.395,2.829,1.151,2.829,1.579,0,.625-2.04,1.908-5.79,1.908s-5.79-1.25-5.79-1.908c0-.428.987-1.184,2.829-1.579A11.63,11.63,0,0,1,53.32,78c-2.04.526-3.52,1.513-3.52,2.961,0,2.27,3.717,3.454,7.369,3.454s7.369-1.184,7.369-3.454C64.5,79.513,62.991,78.526,60.952,78Z" transform="translate(6902 3280.785)" fill="#4484f4"/>
    <path id="Path_11777" data-name="Path 11777" d="M54.7,42.424c0,2.5,3.586,8.027,5.066,10.231a.768.768,0,0,0,1.283,0c1.513-2.2,5.066-7.73,5.066-10.231a5.707,5.707,0,1,0-11.415,0Zm5.724-2.665a2.665,2.665,0,1,1-2.665,2.665A2.653,2.653,0,0,1,60.424,39.759Z" transform="translate(6898.711 3308.5)" fill="#4484f4"/>
  </g>
</svg>
