<svg xmlns="http://www.w3.org/2000/svg" width="43" height="43" viewBox="0 0 43 43">
  <g id="Group_1053" data-name="Group 1053" transform="translate(-131 -490)">
    <g id="Ellipse_46" data-name="Ellipse 46" transform="translate(131 490)" fill="none" stroke="#4887f1" stroke-width="1">
      <circle cx="21.5" cy="21.5" r="21.5" stroke="none"/>
      <circle cx="21.5" cy="21.5" r="21" fill="none"/>
    </g>
    <g id="photo-camera" transform="translate(142 462)">
      <path id="Path_714" data-name="Path 714" d="M18.357,44.145H14.949l-.439-2.2A1.182,1.182,0,0,0,13.353,41H6.773a1.182,1.182,0,0,0-1.156.948l-.439,2.2H1.769A1.771,1.771,0,0,0,0,45.913v10.22A1.771,1.771,0,0,0,1.769,57.9H18.357a1.771,1.771,0,0,0,1.769-1.769V45.913A1.771,1.771,0,0,0,18.357,44.145ZM6.773,42.179h6.58l.393,1.965H6.38ZM18.946,56.134a.59.59,0,0,1-.59.59H1.769a.59.59,0,0,1-.59-.59V45.913a.59.59,0,0,1,.59-.59H18.357a.59.59,0,0,1,.59.59Z" transform="translate(0 0)" fill="#4484f4"/>
      <path id="Path_715" data-name="Path 715" d="M149.363,185a4.363,4.363,0,1,0,4.363,4.363A4.368,4.368,0,0,0,149.363,185Zm0,7.547a3.184,3.184,0,1,1,3.184-3.184A3.188,3.188,0,0,1,149.363,192.547Z" transform="translate(-139.3 -138.34)" fill="#4484f4"/>
      <path id="Path_716" data-name="Path 716" d="M67.476,185H65.59a.59.59,0,1,0,0,1.179h1.887a.59.59,0,0,0,0-1.179Z" transform="translate(-62.445 -138.34)" fill="#4484f4"/>
    </g>
  </g>
</svg>
