<svg xmlns="http://www.w3.org/2000/svg" width="43" height="43" viewBox="0 0 43 43">
  <g id="Group_1055" data-name="Group 1055" transform="translate(-140 -488)">
    <g id="Ellipse_46" data-name="Ellipse 46" transform="translate(140 488)" fill="none" stroke="#4887f1" stroke-width="1">
      <circle cx="21.5" cy="21.5" r="21.5" stroke="none"/>
      <circle cx="21.5" cy="21.5" r="21" fill="none"/>
    </g>
    <g id="folder" transform="translate(151 455.025)">
      <g id="Group_1050" data-name="Group 1050" transform="translate(0 44.975)">
        <path id="Path_717" data-name="Path 717" d="M20.848,49.288a.615.615,0,0,0-.458-.2h-2.4V46.94a.615.615,0,0,0-.615-.615H6.812V45.59a.615.615,0,0,0-.615-.615H.615A.615.615,0,0,0,0,45.59V61.67a.614.614,0,0,0,.615.619H19.065a.615.615,0,0,0,.612-.548L21,49.766A.615.615,0,0,0,20.848,49.288ZM1.231,46.206h4.35v.734a.615.615,0,0,0,.615.615H16.758v1.527H3.077a.615.615,0,0,0-.6.491l-1.244,6.05ZM18.514,61.059H1.37L3.579,50.314H19.7Z" transform="translate(0 -44.975)" fill="#4484f4"/>
      </g>
    </g>
  </g>
</svg>
