<svg id="Group_459" data-name="Group 459" xmlns="http://www.w3.org/2000/svg" width="23.605" height="21.599" viewBox="0 0 23.605 21.599">
  <path id="Path_500" data-name="Path 500" d="M23.5,35.732,12.519,15.767a.817.817,0,0,0-1.432,0L.1,35.732a.817.817,0,0,0,.716,1.211H22.788a.817.817,0,0,0,.716-1.211ZM2.2,35.309l9.6-17.453,9.6,17.453Z" transform="translate(-0.001 -15.344)" fill="#d7373f"/>
  <path id="Path_501" data-name="Path 501" d="M164.894,128.444v5.906a1.024,1.024,0,0,0,2.048,0v-5.906a1.024,1.024,0,0,0-2.048,0Z" transform="translate(-154.115 -120.094)" fill="#d7373f"/>
  <path id="Path_502" data-name="Path 502" d="M165.138,265.364a1.079,1.079,0,1,0,1.079,1.079A1.08,1.08,0,0,0,165.138,265.364Z" transform="translate(-153.335 -249.021)" fill="#d7373f"/>
</svg>
