<svg xmlns="http://www.w3.org/2000/svg" width="18" height="18" viewBox="0 0 18 18">
  <path id="Path_11747" data-name="Path 11747" d="M-2.028-4.68a.721.721,0,0,1-.535-.2.732.732,0,0,1-.2-.539V-12.8h-7.26a.721.721,0,0,1-.535-.2.732.732,0,0,1-.2-.539v-.472a.732.732,0,0,1,.2-.539.721.721,0,0,1,.535-.2h7.26v-7.18a.732.732,0,0,1,.2-.539.721.721,0,0,1,.535-.2h.5a.721.721,0,0,1,.535.2.732.732,0,0,1,.2.539v7.18H6.5a.72.72,0,0,1,.535.2.732.732,0,0,1,.2.539v.472a.732.732,0,0,1-.2.539.721.721,0,0,1-.535.2H-.79v7.382a.732.732,0,0,1-.2.539.721.721,0,0,1-.535.2Z" transform="translate(10.76 22.68)" fill="#7e829e"/>
</svg>
