<svg xmlns="http://www.w3.org/2000/svg" width="18" height="18" viewBox="0 0 18 18">
  <g id="Path_11201" data-name="Path 11201" fill="#fff">
    <path d="M3.6,0H14.4A3.6,3.6,0,0,1,18,3.6V14.4A3.6,3.6,0,0,1,14.4,18H3.6A3.6,3.6,0,0,1,0,14.4V3.6A3.6,3.6,0,0,1,3.6,0Z" stroke="none"/>
    <path d="M 3.600000381469727 2 C 2.71776008605957 2 2 2.71776008605957 2 3.600000381469727 L 2 14.39999961853027 C 2 15.28223991394043 2.71776008605957 16 3.600000381469727 16 L 14.39999961853027 16 C 15.28223991394043 16 16 15.28223991394043 16 14.39999961853027 L 16 3.600000381469727 C 16 2.71776008605957 15.28223991394043 2 14.39999961853027 2 L 3.600000381469727 2 M 3.600000381469727 0 L 14.39999961853027 0 C 16.38822937011719 0 18 1.611770629882812 18 3.600000381469727 L 18 14.39999961853027 C 18 16.38822937011719 16.38822937011719 18 14.39999961853027 18 L 3.600000381469727 18 C 1.611770629882812 18 0 16.38822937011719 0 14.39999961853027 L 0 3.600000381469727 C 0 1.611770629882812 1.611770629882812 0 3.600000381469727 0 Z" stroke="none" fill="rgba(68,132,244,0.3)"/>
  </g>
</svg>
