<svg xmlns="http://www.w3.org/2000/svg" width="17.5" height="16.828" viewBox="0 0 17.5 16.828">
  <g id="Group_337" data-name="Group 337" transform="translate(0)">
    <path id="Subtraction_15" data-name="Subtraction 15" d="M12.92,13.757H-.212V-.312h4.05V.92H8.87V-.312h4.443v7L10.5,9.672v1.556h1.7l1.111-.455-.392,2.982ZM6.836,3.3,4.8,4.248V7.291H8.688V4.5Z" transform="translate(0.833 2.583)" fill="#4484f4" opacity="0.3"/>
    <path id="Path_304" data-name="Path 304" d="M161.341,407h-2.629a.493.493,0,0,0,0,.986h2.629a.493.493,0,0,0,0-.986Z" transform="translate(-152.683 -393.623)" fill="#4484f4" stroke="rgba(0,0,0,0)" stroke-width="1"/>
    <path id="Path_305" data-name="Path 305" d="M161.341,347h-2.629a.493.493,0,1,0,0,.986h2.629a.493.493,0,1,0,0-.986Z" transform="translate(-152.683 -335.595)" fill="#4484f4" stroke="rgba(0,0,0,0)" stroke-width="1"/>
    <path id="Path_306" data-name="Path 306" d="M34.575,9.707,32.948,8.08a.493.493,0,0,0-.7,0l-.344.344V1.972a.493.493,0,0,0-.493-.493H27.521V.493A.493.493,0,0,0,27.028,0H22.1A.493.493,0,0,0,21.6.493v.986H17.712a.493.493,0,0,0-.493.493V16.335a.493.493,0,0,0,.493.493h13.7a.493.493,0,0,0,.493-.493V13.071L34.575,10.4a.493.493,0,0,0,0-.7ZM26.535.986V2.958H22.591V.986Zm4.386,14.856H18.205V2.465h3.4v.986a.493.493,0,0,0,.493.493h4.93a.493.493,0,0,0,.493-.493V2.465h3.4V9.409l-2.485,2.485a.493.493,0,0,0-.144.349V13.87a.493.493,0,0,0,.493.493h1.627a.493.493,0,0,0,.349-.144l.161-.161Zm-.714-2.465h-.93v-.93L32.6,9.125l.93.93Z" transform="translate(-17.219 0)" fill="#4484f4"/>
    <path id="Path_307" data-name="Path 307" d="M124.409,157.028a.493.493,0,0,0-.22-.661l-2.629-1.315a.493.493,0,0,0-.441,0l-2.629,1.315a.493.493,0,0,0,.385.905V159.6a.493.493,0,0,0,.493.493h3.944a.493.493,0,0,0,.493-.493v-2.329a.493.493,0,0,0,.605-.244Zm-2.577,2.08v-.493a.493.493,0,0,0-.986,0v.493h-.986v-2.325l1.479-.739,1.479.739v2.325Z" transform="translate(-113.994 -149.905)" fill="#4484f4" stroke="rgba(0,0,0,0)" stroke-width="1"/>
  </g>
</svg>
