<svg xmlns="http://www.w3.org/2000/svg" xmlns:xlink="http://www.w3.org/1999/xlink" width="11.3" height="11.329" viewBox="0 0 11.3 11.329">
  <defs>
    <clipPath id="clip-path">
      <rect id="Rectangle_694" data-name="Rectangle 694" width="11.3" height="11.329" fill="#7e829e"/>
    </clipPath>
  </defs>
  <g id="Group_16936" data-name="Group 16936" transform="translate(-259 -382.89)">
    <g id="Group_16935" data-name="Group 16935" transform="translate(259 382.89)">
      <g id="Group_16934" data-name="Group 16934" transform="translate(0 0)" clip-path="url(#clip-path)">
        <path id="Path_11364" data-name="Path 11364" d="M266.394,388.536l3.829-3.829a.235.235,0,0,0,0-.333l-1.415-1.415a.235.235,0,0,0-.333,0l-3.829,3.829-3.829-3.829a.242.242,0,0,0-.333,0l-1.415,1.415a.235.235,0,0,0,0,.333l3.829,3.829-3.829,3.829a.235.235,0,0,0,0,.333l1.415,1.415a.235.235,0,0,0,.333,0l3.829-3.829,3.829,3.829a.234.234,0,0,0,.333,0l1.415-1.414a.236.236,0,0,0,0-.333Zm0,0" transform="translate(-259 -382.89)" fill="#7e829e"/>
      </g>
    </g>
  </g>
</svg>
