<svg xmlns="http://www.w3.org/2000/svg" width="14.825" height="14.825" viewBox="0 0 14.825 14.825">
  <g id="edit" transform="translate(0 -0.004)">
    <g id="Group_732" data-name="Group 732" transform="translate(0 1.063)">
      <g id="Group_731" data-name="Group 731">
        <path id="Path_333" data-name="Path 333" d="M12.178,40.491a.529.529,0,0,0-.529.529v5.295a.529.529,0,0,1-.529.529H1.588a.529.529,0,0,1-.529-.529V35.725a.529.529,0,0,1,.529-.529H7.942a.529.529,0,1,0,0-1.059H1.588A1.588,1.588,0,0,0,0,35.725V46.315A1.588,1.588,0,0,0,1.588,47.9h9.53a1.588,1.588,0,0,0,1.588-1.588V41.02A.529.529,0,0,0,12.178,40.491Z" transform="translate(0 -34.137)" fill="#103b5c"/>
      </g>
    </g>
    <g id="Group_734" data-name="Group 734" transform="translate(3.177 0.004)">
      <g id="Group_733" data-name="Group 733" transform="translate(0 0)">
        <path id="Path_334" data-name="Path 334" d="M113.463.6A2.027,2.027,0,0,0,110.6.6l-6.974,6.974a.535.535,0,0,0-.128.207l-1.059,3.177a.53.53,0,0,0,.5.7.538.538,0,0,0,.167-.027l3.177-1.059a.53.53,0,0,0,.207-.128l6.974-6.974A2.027,2.027,0,0,0,113.463.6Zm-.749,2.118L105.831,9.6l-2.056.687.685-2.054,6.886-6.883a.967.967,0,1,1,1.369,1.367Z" transform="translate(-102.409 -0.004)" fill="#103b5c"/>
      </g>
    </g>
  </g>
</svg>
