<svg xmlns="http://www.w3.org/2000/svg" width="20.471" height="16.284" viewBox="0 0 20.471 16.284">
  <path id="Union_5" data-name="Union 5" d="M-14971.906-5263.991a3.152,3.152,0,0,1-2.526,1.274.635.635,0,0,1-.448-.187.631.631,0,0,1-.185-.449.634.634,0,0,1,.185-.449.633.633,0,0,1,.448-.187,1.9,1.9,0,0,0,1.894-1.909v-9.922a1.9,1.9,0,0,0-1.894-1.909.633.633,0,0,1-.448-.187.634.634,0,0,1-.185-.449.634.634,0,0,1,.631-.637,3.152,3.152,0,0,1,2.526,1.274,3.148,3.148,0,0,1,2.527-1.274.634.634,0,0,1,.632.636.634.634,0,0,1-.632.636,1.905,1.905,0,0,0-1.9,1.909v9.922a1.905,1.905,0,0,0,1.9,1.909h.024a.634.634,0,0,1,.607.636.634.634,0,0,1-.632.636A3.148,3.148,0,0,1-14971.906-5263.991Zm1.084-.8Zm2.4-.687a.8.8,0,0,1-.8-.806.8.8,0,0,1,.8-.8h.72a1.607,1.607,0,0,0,1.6-1.61v-4.751a1.607,1.607,0,0,0-1.6-1.61h-.72a.8.8,0,0,1-.8-.8.8.8,0,0,1,.8-.806h.72a3.213,3.213,0,0,1,3.2,3.221v4.75a3.214,3.214,0,0,1-3.2,3.221Zm-13.354,0a3.214,3.214,0,0,1-3.2-3.221v-4.75a3.214,3.214,0,0,1,3.2-3.221h7a.8.8,0,0,1,.8.806.8.8,0,0,1-.8.805h-7a1.607,1.607,0,0,0-1.6,1.61v4.75a1.607,1.607,0,0,0,1.6,1.61h7a.8.8,0,0,1,.8.8c0,.443-.8.806-.8.806Zm11.593-2.768a.692.692,0,0,1-.212-.5.691.691,0,0,1,.212-.506.686.686,0,0,1,.5-.214.685.685,0,0,1,.508.213.7.7,0,0,1,.207.506.7.7,0,0,1-.207.5.682.682,0,0,1-.508.214A.686.686,0,0,1-14970.184-5268.244Zm-4.616,0a.688.688,0,0,1-.212-.5.69.69,0,0,1,.212-.506.684.684,0,0,1,.5-.214.682.682,0,0,1,.507.213.7.7,0,0,1,.208.506.7.7,0,0,1-.208.5.678.678,0,0,1-.507.214.684.684,0,0,1-.5-.214Zm-3.255.068q-.4-.02-.749-.02t-.754.02c-.261.014-.521.02-.777.02-.016,0-.03-.021-.043-.063a.391.391,0,0,1-.02-.11.338.338,0,0,1,.02-.1c.013-.042.027-.065.043-.071a1.1,1.1,0,0,0,.608-.2.633.633,0,0,0,.146-.466v-3.747a.327.327,0,0,0-.071-.241.394.394,0,0,0-.268-.067h-.062a1.276,1.276,0,0,0-.793.486,2.982,2.982,0,0,0-.667,1c-.006.016-.025.026-.06.032a.583.583,0,0,1-.082.008.327.327,0,0,1-.138-.032c-.045-.021-.066-.045-.066-.071.053-.264.108-.586.169-.968s.1-.7.129-.953a8.38,8.38,0,0,0,.856.079q.582.032,1.829.031,1.066,0,1.778-.031a7.571,7.571,0,0,0,.938-.079c.017.252.037.553.063.9s.055.688.086,1.019q0,.04-.059.072a.294.294,0,0,1-.138.032.434.434,0,0,1-.086-.012c-.036-.008-.058-.018-.063-.028a2.692,2.692,0,0,0-.521-.96c-.275-.35-.532-.525-.773-.526h-.117a.369.369,0,0,0-.26.076.311.311,0,0,0-.078.232v3.747a.633.633,0,0,0,.149.466,1.029,1.029,0,0,0,.6.2q.023,0,.044.067a.4.4,0,0,1,.019.106.357.357,0,0,1-.019.111c-.014.042-.028.063-.044.063-.252,0-.509-.005-.775-.019Z" transform="translate(14984.976 5279)" fill="#4484f4"/>
</svg>