<svg xmlns="http://www.w3.org/2000/svg" width="141.991" height="105.838" viewBox="0 0 141.991 105.838">
  <g id="Group_621" data-name="Group 621" transform="translate(-13610.305 -1024.014)">
    <g id="Group_618" data-name="Group 618" transform="translate(13622.244 1062.58)">
      <path id="Path_353" data-name="Path 353" d="M13910.456,944.867h110.031l-1.633,9.5,6.7-1.488-3.59,13.386,1.7,34.7h-115.187l3.632-34.7-5.923-13.386,5.923,1.488Z" transform="translate(-13906.189 -944.867)" fill="#7E829E"></path>
      <g id="Path_358" data-name="Path 358" transform="translate(0 16.356)" fill="#fff">
        <path d="M 5.493267059326172 9.486536979675293 C 3.291367053985596 9.486536979675293 1.499997019767761 7.695167064666748 1.499997019767761 5.493267059326172 C 1.499997019767761 3.291367053985596 3.291367053985596 1.499997019767761 5.493267059326172 1.499997019767761 C 7.695167064666748 1.499997019767761 9.486536979675293 3.291367053985596 9.486536979675293 5.493267059326172 C 9.486536979675293 7.695167064666748 7.695167064666748 9.486536979675293 5.493267059326172 9.486536979675293 Z" stroke="none"></path>
        <path d="M 5.493267059326172 2.999997138977051 C 4.118476867675781 2.999997138977051 2.999997138977051 4.118476867675781 2.999997138977051 5.493267059326172 C 2.999997138977051 6.868057250976562 4.118476867675781 7.986536979675293 5.493267059326172 7.986536979675293 C 6.868057250976562 7.986536979675293 7.986536979675293 6.868057250976562 7.986536979675293 5.493267059326172 C 7.986536979675293 4.118476867675781 6.868057250976562 2.999997138977051 5.493267059326172 2.999997138977051 M 5.493267059326172 -2.86102294921875e-06 C 8.527116775512695 -2.86102294921875e-06 10.98653697967529 2.459417343139648 10.98653697967529 5.493267059326172 C 10.98653697967529 8.527116775512695 8.527116775512695 10.98653697967529 5.493267059326172 10.98653697967529 C 2.459417343139648 10.98653697967529 -2.86102294921875e-06 8.527116775512695 -2.86102294921875e-06 5.493267059326172 C -2.86102294921875e-06 2.459417343139648 2.459417343139648 -2.86102294921875e-06 5.493267059326172 -2.86102294921875e-06 Z" stroke="none" fill="#4484F4"></path>
      </g>
      <g id="Ellipse_87" data-name="Ellipse 87" transform="translate(109.179 16.356)" fill="#fff" stroke="#4484F4" stroke-width="3">
        <circle cx="5.493" cy="5.493" r="5.493" stroke="none"></circle>
        <circle cx="5.493" cy="5.493" r="3.993" fill="none"></circle>
      </g>
    </g>
    <path id="Path_354" data-name="Path 354" d="M13668.432,1049.117l-1.033,7.729V1132.9l4.1,2.653h60.258l2.279-3.634V1061.2l-14.178-12.927Z" transform="translate(-18.101 -7.602)" fill="#fff"></path>
    <g id="file_2_" data-name="file (2)" transform="translate(13647.818 1024.014)">
      <path id="Path_351" data-name="Path 351" d="M159.715,53.7,146.5,40.484A1.652,1.652,0,0,0,145.334,40H95.783a4.961,4.961,0,0,0-4.955,4.955v80.933a4.961,4.961,0,0,0,4.955,4.955h59.461a4.961,4.961,0,0,0,4.955-4.955V54.865A1.651,1.651,0,0,0,159.715,53.7Zm-12.73-8.059,7.575,7.575h-7.575Zm8.258,81.9H95.783a1.653,1.653,0,0,1-1.652-1.652V44.955A1.653,1.653,0,0,1,95.783,43.3h47.9V54.865a1.651,1.651,0,0,0,1.652,1.652H156.9v69.371A1.653,1.653,0,0,1,155.244,127.539Z" transform="translate(-90.828 -25.005)" fill="#4484F4"></path>
      <path id="Path_352" data-name="Path 352" d="M48.663,166.828a1.651,1.651,0,0,0-2.335,0L45.159,168l-1.168-1.168a1.651,1.651,0,0,0-2.335,2.335l1.168,1.168L41.656,171.5a1.651,1.651,0,1,0,2.335,2.335l1.168-1.168,1.168,1.168a1.651,1.651,0,0,0,2.335-2.335l-1.168-1.168,1.168-1.168A1.651,1.651,0,0,0,48.663,166.828Z" transform="translate(-17.73 -163.725)" fill="#b4b4b4"></path>
      <circle id="Ellipse_82" data-name="Ellipse 82" cx="1.652" cy="1.652" r="1.652" transform="translate(37.339 0)" fill="#b4b4b4"></circle>
      <circle id="Ellipse_83" data-name="Ellipse 83" cx="1.652" cy="1.652" r="1.652" transform="translate(37.191 8.611)" fill="#b4b4b4"></circle>
    </g>
    <g id="Group_617" data-name="Group 617" transform="translate(13664.13 1064.517)">
      <circle id="Ellipse_84" data-name="Ellipse 84" cx="3.433" cy="3.433" r="3.433" transform="translate(0)" fill="#2c9ef5"></circle>
      <circle id="Ellipse_85" data-name="Ellipse 85" cx="3.433" cy="3.433" r="3.433" transform="translate(30.213)" fill="#2c9ef5"></circle>
      <rect id="Rectangle_258" data-name="Rectangle 258" width="23.346" height="2.747" rx="1.373" transform="translate(6.867 13.733)" fill="#2c9ef5"></rect>
    </g>
    <g id="Group_619" data-name="Group 619" transform="translate(13743.369 1053.443) rotate(45)">
      <path id="Path_355" data-name="Path 355" d="M.852,0h8.1a.852.852,0,0,1,0,1.7H.852a.852.852,0,0,1,0-1.7Z" transform="translate(5.849 9.803) rotate(-90)" fill="#b4b4b4"></path>
      <path id="Path_357" data-name="Path 357" d="M.852,0h8.1a.852.852,0,0,1,0,1.7H.852a.852.852,0,0,1,0-1.7Z" transform="translate(9.377 9.877) rotate(-76)" fill="#b4b4b4"></path>
      <path id="Path_356" data-name="Path 356" d="M.852,0h8.1a.852.852,0,0,1,0,1.7H.852a.852.852,0,0,1,0-1.7Z" transform="translate(2.372 10.29) rotate(-104)" fill="#b4b4b4"></path>
    </g>
    <g id="Group_620" data-name="Group 620" transform="translate(13609.631 1065.737) rotate(-60)">
      <path id="Path_355-2" data-name="Path 355" d="M.852,0h8.1a.852.852,0,0,1,0,1.7H.852a.852.852,0,0,1,0-1.7Z" transform="translate(5.849 9.803) rotate(-90)" fill="#b4b4b4"></path>
      <path id="Path_357-2" data-name="Path 357" d="M.852,0h8.1a.852.852,0,0,1,0,1.7H.852a.852.852,0,0,1,0-1.7Z" transform="translate(9.377 9.877) rotate(-76)" fill="#b4b4b4"></path>
      <path id="Path_356-2" data-name="Path 356" d="M.852,0h8.1a.852.852,0,0,1,0,1.7H.852a.852.852,0,0,1,0-1.7Z" transform="translate(2.372 10.29) rotate(-104)" fill="#b4b4b4"></path>
    </g>
  </g>
</svg>