<svg id="Group_459" data-name="Group 459" xmlns="http://www.w3.org/2000/svg" width="40.035" height="36.633" viewBox="0 0 40.035 36.633">
  <path id="Path_500" data-name="Path 500" d="M39.863,49.923,21.232,16.062a1.386,1.386,0,0,0-2.428,0L.172,49.923a1.386,1.386,0,0,0,1.214,2.054H38.649a1.386,1.386,0,0,0,1.214-2.054ZM3.731,49.2,20.018,19.6,36.305,49.2Z" transform="translate(-0.001 -15.344)" fill="#ff5652"/>
  <path id="Path_501" data-name="Path 501" d="M164.894,129.157v10.017a1.737,1.737,0,0,0,3.473,0V129.157a1.737,1.737,0,0,0-3.473,0Z" transform="translate(-146.613 -114.995)" fill="#ff5652"/>
  <path id="Path_502" data-name="Path 502" d="M165.888,265.364a1.829,1.829,0,1,0,1.829,1.829A1.831,1.831,0,0,0,165.888,265.364Z" transform="translate(-145.871 -237.646)" fill="#ff5652"/>
</svg>
