<svg xmlns="http://www.w3.org/2000/svg" width="19" height="19" viewBox="0 0 19 19">
  <g id="Group_20256" data-name="Group 20256" opacity="0.3">
    <g id="Group_20245" data-name="Group 20245" transform="translate(1 1)">
      <g id="Group_20244" data-name="Group 20244" transform="translate(0 0)">
        <g id="Group_20243" data-name="Group 20243" transform="translate(0 0)">
          <g id="Group_20242" data-name="Group 20242">
            <circle id="Ellipse_283" data-name="Ellipse 283" cx="8.5" cy="8.5" r="8.5" fill="none" stroke="#4484f4" stroke-width="2"/>
            <path id="Path_13810" data-name="Path 13810" d="M17.482,19.33l-.146.6q-.658.259-1.049.4a2.77,2.77,0,0,1-.91.136,1.814,1.814,0,0,1-1.239-.388,1.256,1.256,0,0,1-.442-.986,3.489,3.489,0,0,1,.033-.475q.033-.242.106-.548l.545-1.939q.073-.279.123-.528a2.333,2.333,0,0,0,.05-.455.7.7,0,0,0-.153-.518.861.861,0,0,0-.584-.146,1.516,1.516,0,0,0-.435.066q-.222.066-.382.126l.146-.6q.538-.219,1.029-.375a3.075,3.075,0,0,1,.93-.156,1.771,1.771,0,0,1,1.219.382,1.268,1.268,0,0,1,.428.993q0,.126-.03.445a3.009,3.009,0,0,1-.11.584l-.545,1.932a5.351,5.351,0,0,0-.12.531,2.818,2.818,0,0,0-.053.452.648.648,0,0,0,.173.525.971.971,0,0,0,.6.139,1.716,1.716,0,0,0,.452-.07A2.512,2.512,0,0,0,17.482,19.33Zm.139-8.108a1.132,1.132,0,0,1-.382.86,1.372,1.372,0,0,1-1.843,0,1.156,1.156,0,0,1,0-1.723,1.363,1.363,0,0,1,1.843,0A1.142,1.142,0,0,1,17.622,11.222Z" transform="translate(-7.05 -6.6)" fill="#4484f4" fill-rule="evenodd"/>
          </g>
        </g>
      </g>
    </g>
  </g>
</svg>
