<svg xmlns="http://www.w3.org/2000/svg" width="14.172" height="16.472" viewBox="0 0 14.172 16.472">
  <g id="Group_18673" data-name="Group 18673" transform="matrix(0.966, 0.259, -0.259, 0.966, -5522.661, -6100.913)" opacity="0.5">
    <path id="Path_11855" data-name="Path 11855" d="M16.136,10.369l-.245.09a10.508,10.508,0,0,0-6.854,9.678l0,.261H19.66Zm-.754,4.653a1.378,1.378,0,0,0-.727-.2c-.5,0-.523.333-.523.4,0,.224.157.355.7.587a1.427,1.427,0,0,1,1.085,1.31,1.231,1.231,0,0,1-.843,1.168l-.169.062v.684h-.718v-.639l-.211-.039a1.772,1.772,0,0,1-.7-.275l-.1-.069.262-.729.167.109a1.573,1.573,0,0,0,.83.25c.418,0,.606-.237.606-.471,0-.257-.181-.436-.629-.618-.8-.312-1.153-.7-1.153-1.259a1.158,1.158,0,0,1,.793-1.109l.168-.062v-.658h.718v.621l.207.042a1.817,1.817,0,0,1,.547.2l.117.066-.274.721Z" transform="translate(6906.987 4452.619)" fill="#4484f4"/>
    <path id="Path_11856" data-name="Path 11856" d="M19.1,14.859a2.878,2.878,0,0,0-.923.152l.975,2.775H16.207A2.89,2.89,0,1,0,19.1,14.859Z" transform="translate(6908.034 4455.65)" fill="#4484f4"/>
  </g>
</svg>
