<svg xmlns="http://www.w3.org/2000/svg" width="30" height="30" viewBox="0 0 30 30">
  <g id="Group_17816" data-name="Group 17816" transform="translate(-0.75 0.75)">
    <path id="Path_11458" data-name="Path 11458" d="M0,30H30V0H0Z" transform="translate(30.75 29.25) rotate(180)" fill="none"/>
    <path id="Path_893" data-name="Path 893" d="M21.109,80.609H2.034A2.036,2.036,0,0,0,0,82.643V94.431a2.036,2.036,0,0,0,2.034,2.034H21.109a2.036,2.036,0,0,0,2.034-2.034V82.643A2.036,2.036,0,0,0,21.109,80.609Zm-6,7.894,6.676-5.559v10Zm5.461-6.312-8.194,6.823a1.261,1.261,0,0,1-1.614,0L2.571,82.191,2.3,81.965H20.844Zm-19.216.753L8.032,88.5,1.356,92.946ZM21.109,95.109H2.034a.679.679,0,0,1-.664-.543l7.75-5.158.778.648a2.617,2.617,0,0,0,3.35,0l.778-.648,7.749,5.157A.679.679,0,0,1,21.109,95.109Z" transform="translate(3.75 -74.359)" fill="#4484f4"/>
  </g>
</svg>
