<svg xmlns="http://www.w3.org/2000/svg" width="23.906" height="24" viewBox="0 0 23.906 24">
  <g id="Group_17565" data-name="Group 17565" transform="translate(-35 -699)">
    <g id="Group_17564" data-name="Group 17564" transform="translate(-7 533.11)">
      <path id="Path_11474" data-name="Path 11474" d="M58.875,177.273V167.53a1.642,1.642,0,0,0-1.641-1.64H43.641A1.642,1.642,0,0,0,42,167.53V185.39a1.643,1.643,0,0,0,1.641,1.641H54.288a6.327,6.327,0,1,0,4.587-9.757Zm-15.234,8.351a.235.235,0,0,1-.235-.235V167.53a.234.234,0,0,1,.235-.234H57.234a.234.234,0,0,1,.235.234V177.6a6.324,6.324,0,0,0-1.862,1.043c-.175-.066.314-.046-7.279-.046a.7.7,0,0,0,0,1.406h6.023a6.313,6.313,0,0,0-.722,1.406h-5.3a.7.7,0,0,0,0,1.406h4.967a6.32,6.32,0,0,0,.3,2.812Zm15.938,2.859a4.922,4.922,0,1,1,4.922-4.922,4.927,4.927,0,0,1-4.922,4.922Zm0,0" fill="#7e829e"/>
      <path id="Path_11475" data-name="Path 11475" d="M62.468,182.284H69.5a.7.7,0,1,0,0-1.406H62.468a.7.7,0,0,0,0,1.406Zm0,0" transform="translate(-14.14 -10.722)" fill="#7e829e"/>
      <path id="Path_11476" data-name="Path 11476" d="M62.468,192.166H69.5a.7.7,0,0,0,0-1.406H62.468a.7.7,0,0,0,0,1.406Zm0,0" transform="translate(-14.14 -17.792)" fill="#7e829e"/>
      <path id="Path_11477" data-name="Path 11477" d="M62.468,202.049H69.5a.7.7,0,1,0,0-1.406H62.468a.7.7,0,0,0,0,1.406Zm0,0" transform="translate(-14.14 -24.862)" fill="#7e829e"/>
      <path id="Path_11478" data-name="Path 11478" d="M53.288,181.581a.7.7,0,1,1-.7-.7.7.7,0,0,1,.7.7Zm0,0" transform="translate(-7.07 -10.722)" fill="#7e829e"/>
      <path id="Path_11479" data-name="Path 11479" d="M53.288,191.463a.7.7,0,1,1-.7-.7.7.7,0,0,1,.7.7Zm0,0" transform="translate(-7.07 -17.792)" fill="#7e829e"/>
      <path id="Path_11480" data-name="Path 11480" d="M53.288,201.346a.7.7,0,1,1-.7-.7.7.7,0,0,1,.7.7Zm0,0" transform="translate(-7.07 -24.862)" fill="#7e829e"/>
      <path id="Path_11481" data-name="Path 11481" d="M53.288,211.228a.7.7,0,1,1-.7-.7.7.7,0,0,1,.7.7Zm0,0" transform="translate(-7.07 -31.932)" fill="#7e829e"/>
      <path id="Path_11482" data-name="Path 11482" d="M53.288,221.11a.7.7,0,1,1-.7-.7.7.7,0,0,1,.7.7Zm0,0" transform="translate(-7.07 -39.001)" fill="#7e829e"/>
      <path id="Path_11483" data-name="Path 11483" d="M96.695,215.466a.7.7,0,0,0-.7.7v2.109H94.585a.7.7,0,1,0,0,1.406h2.109a.7.7,0,0,0,.7-.7v-2.812a.7.7,0,0,0-.7-.7Zm0,0" transform="translate(-37.116 -35.467)" fill="#7e829e"/>
    </g>
    <path id="Path_11484" data-name="Path 11484" d="M10639.286,700.286h14.571v10.286s-5.571,1.857-3.857,8.714c-.143.286-10.714,0-10.714,0Z" transform="translate(-10603)" fill="#7e829e" opacity="0.3"/>
  </g>
</svg>
