<svg xmlns="http://www.w3.org/2000/svg" width="173.367" height="227.258" viewBox="0 0 173.367 227.258">
  <g id="Group_18818" data-name="Group 18818" transform="translate(629.923 -43.436)">
    <g id="Group_18815" data-name="Group 18815" transform="translate(-629.923 158.453)">
      <path id="Path_11983" data-name="Path 11983" d="M-572.76,219.992h0a6.178,6.178,0,0,0-6.02-4.792h-44.966a6.177,6.177,0,0,0-6.177,6.177v99.887a6.177,6.177,0,0,0,6.177,6.177h142.691a6.177,6.177,0,0,0,6.178-6.177v-83.9a6.178,6.178,0,0,0-6.178-6.177H-558.7A14.428,14.428,0,0,1-572.76,219.992Z" transform="translate(629.923 -215.2)" fill="#dbdbdb"/>
    </g>
    <g id="Group_18816" data-name="Group 18816" transform="translate(-600.005 116.383)">
      <path id="Path_11985" data-name="Path 11985" d="M-460.528,222.2l-20.931,4.135-21.116,4.171-6.84,4.138-13.512,8.175-6.856,4.148-18.324,4.161-21.973,4.99.016,48.014a9.5,9.5,0,0,0,9.507,9.5L-470,313.6a9.5,9.5,0,0,0,9.5-9.507Z" transform="translate(570.078 -222.197)" fill="#f6f6f6"/>
      <path id="Path_11986" data-name="Path 11986" d="M-483.737,355.158l-58.87.019a4.163,4.163,0,0,1-4.152-4.149h0a4.163,4.163,0,0,1,4.149-4.152l58.87-.019a4.162,4.162,0,0,1,4.152,4.149h0A4.162,4.162,0,0,1-483.737,355.158Z" transform="translate(559.858 -276.832)" fill="#407bff" opacity="0.25"/>
      <path id="Path_11987" data-name="Path 11987" d="M-496.512,296.519l-46.114.015a4.162,4.162,0,0,1-4.152-4.149h0a4.162,4.162,0,0,1,4.149-4.152l46.114-.015a4.163,4.163,0,0,1,4.152,4.149h0A4.163,4.163,0,0,1-496.512,296.519Z" transform="translate(559.866 -251.132)" fill="#e8e8e8"/>
      <path id="Path_11988" data-name="Path 11988" d="M-418.553,296.5l-12.307,0a4.163,4.163,0,0,1-4.152-4.149h0a4.163,4.163,0,0,1,4.149-4.152l12.307,0a4.163,4.163,0,0,1,4.152,4.149h0A4.162,4.162,0,0,1-418.553,296.5Z" transform="translate(510.882 -251.125)" fill="#e8e8e8"/>
      <path id="Path_11989" data-name="Path 11989" d="M-467.528,325.825l-75.089.024a4.163,4.163,0,0,1-4.152-4.149h0a4.163,4.163,0,0,1,4.149-4.152l75.089-.025a4.164,4.164,0,0,1,4.152,4.15h0A4.163,4.163,0,0,1-467.528,325.825Z" transform="translate(559.862 -263.976)" fill="#e8e8e8"/>
      <path id="Path_11990" data-name="Path 11990" d="M-462.083,237.867l31.654-.01a4.162,4.162,0,0,0,4.149-4.152,4.162,4.162,0,0,0-4.152-4.149h-3.7l-21.116,4.171Z" transform="translate(522.747 -225.422)" fill="#e8e8e8"/>
      <path id="Path_11991" data-name="Path 11991" d="M-530.962,267.2l70.351-.022a4.163,4.163,0,0,0,4.149-4.152,4.162,4.162,0,0,0-4.152-4.149l-45.169.015-6.856,4.148Z" transform="translate(552.935 -238.274)" fill="#e8e8e8"/>
    </g>
    <g id="Group_18817" data-name="Group 18817" transform="translate(-619.159 45.483) rotate(-1)">
      <path id="Path_11993" data-name="Path 11993" d="M-505.707,108.656l-34.518-22.935L-609.583,99.7a9.5,9.5,0,0,0-7.438,11.195l16.354,81.119,20.556-9.227,17.142-7.695,5.9-5.419L-545.433,159l5.889-5.406,19.878-8.256,19.7-8.183Z" transform="translate(617.21 -85.721)" fill="#f6f6f6"/>
      <path id="Path_11994" data-name="Path 11994" d="M-555.969,127.847-586.492,134a4.163,4.163,0,0,1-4.889-3.248h0a4.162,4.162,0,0,1,3.248-4.889l30.523-6.154a4.163,4.163,0,0,1,4.889,3.248h0A4.162,4.162,0,0,1-555.969,127.847Z" transform="translate(605.926 -100.582)" fill="#e8e8e8"/>
      <path id="Path_11995" data-name="Path 11995" d="M-530.262,149.446-580.7,159.614a4.163,4.163,0,0,1-4.889-3.248h0a4.163,4.163,0,0,1,3.248-4.889l50.434-10.167a4.162,4.162,0,0,1,4.889,3.248h0A4.162,4.162,0,0,1-530.262,149.446Z" transform="translate(603.386 -110.048)" fill="#e8e8e8"/>
      <path id="Path_11996" data-name="Path 11996" d="M-501.294,169.873l-73.608,14.84a4.163,4.163,0,0,1-4.889-3.248h0a4.163,4.163,0,0,1,3.248-4.889l73.608-14.84a4.163,4.163,0,0,1,4.889,3.248h0A4.162,4.162,0,0,1-501.294,169.873Z" transform="translate(600.846 -119.001)" fill="#e8e8e8"/>
      <path id="Path_11997" data-name="Path 11997" d="M-557.914,221.018l-11.193,2.256A4.162,4.162,0,0,1-574,220.027h0a4.162,4.162,0,0,1,3.248-4.889l11.193-2.257a4.163,4.163,0,0,1,4.889,3.248h0A4.162,4.162,0,0,1-557.914,221.018Z" transform="translate(598.306 -141.416)" fill="#e8e8e8"/>
      <path id="Path_11998" data-name="Path 11998" d="M-480.16,85.721l3.914,19.41a9.506,9.506,0,0,0,11.2,7.437l19.4-3.912Z" transform="translate(557.145 -85.721)" fill="#e8e8e8"/>
      <path id="Path_11999" data-name="Path 11999" d="M-519.136,204.63a4.162,4.162,0,0,0,4.889,3.248l11.761-2.371,5.889-5.406,19.878-8.256-39.169,7.9A4.162,4.162,0,0,0-519.136,204.63Z" transform="translate(574.263 -132.232)" fill="#e8e8e8"/>
      <path id="Path_12000" data-name="Path 12000" d="M-568.2,245.982a4.163,4.163,0,0,0,4.889,3.248l4.644-.936,17.142-7.695,5.9-5.419-29.33,5.913A4.163,4.163,0,0,0-568.2,245.982Z" transform="translate(595.767 -151.225)" fill="#e8e8e8"/>
    </g>
    <path id="Path_12001" data-name="Path 12001" d="M-548.479,235.857h0a4.862,4.862,0,0,0-5.084-4.793h-44.966a7.876,7.876,0,0,0-7.383,6.177l-17.764,90.976a4.939,4.939,0,0,0,4.971,6.177h142.692a7.876,7.876,0,0,0,7.383-6.177l14.643-74.99a4.939,4.939,0,0,0-4.971-6.177H-536.6C-543.326,247.05-548.251,242.408-548.479,235.857Z" transform="translate(-2.686 -63.7)" fill="#e7e7ea"/>
  </g>
</svg>
