<svg xmlns="http://www.w3.org/2000/svg" width="10.665" height="14" viewBox="0 0 10.665 14">
  <g id="Group_18672" data-name="Group 18672" transform="translate(-10059.041 -950.258)" opacity="0.5">
    <path id="Union_24" data-name="Union 24" d="M0,10.308A6.721,6.721,0,0,1,1.534,6.159,5.81,5.81,0,0,1,3.19,4.738a1.254,1.254,0,0,1-.23-.413A1.234,1.234,0,0,1,3.8,2.755L2.752.93a.411.411,0,0,1,.242-.6,8.408,8.408,0,0,1,4.677,0,.411.411,0,0,1,.242.6L6.866,2.755a1.232,1.232,0,0,1,.608,1.983A5.8,5.8,0,0,1,9.13,6.159a6.727,6.727,0,0,1,1.534,4.149C10.664,13.29,8.286,14,5.332,14S0,13.291,0,10.308Zm5.242,2.876a.584.584,0,0,0,.482-.574v-.682l.016-.006a1.747,1.747,0,0,0-.6-3.389.583.583,0,0,1-.227-1.12.561.561,0,0,1,.224-.045.939.939,0,0,1,.632.3.582.582,0,1,0,.81-.836A2.24,2.24,0,0,0,5.724,6.3V5.62a.582.582,0,0,0-1.165,0V6.3c-.03.011-.062.022-.1.038A1.748,1.748,0,0,0,5.142,9.7a.583.583,0,0,1,.2,1.13.592.592,0,0,1-.2.035,1.054,1.054,0,0,1-.756-.44.583.583,0,0,0-1.027.324.575.575,0,0,0,.135.425,2.437,2.437,0,0,0,1.065.761v.677a.584.584,0,0,0,.47.572ZM6.58,4.349a.41.41,0,0,0,.083-.8,4.229,4.229,0,0,0-.5-.131h0A4.244,4.244,0,0,0,4,3.552a.41.41,0,0,0,.086.8,4.145,4.145,0,0,1,2.494,0Z" transform="translate(10059.041 950.258)" fill="#4484f4"/>
  </g>
</svg>
