<svg xmlns="http://www.w3.org/2000/svg" width="20" height="20" viewBox="0 0 20 20">
  <g id="Group_18735" data-name="Group 18735" transform="translate(-28 -772)">
    <rect id="Rectangle_1164" data-name="Rectangle 1164" width="20" height="20" transform="translate(28 772)" fill="none"/>
    <path id="Subtraction_28" data-name="Subtraction 28" d="M-12298.669,18137.668H-12309a2,2,0,0,1-2-2v-5.162a2,2,0,0,1,2-2h10.333a2,2,0,0,1,2,2v5.162A2.007,2.007,0,0,1-12298.669,18137.668Zm-6.163-7.666h0v3h2v-3Z" transform="translate(12341.833 -17349)" fill="rgba(126,130,158,0.3)"/>
    <path id="Path_12049" data-name="Path 12049" d="M23.9,14.3h-.814v-.983A1.313,1.313,0,0,0,21.774,12h-6a1.313,1.313,0,0,0-1.313,1.313V14.3h-.814A2.818,2.818,0,0,0,10.83,17.11v7.076A2.818,2.818,0,0,0,13.644,27H23.9a2.818,2.818,0,0,0,2.814-2.814V17.118A2.818,2.818,0,0,0,23.9,14.3Zm-8.318-.983a.191.191,0,0,1,.188-.2h6a.191.191,0,0,1,.188.188V14.3H15.584Zm-3.628,3.8a1.688,1.688,0,0,1,1.688-1.688H23.9a1.688,1.688,0,0,1,1.688,1.688v.51a2.442,2.442,0,0,1-2.439,2.439h-2.5V19.41A1.313,1.313,0,0,0,19.336,18.1H18.21A1.313,1.313,0,0,0,16.9,19.41v.672h-2.5a2.442,2.442,0,0,1-2.439-2.439Zm7.568,4.544a.191.191,0,0,1-.188.188H18.21a.191.191,0,0,1-.188-.188V19.41a.191.191,0,0,1,.188-.188h1.126a.191.191,0,0,1,.188.188ZM23.9,25.882H13.644a1.688,1.688,0,0,1-1.688-1.688V20.254a3.549,3.549,0,0,0,2.439.972h2.5v.454a1.313,1.313,0,0,0,1.313,1.313h1.126a1.313,1.313,0,0,0,1.313-1.313v-.469h2.5a3.549,3.549,0,0,0,2.439-.957v3.932a1.688,1.688,0,0,1-1.688,1.7Z" transform="translate(19.17 762)" fill="#7e829e" stroke="#7e829e" stroke-width="0.25"/>
  </g>
</svg>
