<svg xmlns="http://www.w3.org/2000/svg" width="18" height="18" viewBox="0 0 18 18">
  <g id="Group_18710" data-name="Group 18710" transform="translate(0 1)">
    <g id="Path_11201" data-name="Path 11201" transform="translate(0 -1)" fill="#fff">
      <path d="M 14.39999961853027 17 L 3.599999904632568 17 C 2.166359901428223 17 1 15.83364009857178 1 14.39999961853027 L 1 3.599999904632568 C 1 2.166359901428223 2.166359901428223 1 3.599999904632568 1 L 14.39999961853027 1 C 15.83364009857178 1 17 2.166359901428223 17 3.599999904632568 L 17 14.39999961853027 C 17 15.83364009857178 15.83364009857178 17 14.39999961853027 17 Z" stroke="none"/>
      <path d="M 3.600000381469727 2 C 2.71776008605957 2 2 2.71776008605957 2 3.600000381469727 L 2 14.39999961853027 C 2 15.28223991394043 2.71776008605957 16 3.600000381469727 16 L 14.39999961853027 16 C 15.28223991394043 16 16 15.28223991394043 16 14.39999961853027 L 16 3.600000381469727 C 16 2.71776008605957 15.28223991394043 2 14.39999961853027 2 L 3.600000381469727 2 M 3.600000381469727 0 L 14.39999961853027 0 C 16.38822937011719 0 18 1.611770629882812 18 3.600000381469727 L 18 14.39999961853027 C 18 16.38822937011719 16.38822937011719 18 14.39999961853027 18 L 3.600000381469727 18 C 1.611770629882812 18 0 16.38822937011719 0 14.39999961853027 L 0 3.600000381469727 C 0 1.611770629882812 1.611770629882812 0 3.600000381469727 0 Z" stroke="none" fill="#4484f4"/>
    </g>
    <path id="check" d="M3.945,8.252a.526.526,0,0,1-.744,0L.231,5.281a.789.789,0,0,1,0-1.116L.6,3.794a.789.789,0,0,1,1.116,0L3.573,5.648,8.584.637A.789.789,0,0,1,9.7.637l.372.372a.789.789,0,0,1,0,1.116Zm0,0" transform="translate(4 3.594)" fill="#4484f4"/>
  </g>
</svg>
