<svg id="Layer_1" data-name="Layer 1" xmlns="http://www.w3.org/2000/svg" viewBox="0 0 179.57 44.26"><defs><style>.cls-1{fill: #041f2d;}</style></defs><path class="cls-1" d="M146.52,203.8h-4.3V187.08h-5.51V183.5H152v3.58h-5.52Z" transform="translate(-101.07 -173.89)"/><path class="cls-1" d="M222.62,203.8h-4.31V187.08H212.8V183.5h15.33v3.58h-5.51Z" transform="translate(-101.07 -173.89)"/><path class="cls-1" d="M158.09,204.08a8,8,0,0,1-5.86-2.07,7.82,7.82,0,0,1-2.11-5.86,8.61,8.61,0,0,1,1.95-6,7,7,0,0,1,5.4-2.14,6.83,6.83,0,0,1,5.12,1.88,7.11,7.11,0,0,1,1.83,5.18v2.05h-10a4.06,4.06,0,0,0,1.07,2.82,3.76,3.76,0,0,0,2.81,1,12,12,0,0,0,2.65-.29,14.2,14.2,0,0,0,2.61-.93V203a9.86,9.86,0,0,1-2.38.83A15,15,0,0,1,158.09,204.08Zm-.6-13.08a2.69,2.69,0,0,0-2.11.85,3.93,3.93,0,0,0-.87,2.43h5.94a3.54,3.54,0,0,0-.82-2.43A2.77,2.77,0,0,0,157.49,191Z" transform="translate(-101.07 -173.89)"/><path class="cls-1" d="M235.65,188a6.28,6.28,0,0,1,1.43.13l-.31,4a5,5,0,0,0-1.25-.14,4.49,4.49,0,0,0-3.16,1,3.77,3.77,0,0,0-1.14,2.92v7.9H227V188.27h3.21l.62,2.62H231a5.82,5.82,0,0,1,1.95-2.11A4.83,4.83,0,0,1,235.65,188Z" transform="translate(-101.07 -173.89)"/><path class="cls-1" d="M250.41,203.8l-.57-2h-.22a4.47,4.47,0,0,1-1.93,1.68,6.63,6.63,0,0,1-2.85.59,5.4,5.4,0,0,1-4.12-1.47,5.86,5.86,0,0,1-1.39-4.21V188.27h4.23v9.07a4.34,4.34,0,0,0,.6,2.52,2.17,2.17,0,0,0,1.9.84,2.85,2.85,0,0,0,2.57-1.18,7.37,7.37,0,0,0,.8-3.94v-7.31h4.23V203.8Z" transform="translate(-101.07 -173.89)"/><path class="cls-1" d="M170,195.87l-5-7.6h4.8l3,4.95,3-4.95h4.8l-5.05,7.6,5.29,7.93h-4.82l-3.26-5.32-3.28,5.32h-4.81Z" transform="translate(-101.07 -173.89)"/><path class="cls-1" d="M190.65,188.78a5.19,5.19,0,0,1,2,2.53V188h4V203.8h-4v-3.3a5.29,5.29,0,0,1-2,2.55,6,6,0,0,1-3.42.95,6.72,6.72,0,0,1-3.58-1,6.55,6.55,0,0,1-2.49-2.8,10.77,10.77,0,0,1,0-8.62,6.61,6.61,0,0,1,2.49-2.8,6.81,6.81,0,0,1,3.58-1A6.12,6.12,0,0,1,190.65,188.78Zm-5.18,3.79a5.48,5.48,0,0,0,0,6.69,4.31,4.31,0,0,0,6,0,5.25,5.25,0,0,0,0-6.66,4,4,0,0,0-3-1.24A3.91,3.91,0,0,0,185.47,192.57Z" transform="translate(-101.07 -173.89)"/><path class="cls-1" d="M208.15,208.87v9.19H207v-4.25h-4.66v4.25H201.1v-9.19h1.19v4H207v-4Z" transform="translate(-101.07 -173.89)"/><path class="cls-1" d="M215.15,211.25a3.28,3.28,0,0,1,1.28,1.28,4,4,0,0,1,.46,2,3.91,3.91,0,0,1-.46,1.95,3.19,3.19,0,0,1-1.28,1.27,4.09,4.09,0,0,1-3.69,0,3.19,3.19,0,0,1-1.28-1.27,3.81,3.81,0,0,1-.47-1.95,3.87,3.87,0,0,1,.47-2,3.28,3.28,0,0,1,1.28-1.28,4.09,4.09,0,0,1,3.69,0Zm-3,.89a2.13,2.13,0,0,0-.88.88,3,3,0,0,0-.33,1.47,2.93,2.93,0,0,0,.33,1.45,2.07,2.07,0,0,0,.88.88,2.48,2.48,0,0,0,1.18.29,2.51,2.51,0,0,0,1.18-.29,2.11,2.11,0,0,0,.87-.88,2.93,2.93,0,0,0,.33-1.45,3,3,0,0,0-.33-1.47,2.17,2.17,0,0,0-.87-.88,2.51,2.51,0,0,0-1.18-.29A2.48,2.48,0,0,0,212.13,212.14Z" transform="translate(-101.07 -173.89)"/><path class="cls-1" d="M229.26,211.59a3.2,3.2,0,0,1,.77,2.31v4.16h-1.19V214a2.27,2.27,0,0,0-.52-1.62,1.82,1.82,0,0,0-1.41-.56,2,2,0,0,0-1.51.62,2.6,2.6,0,0,0-.57,1.82v3.79h-1.18V214a2.32,2.32,0,0,0-.52-1.62,1.85,1.85,0,0,0-1.41-.56,2,2,0,0,0-1.52.62,2.6,2.6,0,0,0-.57,1.82v3.79h-1.19V210.9h1.19v1.63a2.34,2.34,0,0,1,.93-1.29,2.74,2.74,0,0,1,1.55-.45,2.68,2.68,0,0,1,1.58.46,2.5,2.5,0,0,1,1,1.36,2.62,2.62,0,0,1,1-1.35,2.75,2.75,0,0,1,1.59-.47A2.63,2.63,0,0,1,229.26,211.59Z" transform="translate(-101.07 -173.89)"/><path class="cls-1" d="M238.4,214.74h-5.73a2.54,2.54,0,0,0,.7,1.84,2.5,2.5,0,0,0,3,.17,1.76,1.76,0,0,0,.71-1.17h1.27a3.1,3.1,0,0,1-.58,1.34,3,3,0,0,1-1.17.91,4,4,0,0,1-1.62.32,3.63,3.63,0,0,1-1.82-.44,3.12,3.12,0,0,1-1.25-1.27,4,4,0,0,1-.45-1.95,4.08,4.08,0,0,1,.45-2,3.21,3.21,0,0,1,1.25-1.28,3.74,3.74,0,0,1,1.82-.44,3.66,3.66,0,0,1,1.82.44,3.09,3.09,0,0,1,1.19,1.19,3.41,3.41,0,0,1,.41,1.64A4.13,4.13,0,0,1,238.4,214.74ZM237,212.83a1.89,1.89,0,0,0-.82-.79,2.45,2.45,0,0,0-1.14-.26,2.35,2.35,0,0,0-1.64.6,2.49,2.49,0,0,0-.72,1.78h4.58A2.41,2.41,0,0,0,237,212.83Z" transform="translate(-101.07 -173.89)"/><path class="cls-1" d="M244.41,217.14h3.26v.92h-4.45v-9.19h1.19Z" transform="translate(-101.07 -173.89)"/><path class="cls-1" d="M254,211.25a3.26,3.26,0,0,1,1.27,1.28,4,4,0,0,1,.47,2,3.91,3.91,0,0,1-.47,1.95,3.17,3.17,0,0,1-1.27,1.27,4.11,4.11,0,0,1-3.7,0,3.19,3.19,0,0,1-1.28-1.27,3.91,3.91,0,0,1-.47-1.95,4,4,0,0,1,.47-2,3.28,3.28,0,0,1,1.28-1.28,4.11,4.11,0,0,1,3.7,0Zm-3,.89a2.17,2.17,0,0,0-.87.88,2.91,2.91,0,0,0-.34,1.47,2.83,2.83,0,0,0,.34,1.45,2.11,2.11,0,0,0,.87.88,2.55,2.55,0,0,0,2.36,0,2.11,2.11,0,0,0,.87-.88,2.83,2.83,0,0,0,.34-1.45,2.91,2.91,0,0,0-.34-1.47,2.17,2.17,0,0,0-.87-.88,2.55,2.55,0,0,0-2.36,0Z" transform="translate(-101.07 -173.89)"/><path class="cls-1" d="M262,211.33a2.76,2.76,0,0,1,1,1.4V210.9h1.19v7.16H263v-1.82a2.73,2.73,0,0,1-1,1.39,2.92,2.92,0,0,1-1.77.52,3.18,3.18,0,0,1-1.69-.44,3,3,0,0,1-1.17-1.27,4.25,4.25,0,0,1-.42-1.95,4.32,4.32,0,0,1,.42-2,3.09,3.09,0,0,1,1.17-1.28,3.27,3.27,0,0,1,1.69-.44A3,3,0,0,1,262,211.33Zm-3.18,1.24a3.12,3.12,0,0,0,0,3.84,2.28,2.28,0,0,0,1.75.7,2.42,2.42,0,0,0,1.26-.33,2.25,2.25,0,0,0,.87-.91,3.23,3.23,0,0,0,0-2.76,2.21,2.21,0,0,0-.87-.92,2.41,2.41,0,0,0-1.26-.32A2.28,2.28,0,0,0,258.79,212.57Z" transform="translate(-101.07 -173.89)"/><path class="cls-1" d="M271.85,211.59a3.2,3.2,0,0,1,.77,2.31v4.16h-1.19V214a2.29,2.29,0,0,0-.55-1.65,2,2,0,0,0-1.48-.57,2,2,0,0,0-1.57.63,2.63,2.63,0,0,0-.58,1.85v3.79h-1.19V210.9h1.19v1.7a2.45,2.45,0,0,1,1-1.35,2.82,2.82,0,0,1,1.61-.46A2.65,2.65,0,0,1,271.85,211.59Z" transform="translate(-101.07 -173.89)"/><path class="cls-1" d="M278.64,211.44a2.67,2.67,0,0,1,.89,1.71H278.4a1.66,1.66,0,0,0-.53-1.05,1.69,1.69,0,0,0-1.21-.41,1.53,1.53,0,0,0-1,.3,1,1,0,0,0-.36.83.82.82,0,0,0,.25.63,1.52,1.52,0,0,0,.6.37,8.61,8.61,0,0,0,1,.26,10.56,10.56,0,0,1,1.29.38,2,2,0,0,1,.83.6,1.71,1.71,0,0,1,.35,1.12,1.77,1.77,0,0,1-.66,1.43,2.7,2.7,0,0,1-1.76.54,3.34,3.34,0,0,1-2.08-.61,2.47,2.47,0,0,1-1-1.71h1.15a1.47,1.47,0,0,0,.57,1.06,2,2,0,0,0,1.32.4,1.37,1.37,0,0,0,1-.31,1.06,1.06,0,0,0,.35-.82.94.94,0,0,0-.25-.67,1.64,1.64,0,0,0-.61-.37,9.38,9.38,0,0,0-1-.28,10,10,0,0,1-1.27-.36,2,2,0,0,1-.81-.58,1.66,1.66,0,0,1-.33-1.08,1.78,1.78,0,0,1,.67-1.45,2.72,2.72,0,0,1,1.81-.56A2.89,2.89,0,0,1,278.64,211.44Z" transform="translate(-101.07 -173.89)"/><polygon class="cls-1" points="0 3.39 24.51 0 24.51 6.17 24.51 40.07 17.27 44.17 17.27 6.17 0 6.17 0 3.39 0 3.39"/><polygon class="cls-1" points="50.34 3.39 25.83 0 25.83 6.17 25.83 40.07 33.07 44.17 33.07 6.17 50.34 6.17 50.34 3.39 50.34 3.39"/><path class="cls-1" d="M210.66,199.19a4.27,4.27,0,0,1-1.66,3.64,8.2,8.2,0,0,1-5,1.25,15.87,15.87,0,0,1-2.89-.23,10.93,10.93,0,0,1-2.23-.67v-3.5a14.66,14.66,0,0,0,2.65.93,10.81,10.81,0,0,0,2.61.37c1.53,0,2.3-.44,2.3-1.33a1.09,1.09,0,0,0-.3-.81,4.44,4.44,0,0,0-1.06-.71c-.5-.27-1.16-.57-2-.93a13,13,0,0,1-2.63-1.38,3.91,3.91,0,0,1-1.22-1.47,4.75,4.75,0,0,1-.38-2,3.7,3.7,0,0,1,1.6-3.21A7.86,7.86,0,0,1,205,188a13,13,0,0,1,5.46,1.22l-1.28,3.06c-.78-.33-1.51-.61-2.18-.82a7,7,0,0,0-2.07-.32c-1.25,0-1.88.34-1.88,1a1.21,1.21,0,0,0,.61,1,16.24,16.24,0,0,0,2.64,1.24,12.31,12.31,0,0,1,2.67,1.37,4.1,4.1,0,0,1,1.25,1.47A4.53,4.53,0,0,1,210.66,199.19Z" transform="translate(-101.07 -173.89)"/><path class="cls-1" d="M268,199.19a4.29,4.29,0,0,1-1.66,3.64,8.23,8.23,0,0,1-5,1.25,15.87,15.87,0,0,1-2.89-.23,11.12,11.12,0,0,1-2.23-.67v-3.5a14.51,14.51,0,0,0,2.66.93,10.67,10.67,0,0,0,2.6.37c1.54,0,2.31-.44,2.31-1.33a1.1,1.1,0,0,0-.31-.81,4.14,4.14,0,0,0-1.05-.71c-.5-.27-1.17-.57-2-.93a12.85,12.85,0,0,1-2.64-1.38,4,4,0,0,1-1.22-1.47,4.9,4.9,0,0,1-.38-2,3.7,3.7,0,0,1,1.6-3.21,7.86,7.86,0,0,1,4.55-1.13,13,13,0,0,1,5.46,1.22l-1.28,3.06c-.78-.33-1.5-.61-2.18-.82a6.89,6.89,0,0,0-2.07-.32c-1.25,0-1.87.34-1.87,1a1.2,1.2,0,0,0,.6,1,16.5,16.5,0,0,0,2.65,1.24,12.43,12.43,0,0,1,2.66,1.37,4.1,4.1,0,0,1,1.25,1.47A4.53,4.53,0,0,1,268,199.19Z" transform="translate(-101.07 -173.89)"/><path class="cls-1" d="M278,200.7a9.33,9.33,0,0,0,2.67-.48v3.15a9.55,9.55,0,0,1-3.89.71,4.73,4.73,0,0,1-3.7-1.29,5.54,5.54,0,0,1-1.16-3.85v-7.49h-2v-1.79l2.33-1.41,1.23-3.28h2.7v3.3h4.35v3.18h-4.35v7.49a1.63,1.63,0,0,0,.51,1.33A2,2,0,0,0,278,200.7Z" transform="translate(-101.07 -173.89)"/></svg>