<svg xmlns="http://www.w3.org/2000/svg" width="16" height="4" viewBox="0 0 16 4">
  <g id="Group_17831" data-name="Group 17831" transform="translate(16 4) rotate(180)">
    <g id="Group_654" data-name="Group 654" transform="translate(0 0)">
      <g id="Group_16948" data-name="Group 16948">
        <path id="Path_572" data-name="Path 572" d="M661.413,1173.413a2,2,0,1,0-2.828,0,2,2,0,0,0,2.828,0" transform="translate(-645.999 -1169.999)" fill="#a7a7a7"/>
        <path id="Path_573" data-name="Path 573" d="M517.413,1173.413a2,2,0,1,0-2.828,0,2,2,0,0,0,2.828,0" transform="translate(-507.999 -1169.999)" fill="#a7a7a7"/>
        <path id="Path_574" data-name="Path 574" d="M373.413,1173.413a2,2,0,1,0-2.828,0,2,2,0,0,0,2.828,0" transform="translate(-369.999 -1169.999)" fill="#a7a7a7"/>
      </g>
    </g>
  </g>
</svg>
