<svg xmlns="http://www.w3.org/2000/svg" width="12.74" height="14" viewBox="0 0 12.74 14">
  <path id="Path_11809" data-name="Path 11809" d="M14.445,13.794h2.29l-3.381,3.373V14.885A1.1,1.1,0,0,1,14.445,13.794Zm2.5-8.552v7.784h-2.5a1.861,1.861,0,0,0-1.859,1.859v2.5H6.062A1.853,1.853,0,0,1,4.21,15.538V5.242A1.853,1.853,0,0,1,6.062,3.39H15.1A1.853,1.853,0,0,1,16.95,5.242ZM8.8,9.706A1.069,1.069,0,0,0,7.722,8.63H6.692a.384.384,0,0,0-.384.384v2.751a.384.384,0,0,0,.384.384.39.39,0,0,0,.384-.384v-.991h.645A1.076,1.076,0,0,0,8.8,9.706ZM11.825,9.7A1.066,1.066,0,0,0,10.757,8.63H9.719a.384.384,0,0,0-.384.384v2.751a.384.384,0,0,0,.384.384h1.037a1.066,1.066,0,0,0,1.068-1.068Zm3.05-.684a.384.384,0,0,0-.384-.384H12.762a.384.384,0,0,0-.384.384v2.751a.384.384,0,0,0,.768,0v-.991h.891a.384.384,0,0,0,0-.768h-.891V9.4h1.345a.39.39,0,0,0,.384-.384ZM7.722,9.4H7.076v.607h.645a.307.307,0,0,0,.307-.3A.3.3,0,0,0,7.722,9.4Zm3.035,0H10.1v1.982h.653a.307.307,0,0,0,.3-.3V9.7a.307.307,0,0,0-.3-.3Z" transform="translate(-4.21 -3.39)" fill="#a7a7a7"/>
</svg>
