<svg xmlns="http://www.w3.org/2000/svg" width="5.572" height="22.288" viewBox="0 0 5.572 22.288">
  <g id="Group_17867" data-name="Group 17867" transform="translate(5.572) rotate(90)">
    <g id="Group_654" data-name="Group 654" transform="translate(0 0)">
      <g id="Group_16948" data-name="Group 16948">
        <path id="Path_572" data-name="Path 572" d="M662.755,1174.755a2.786,2.786,0,1,0-3.94,0,2.786,2.786,0,0,0,3.94,0" transform="translate(-641.283 -1169.999)" fill="#7e829e"/>
        <path id="Path_573" data-name="Path 573" d="M518.755,1174.755a2.786,2.786,0,1,0-3.94,0,2.786,2.786,0,0,0,3.94,0" transform="translate(-505.641 -1169.999)" fill="#7e829e"/>
        <path id="Path_574" data-name="Path 574" d="M374.755,1174.755a2.786,2.786,0,1,0-3.94,0,2.786,2.786,0,0,0,3.94,0" transform="translate(-369.999 -1169.999)" fill="#7e829e"/>
      </g>
    </g>
  </g>
</svg>
