<svg xmlns="http://www.w3.org/2000/svg" width="20" height="20" viewBox="0 0 20 20">
  <g id="monthly-income-icn-m" transform="translate(-5752 -3745)" opacity="0.5">
    <rect id="Rectangle_1212" data-name="Rectangle 1212" width="20" height="20" transform="translate(5752 3745)" fill="none"/>
    <path id="Path_11938" data-name="Path 11938" d="M1.646,28.381H5.288a.645.645,0,0,0,.646-.646V25.106a.643.643,0,0,0-.817-.621l-3.642.988A.644.644,0,0,0,1,26.094v1.64A.641.641,0,0,0,1.646,28.381Z" transform="translate(5752 3736.176)" fill="#4484f4"/>
    <path id="Path_11939" data-name="Path 11939" d="M14.6,26.111a.645.645,0,0,0,.646-.646V19.727a.643.643,0,0,0-.418-.6l-2.1-.811a.636.636,0,0,0-.69.152L10.5,20.05a.627.627,0,0,0-.184.45v4.965a.645.645,0,0,0,.646.646H14.6Z" transform="translate(5748.583 3738.446)" fill="#4484f4"/>
    <path id="Path_11940" data-name="Path 11940" d="M23.911,25.072a.645.645,0,0,0,.646-.646V16.078a.647.647,0,0,0-.975-.551L19.94,17.7a.662.662,0,0,0-.31.557v6.169a.645.645,0,0,0,.646.646h3.635Z" transform="translate(5745.169 3739.485)" fill="#4484f4"/>
    <path id="Path_11941" data-name="Path 11941" d="M9.312,12.24a.646.646,0,0,0-.7.152L4.947,16.186l-3.473.945a.644.644,0,0,0,.338,1.242l3.643-.991a.642.642,0,0,0,.294-.174l3.494-3.613,2.641,1.023a.644.644,0,0,0,.562-.048l6.1-3.655L18.356,12.4a.643.643,0,1,0,1.276.166L20,9.764c-.006-.051.008-.1,0-.155a.675.675,0,0,0-.436-.541l-2.639-.882a.644.644,0,0,0-.409,1.221l1.311.438L12.056,13.3Z" transform="translate(5752 3742.156)" fill="#4484f4"/>
    <path id="Path_11942" data-name="Path 11942" d="M16.817,1.35a.643.643,0,0,0-.644.644v.29a1.946,1.946,0,0,0-1.758,1.931,1.964,1.964,0,0,0,1.951,1.951h.9a.655.655,0,0,1,.471.2.644.644,0,0,1,.191.46.663.663,0,0,1-.663.663H15.059a.644.644,0,0,0,0,1.287h1.114v.27a.644.644,0,1,0,1.287,0v-.29a1.946,1.946,0,0,0-.193-3.881h-.9a.653.653,0,0,1-.472-.2.641.641,0,0,1-.191-.458.664.664,0,0,1,.663-.663h2.208a.644.644,0,0,0,0-1.287H17.461v-.27A.643.643,0,0,0,16.817,1.35Z" transform="translate(5747.081 3744.65)" fill="#4484f4"/>
  </g>
</svg>
