<svg xmlns="http://www.w3.org/2000/svg" width="21.723" height="24" viewBox="0 0 21.723 24">
  <g id="Group_16872" data-name="Group 16872" transform="translate(-9092 -901.096)">
    <path id="Path_11308" data-name="Path 11308" d="M9099.934,906.232c3.79-2.476,5.144-1.714,9.371,3.543l.5,7.733s4.753,1.867,1.9,4.038c-.115-.114-16.343,0-16.343,0s-4.457-1.143,0-3.314c.114-.343,1.485.229,1.257-2.514C9096.391,915.6,9096.143,908.708,9099.934,906.232Z" transform="translate(-0.277 -0.756)" fill="#7e829e" opacity="0.3"/>
    <g id="Group_16871" data-name="Group 16871" transform="translate(9092 901.096)">
      <path id="Path_11307" data-name="Path 11307" d="M142.235,245.589a.623.623,0,0,1-.622-.622v-4.4a7.765,7.765,0,0,0-5.443-7.4,2.451,2.451,0,1,0-4.616,0,7.765,7.765,0,0,0-5.442,7.4v4.4a.623.623,0,0,1-.622.622,2.488,2.488,0,1,0,0,4.977h5.805a2.653,2.653,0,1,0,5.136,0h5.805a2.488,2.488,0,1,0,0-4.977Zm-9.412-13.247a1.039,1.039,0,1,1,1.932.53,7.748,7.748,0,0,0-1.786,0,1.029,1.029,0,0,1-.146-.53Zm2.278,18.895a1.24,1.24,0,1,1-2.283-.671H134.9a1.233,1.233,0,0,1,.2.671Zm7.133-2.084H125.489a1.075,1.075,0,1,1,0-2.15,2.038,2.038,0,0,0,2.036-2.036v-4.4a6.337,6.337,0,1,1,12.675,0v4.4A2.038,2.038,0,0,0,142.235,247a1.075,1.075,0,0,1,0,2.15Zm0,0" transform="translate(-123 -229.89)" fill="#7e829e"/>
    </g>
  </g>
</svg>
