<svg xmlns="http://www.w3.org/2000/svg" width="176.608" height="176.608" viewBox="0 0 176.608 176.608">
  <g id="faceid-icon-ios" transform="translate(1406.909 -1182.091)">
    <path id="Path_11830" data-name="Path 11830" d="M33.015,34.772a2.333,2.333,0,0,0-2.333,2.333v6.788a2.333,2.333,0,0,0,4.667,0V37.105A2.334,2.334,0,0,0,33.015,34.772Z" transform="translate(-1367.712 1221.015)" fill="#7e829e"/>
    <path id="Path_11831" data-name="Path 11831" d="M66.651,46.227a2.333,2.333,0,0,0,2.333-2.333V37.105a2.333,2.333,0,1,0-4.667,0v6.788A2.334,2.334,0,0,0,66.651,46.227Z" transform="translate(-1369.954 1221.015)" fill="#7e829e"/>
    <path id="Path_11832" data-name="Path 11832" d="M64.484,65.456a2.332,2.332,0,0,0-3.3,0,17.467,17.467,0,0,1-24.7,0,2.333,2.333,0,1,0-3.3,3.3,22.134,22.134,0,0,0,31.3,0A2.335,2.335,0,0,0,64.484,65.456Z" transform="translate(-1367.833 1219.015)" fill="#7e829e"/>
    <path id="Path_11833" data-name="Path 11833" d="M47.03,58.458a6.693,6.693,0,0,0,7.07-7.07V37.105a2.333,2.333,0,1,0-4.667,0V51.388c0,2.13-1.284,2.4-2.4,2.4a2.333,2.333,0,0,0,0,4.667Z" transform="translate(-1368.646 1221.015)" fill="#7e829e"/>
    <path id="Path_11834" data-name="Path 11834" d="M7.333,37.454a2.333,2.333,0,0,0,2.333-2.333V23.2A13.548,13.548,0,0,1,23.2,9.667h7.679a2.333,2.333,0,1,0,0-4.667H23.2A18.221,18.221,0,0,0,5,23.2V35.121A2.333,2.333,0,0,0,7.333,37.454Z" transform="translate(-1366 1223)" fill="#7e829e"/>
    <path id="Path_11835" data-name="Path 11835" d="M30.879,88.014H23.2A13.548,13.548,0,0,1,9.667,74.482V62.561a2.333,2.333,0,1,0-4.667,0v11.92a18.22,18.22,0,0,0,18.2,18.2h7.679a2.333,2.333,0,1,0,0-4.667Z" transform="translate(-1366 1219.318)" fill="#7e829e"/>
    <path id="Path_11836" data-name="Path 11836" d="M74.785,5h-7.68a2.333,2.333,0,0,0,0,4.667h7.68A13.548,13.548,0,0,1,88.318,23.2V35.121a2.333,2.333,0,1,0,4.667,0V23.2A18.221,18.221,0,0,0,74.785,5Z" transform="translate(-1369.985 1223)" fill="#7e829e"/>
    <path id="Path_11837" data-name="Path 11837" d="M90.651,60.228a2.333,2.333,0,0,0-2.333,2.333v11.92A13.548,13.548,0,0,1,74.785,88.014h-7.68a2.333,2.333,0,0,0,0,4.667h7.68a18.22,18.22,0,0,0,18.2-18.2V62.561A2.333,2.333,0,0,0,90.651,60.228Z" transform="translate(-1369.985 1219.318)" fill="#7e829e"/>
    <g id="Ellipse_86" data-name="Ellipse 86" transform="translate(-1400.909 1188.091)" fill="none" stroke="#7e829e" stroke-linejoin="round" stroke-width="6" stroke-dasharray="1.5 4">
      <circle cx="82.304" cy="82.304" r="82.304" stroke="none"/>
      <circle cx="82.304" cy="82.304" r="85.304" fill="none"/>
    </g>
  </g>
</svg>
