<svg xmlns="http://www.w3.org/2000/svg" width="161.402" height="159.822" viewBox="0 0 161.402 159.822">
  <g id="Group_16743" data-name="Group 16743" transform="translate(161.402 14.85) rotate(96)">
    <g id="Group_16736" data-name="Group 16736" transform="translate(0 0)">
      <g id="Group_16723" data-name="Group 16723" transform="translate(1.432 4.85)">
        <g id="Group_16713" data-name="Group 16713" transform="translate(0 0)">
          <g id="Group_16712" data-name="Group 16712" opacity="0.3">
            <path id="Path_11239" data-name="Path 11239" d="M131.267,73.975a42.73,42.73,0,1,0-66.3-10.139l-8.695,8.111,2.078,14.432L44.857,82.6,33.978,92.744l2.078,14.431-13.492-3.78-9.351,8.723,1.265,8.8-8.222-2.305L.815,123.686,0,137.051l19.934,5.015L84.616,81.723A42.742,42.742,0,0,0,131.267,73.975Zm-6.318-52.545a12.258,12.258,0,1,1-17.324-.6A12.257,12.257,0,0,1,124.949,21.429Z" transform="translate(0 0)" fill="#4484f4"/>
          </g>
        </g>
        <g id="Group_16722" data-name="Group 16722" transform="translate(0 0)">
          <g id="Group_16715" data-name="Group 16715">
            <g id="Group_16714" data-name="Group 16714">
              <path id="Path_11240" data-name="Path 11240" d="M131.267,73.975a42.73,42.73,0,1,0-66.3-10.139l-8.695,8.111,2.078,14.432L44.857,82.6,33.978,92.744l2.078,14.431-13.492-3.78-9.351,8.723,1.265,8.8-8.222-2.305L.815,123.686,0,137.051l19.934,5.015L84.616,81.723A42.742,42.742,0,0,0,131.267,73.975Zm-6.318-52.545a12.258,12.258,0,1,1-17.324-.6A12.257,12.257,0,0,1,124.949,21.429Z" transform="translate(0 0)" fill="none"/>
            </g>
          </g>
        </g>
      </g>
      <g id="Group_16735" data-name="Group 16735" transform="translate(0 0)">
        <g id="Group_16725" data-name="Group 16725">
          <g id="Group_16724" data-name="Group 16724">
            <path id="Path_11243" data-name="Path 11243" d="M131.267,73.974a42.73,42.73,0,1,0-66.3-10.139l-.011.012-8.682,8.1,2.076,14.432L44.857,82.6,33.98,92.744l2.076,14.432-13.492-3.782-9.351,8.723,1.267,8.8-8.222-2.305L.815,123.685,0,137.051l19.934,5.017L84.615,81.722A42.742,42.742,0,0,0,131.267,73.974ZM124.95,21.428a12.258,12.258,0,1,1-17.325-.6A12.259,12.259,0,0,1,124.95,21.428Z" transform="translate(0 0)" fill="#dbdbdb"/>
          </g>
        </g>
        <g id="Group_16734" data-name="Group 16734">
          <g id="Group_16727" data-name="Group 16727">
            <g id="Group_16726" data-name="Group 16726">
              <path id="Path_11244" data-name="Path 11244" d="M131.267,73.974a42.73,42.73,0,1,0-66.3-10.139l-.011.012-8.682,8.1,2.076,14.432L44.857,82.6,33.98,92.744l2.076,14.432-13.492-3.782-9.351,8.723,1.267,8.8-8.222-2.305L.815,123.685,0,137.051l19.934,5.017L84.615,81.722A42.742,42.742,0,0,0,131.267,73.974ZM124.95,21.428a12.258,12.258,0,1,1-17.325-.6A12.259,12.259,0,0,1,124.95,21.428Z" transform="translate(0 0)" fill="none"/>
            </g>
          </g>
        </g>
      </g>
    </g>
  </g>
</svg>
