<svg xmlns="http://www.w3.org/2000/svg" width="19.552" height="22.724" viewBox="0 0 19.552 22.724">
  <g id="Group_18598" data-name="Group 18598" transform="matrix(0.966, 0.259, -0.259, 0.966, -5521.675, -6100.913)" opacity="0.5">
    <path id="Path_11855" data-name="Path 11855" d="M18.832,10.369l-.339.125A14.5,14.5,0,0,0,9.038,23.845l0,.36H23.694Zm-1.04,6.419a1.9,1.9,0,0,0-1-.278c-.686,0-.721.46-.721.552,0,.309.217.49.97.81a1.968,1.968,0,0,1,1.5,1.807,1.7,1.7,0,0,1-1.163,1.612l-.234.085v.944h-.99v-.882l-.291-.053a2.444,2.444,0,0,1-.964-.38l-.133-.1.361-1.005.23.151A2.17,2.17,0,0,0,16.5,20.4c.577,0,.836-.326.836-.65,0-.355-.25-.6-.868-.853-1.1-.431-1.591-.967-1.591-1.737a1.6,1.6,0,0,1,1.094-1.53l.232-.086v-.908h.991v.856l.286.058a2.506,2.506,0,0,1,.755.281l.161.091-.377.995Z" transform="translate(6906.987 4452.619)" fill="#4484f4"/>
    <path id="Path_11856" data-name="Path 11856" d="M20.193,14.859a3.971,3.971,0,0,0-1.274.21L20.264,18.9H16.207a3.987,3.987,0,1,0,3.986-4.038Z" transform="translate(6911.155 4458.504)" fill="#4484f4"/>
  </g>
</svg>
