<svg xmlns="http://www.w3.org/2000/svg" width="13.711" height="18" viewBox="0 0 13.711 18">
  <g id="Group_18597" data-name="Group 18597" transform="translate(-10059.041 -950.258)" opacity="0.5">
    <path id="Union_24" data-name="Union 24" d="M0,13.254A8.641,8.641,0,0,1,1.972,7.919,7.47,7.47,0,0,1,4.1,6.092a1.612,1.612,0,0,1-.3-.53,1.586,1.586,0,0,1,1.078-2.02L3.538,1.2A.528.528,0,0,1,3.849.427a10.81,10.81,0,0,1,6.014,0,.528.528,0,0,1,.311.769L8.827,3.542a1.584,1.584,0,0,1,.782,2.55,7.463,7.463,0,0,1,2.13,1.827,8.649,8.649,0,0,1,1.972,5.335c0,3.834-3.058,4.746-6.856,4.746S0,17.089,0,13.254Zm6.739,3.7a.751.751,0,0,0,.62-.738v-.877l.02-.007a2.246,2.246,0,0,0-.768-4.357.749.749,0,0,1-.292-1.439.721.721,0,0,1,.288-.058,1.207,1.207,0,0,1,.813.39A.748.748,0,1,0,8.461,8.789a2.881,2.881,0,0,0-1.1-.689V7.226a.749.749,0,0,0-1.5,0V8.1c-.039.014-.079.028-.127.048a2.248,2.248,0,0,0,.876,4.317.749.749,0,0,1,.257,1.453.762.762,0,0,1-.257.045,1.355,1.355,0,0,1-.972-.566.749.749,0,0,0-1.32.416.74.74,0,0,0,.173.547,3.133,3.133,0,0,0,1.37.978v.871a.751.751,0,0,0,.6.735ZM8.46,5.591a.527.527,0,0,0,.106-1.025,5.437,5.437,0,0,0-.64-.168h0a5.457,5.457,0,0,0-2.78.17.527.527,0,0,0,.111,1.025,5.33,5.33,0,0,1,3.206,0Z" transform="translate(10059.041 950.258)" fill="#4484f4"/>
  </g>
</svg>
