<svg xmlns="http://www.w3.org/2000/svg" width="24" height="24" viewBox="0 0 24 24">
  <g id="Group_17560" data-name="Group 17560" transform="translate(-10656 -915)">
    <rect id="Rectangle_787" data-name="Rectangle 787" width="22" height="15" transform="translate(10657 923)" fill="#7e829e" opacity="0.3"/>
    <g id="Group_17559" data-name="Group 17559" transform="translate(10656 915)">
      <path id="Path_11473" data-name="Path 11473" d="M21.187,1.875H20.063V0H18.187V1.875H5.813V0H3.937V1.875H2.813A2.816,2.816,0,0,0,0,4.688v16.5A2.816,2.816,0,0,0,2.813,24H21.187A2.816,2.816,0,0,0,24,21.187V4.688A2.816,2.816,0,0,0,21.187,1.875ZM2.813,3.75H3.937V5.625H5.813V3.75H18.187V5.625h1.875V3.75h1.125a.938.938,0,0,1,.937.938v2.25H1.875V4.688A.938.938,0,0,1,2.813,3.75ZM21.187,22.125H2.813a.938.938,0,0,1-.937-.937V8.813h20.25V21.187A.938.938,0,0,1,21.187,22.125Z" fill="#7e829e"/>
      <rect id="Rectangle_773" data-name="Rectangle 773" width="1.875" height="1.875" transform="translate(3.563 10.781)" fill="#7e829e"/>
      <rect id="Rectangle_774" data-name="Rectangle 774" width="1.875" height="1.875" transform="translate(7.313 10.781)" fill="#7e829e"/>
      <rect id="Rectangle_775" data-name="Rectangle 775" width="1.875" height="1.875" transform="translate(11.063 10.781)" fill="#7e829e"/>
      <rect id="Rectangle_776" data-name="Rectangle 776" width="1.875" height="1.875" transform="translate(14.813 10.781)" fill="#7e829e"/>
      <rect id="Rectangle_777" data-name="Rectangle 777" width="1.875" height="1.875" transform="translate(18.563 10.781)" fill="#7e829e"/>
      <rect id="Rectangle_778" data-name="Rectangle 778" width="1.875" height="1.875" transform="translate(3.563 14.531)" fill="#7e829e"/>
      <rect id="Rectangle_779" data-name="Rectangle 779" width="1.875" height="1.875" transform="translate(7.313 14.531)" fill="#7e829e"/>
      <rect id="Rectangle_780" data-name="Rectangle 780" width="1.875" height="1.875" transform="translate(11.063 14.531)" fill="#7e829e"/>
      <rect id="Rectangle_781" data-name="Rectangle 781" width="1.875" height="1.875" transform="translate(14.813 14.531)" fill="#7e829e"/>
      <rect id="Rectangle_782" data-name="Rectangle 782" width="1.875" height="1.875" transform="translate(3.563 18.281)" fill="#7e829e"/>
      <rect id="Rectangle_783" data-name="Rectangle 783" width="1.875" height="1.875" transform="translate(7.313 18.281)" fill="#7e829e"/>
      <rect id="Rectangle_784" data-name="Rectangle 784" width="1.875" height="1.875" transform="translate(11.063 18.281)" fill="#7e829e"/>
      <rect id="Rectangle_785" data-name="Rectangle 785" width="1.875" height="1.875" transform="translate(14.813 18.281)" fill="#7e829e"/>
      <rect id="Rectangle_786" data-name="Rectangle 786" width="1.875" height="1.875" transform="translate(18.563 14.531)" fill="#7e829e"/>
    </g>
  </g>
</svg>
