<svg id="Group_370" data-name="Group 370" xmlns="http://www.w3.org/2000/svg" width="412.099" height="307.103" viewBox="0 0 412.099 307.103">
  <g id="Background_Complete" data-name="Background Complete" transform="translate(0 0)">
    <g id="Group_303" data-name="Group 303">
      <g id="Group_301" data-name="Group 301">
        <rect id="Rectangle_132" data-name="Rectangle 132" width="412.099" height="0.206" transform="translate(0 269.88)" fill="#ebebeb"/>
        <path id="Path_240" data-name="Path 240" d="M202.064,288.075H42.912a4.71,4.71,0,0,1-4.7-4.7V59.657a4.71,4.71,0,0,1,4.7-4.7H202.064a4.709,4.709,0,0,1,4.7,4.7V283.371A4.71,4.71,0,0,1,202.064,288.075ZM42.912,55.159a4.5,4.5,0,0,0-4.5,4.5V283.371a4.5,4.5,0,0,0,4.5,4.5H202.064a4.5,4.5,0,0,0,4.5-4.5V59.657a4.5,4.5,0,0,0-4.5-4.5Z" transform="translate(-6.717 -54.953)" fill="#ebebeb"/>
        <path id="Path_241" data-name="Path 241" d="M418.36,288.075H259.209a4.71,4.71,0,0,1-4.7-4.7V59.657a4.709,4.709,0,0,1,4.7-4.7H418.36a4.71,4.71,0,0,1,4.705,4.7V283.371A4.71,4.71,0,0,1,418.36,288.075ZM259.209,55.159a4.5,4.5,0,0,0-4.5,4.5V283.371a4.5,4.5,0,0,0,4.5,4.5H418.36a4.5,4.5,0,0,0,4.5-4.5V59.657a4.5,4.5,0,0,0-4.5-4.5Z" transform="translate(-44.742 -54.953)" fill="#ebebeb"/>
      </g>
      <g id="Group_302" data-name="Group 302" transform="translate(43.237 275.493)">
        <rect id="Rectangle_133" data-name="Rectangle 133" width="21.427" height="0.206" transform="translate(100.535 2.237)" fill="#ebebeb"/>
        <rect id="Rectangle_134" data-name="Rectangle 134" width="44.59" height="0.206" fill="#ebebeb"/>
        <rect id="Rectangle_135" data-name="Rectangle 135" width="21.691" height="0.206" transform="translate(78.019 9.89)" fill="#ebebeb"/>
        <rect id="Rectangle_136" data-name="Rectangle 136" width="32.005" height="0.206" transform="translate(169.593 8.505)" fill="#ebebeb"/>
        <rect id="Rectangle_137" data-name="Rectangle 137" width="8.814" height="0.206" transform="translate(208.937 8.505)" fill="#ebebeb"/>
        <rect id="Rectangle_138" data-name="Rectangle 138" width="44.965" height="0.206" transform="translate(282.607 5.025)" fill="#ebebeb"/>
      </g>
    </g>
    <g id="Group_315" data-name="Group 315" transform="translate(54.269 23.567)">
      <g id="Group_307" data-name="Group 307">
        <g id="Group_304" data-name="Group 304" transform="translate(0 2.172)">
          <rect id="Rectangle_139" data-name="Rectangle 139" width="122.298" height="129.054" transform="translate(9.13 4.177)" fill="#e6e6e6"/>
          <path id="Path_242" data-name="Path 242" d="M210.379,86.183H67.059A1.214,1.214,0,0,0,65.845,87.4h0a1.214,1.214,0,0,0,1.214,1.214h143.32a1.214,1.214,0,0,0,1.214-1.214h0A1.214,1.214,0,0,0,210.379,86.183Z" transform="translate(-65.845 -86.183)" fill="#e6e6e6"/>
          <rect id="Rectangle_140" data-name="Rectangle 140" width="125.062" height="129.054" transform="translate(11.555 4.177)" fill="#f0f0f0"/>
          <rect id="Rectangle_141" data-name="Rectangle 141" width="122.298" height="4.822" transform="translate(9.13 133.231)" fill="#e6e6e6"/>
          <rect id="Rectangle_142" data-name="Rectangle 142" width="125.062" height="4.822" transform="translate(20.201 133.231)" fill="#f0f0f0"/>
          <rect id="Rectangle_143" data-name="Rectangle 143" width="114.524" height="110.532" transform="translate(129.353 11.442) rotate(90)" fill="#fafafa"/>
          <path id="Path_243" data-name="Path 243" d="M119.124,214.59l42.641-114.524h20.129L139.253,214.59Z" transform="translate(-75.211 -88.624)" fill="#fff"/>
          <path id="Path_244" data-name="Path 244" d="M148.792,214.59l42.641-114.524h7.847L156.64,214.59Z" transform="translate(-80.427 -88.624)" fill="#fff"/>
          <rect id="Rectangle_144" data-name="Rectangle 144" width="114.524" height="0.923" transform="translate(129.353 11.442) rotate(90)" fill="#e6e6e6"/>
        </g>
        <g id="Group_305" data-name="Group 305" transform="translate(0.464)" opacity="0.6">
          <path id="Path_245" data-name="Path 245" d="M81.764,200.116H66.407L74.684,83.547H90.041Z" transform="translate(-66.407 -83.547)" fill="#f0f0f0"/>
          <path id="Path_246" data-name="Path 246" d="M89.746,200.116H77.782L86.058,83.547H98.023Z" transform="translate(-68.407 -83.547)" fill="#e6e6e6"/>
          <path id="Path_247" data-name="Path 247" d="M100.4,200.116H85.04L93.316,83.547h15.357Z" transform="translate(-69.683 -83.547)" fill="#f0f0f0"/>
          <path id="Path_248" data-name="Path 248" d="M108.378,200.116H96.414l8.277-116.569h11.964Z" transform="translate(-71.683 -83.547)" fill="#e6e6e6"/>
          <path id="Path_249" data-name="Path 249" d="M119.029,200.116H103.672l8.277-116.569h15.357Z" transform="translate(-72.959 -83.547)" fill="#f0f0f0"/>
        </g>
        <g id="Group_306" data-name="Group 306" transform="translate(112.051 0)" opacity="0.6">
          <path id="Path_250" data-name="Path 250" d="M227.534,200.116h8.679L231.535,83.548h-8.679Z" transform="translate(-205.499 -83.548)" fill="#f0f0f0"/>
          <path id="Path_251" data-name="Path 251" d="M223.432,200.116h6.761L225.516,83.548h-6.761Z" transform="translate(-204.778 -83.548)" fill="#e6e6e6"/>
          <path id="Path_252" data-name="Path 252" d="M217,200.116h8.679L221.005,83.548h-8.679Z" transform="translate(-203.648 -83.548)" fill="#f0f0f0"/>
          <path id="Path_253" data-name="Path 253" d="M212.9,200.116h6.762L214.986,83.548h-6.761Z" transform="translate(-202.927 -83.548)" fill="#e6e6e6"/>
          <path id="Path_254" data-name="Path 254" d="M206.474,200.116h8.679L210.475,83.548H201.8Z" transform="translate(-201.797 -83.548)" fill="#f0f0f0"/>
        </g>
      </g>
      <g id="Group_309" data-name="Group 309" transform="translate(212.811)">
        <g id="Group_308" data-name="Group 308">
          <rect id="Rectangle_145" data-name="Rectangle 145" width="84.568" height="112.438" fill="#e6e6e6"/>
          <rect id="Rectangle_146" data-name="Rectangle 146" width="88.353" height="112.438" transform="translate(2.64)" fill="#f5f5f5"/>
          <rect id="Rectangle_147" data-name="Rectangle 147" width="97.635" height="73.551" transform="translate(6.225 101.916) rotate(-85.379)" fill="#fff"/>
          <rect id="Rectangle_148" data-name="Rectangle 148" width="97.634" height="1.811" transform="translate(77.731 107.697) rotate(-85.378)" fill="#e6e6e6"/>
        </g>
      </g>
      <g id="Group_313" data-name="Group 313" transform="translate(104.463 95.706)">
        <g id="Group_310" data-name="Group 310" transform="translate(0 58.732)">
          <rect id="Rectangle_149" data-name="Rectangle 149" width="47.233" height="91.875" transform="translate(156.767)" fill="#f5f5f5"/>
          <rect id="Rectangle_150" data-name="Rectangle 150" width="3.895" height="91.875" transform="translate(200.106)" fill="#f0f0f0"/>
          <rect id="Rectangle_151" data-name="Rectangle 151" width="108.759" height="38.875" transform="translate(160.407 41.497) rotate(180)" fill="#e6e6e6"/>
          <rect id="Rectangle_152" data-name="Rectangle 152" width="147.11" height="6.891" transform="translate(204.001 6.891) rotate(180)" fill="#f0f0f0"/>
          <rect id="Rectangle_153" data-name="Rectangle 153" width="47.233" height="91.875" transform="translate(9.657)" fill="#f5f5f5"/>
          <path id="Rectangle_154" data-name="Rectangle 154" d="M11.472,0h0A11.472,11.472,0,0,1,22.945,11.472V62.6a0,0,0,0,1,0,0H0a0,0,0,0,1,0,0V11.472A11.472,11.472,0,0,1,11.472,0Z" transform="translate(0 29.274)" fill="#e6e6e6"/>
          <rect id="Rectangle_155" data-name="Rectangle 155" width="3.895" height="91.875" transform="translate(52.996)" fill="#f0f0f0"/>
        </g>
        <g id="Group_311" data-name="Group 311" transform="translate(69.55)">
          <path id="Path_255" data-name="Path 255" d="M323.948,266.7H313.757l2.479-19.834h10.191Z" transform="translate(-283.441 -207.964)" fill="#f0f0f0"/>
          <path id="Path_256" data-name="Path 256" d="M326.681,266.7H316.491l2.479-19.834h10.191Z" transform="translate(-283.922 -207.964)" fill="#f5f5f5"/>
          <path id="Path_257" data-name="Path 257" d="M328.185,256.779H317.995l1.24-9.917h10.191Z" transform="translate(-284.186 -207.964)" fill="#f0f0f0"/>
          <path id="Path_258" data-name="Path 258" d="M283.529,246.107h72.084a1,1,0,0,0,.992-1.123l-5.556-44.442a1,1,0,0,0-.991-.875H277.974a1,1,0,0,0-.992,1.123l5.555,44.442A1,1,0,0,0,283.529,246.107Z" transform="translate(-276.975 -199.667)" fill="#f0f0f0"/>
          <path id="Path_259" data-name="Path 259" d="M284.829,246.107h72.084a1,1,0,0,0,.991-1.123l-5.555-44.442a1,1,0,0,0-.991-.875H279.274a1,1,0,0,0-.992,1.123l5.556,44.442A1,1,0,0,0,284.829,246.107Z" transform="translate(-277.203 -199.667)" fill="#f5f5f5"/>
          <path id="Path_260" data-name="Path 260" d="M356.077,244.108l-5.2-41.6a.28.28,0,0,0-.277-.246H281.381a.279.279,0,0,0-.277.315l5.2,41.6a.279.279,0,0,0,.277.245H355.8A.28.28,0,0,0,356.077,244.108Z" transform="translate(-277.7 -200.124)" fill="#e6e6e6"/>
          <path id="Path_261" data-name="Path 261" d="M355.783,244.424l-18.3-42.157H321.443l18.3,42.157Z" transform="translate(-284.792 -200.124)" fill="#ebebeb"/>
          <path id="Path_262" data-name="Path 262" d="M334.759,244.424l-18.3-42.157H310.68l18.3,42.157Z" transform="translate(-282.9 -200.124)" fill="#ebebeb"/>
          <path id="Rectangle_156" data-name="Rectangle 156" d="M0,0H16.6a0,0,0,0,1,0,0V0a1.859,1.859,0,0,1-1.859,1.859H1.859A1.859,1.859,0,0,1,0,0V0A0,0,0,0,1,0,0Z" transform="translate(52.034 58.732) rotate(-180)" fill="#f5f5f5"/>
          <path id="Rectangle_157" data-name="Rectangle 157" d="M0,0H11.26a0,0,0,0,1,0,0V0A1.859,1.859,0,0,1,9.4,1.859H1.859A1.859,1.859,0,0,1,0,0V0A0,0,0,0,1,0,0Z" transform="translate(37.357 58.732) rotate(180)" fill="#f0f0f0"/>
        </g>
        <g id="Group_312" data-name="Group 312" transform="translate(84.63 54.614)">
          <path id="Path_263" data-name="Path 263" d="M351.121,270.049H299.8l-1.387-4.119h46.028Z" transform="translate(-295.824 -265.93)" fill="#f5f5f5"/>
          <path id="Path_264" data-name="Path 264" d="M304.9,270.049h-8.478l-1.147-4.119h8.478Z" transform="translate(-295.272 -265.93)" fill="#f0f0f0"/>
        </g>
        <path id="Rectangle_158" data-name="Rectangle 158" d="M0,0H14.606a0,0,0,0,1,0,0V0a3.445,3.445,0,0,1-3.445,3.445H3.445A3.445,3.445,0,0,1,0,0V0A0,0,0,0,1,0,0Z" transform="translate(77.924 58.732) rotate(-180)" fill="#f0f0f0"/>
      </g>
      <g id="Group_314" data-name="Group 314" transform="translate(17.796 167.685)">
        <rect id="Rectangle_159" data-name="Rectangle 159" width="14.316" height="66.539" transform="translate(15.792 78.627) rotate(180)" fill="#e0e0e0"/>
        <path id="Path_265" data-name="Path 265" d="M152.472,365.627H94.593L87.437,287h57.879Z" transform="translate(-87.437 -287)" fill="#e6e6e6"/>
        <path id="Path_266" data-name="Path 266" d="M156.109,365.627H98.231L91.074,287h57.879Z" transform="translate(-88.076 -287)" fill="#f0f0f0"/>
        <path id="Path_267" data-name="Path 267" d="M108.167,358.78,102.6,297.56h40.471l5.572,61.219Z" transform="translate(-90.101 -288.857)" fill="#fff"/>
      </g>
    </g>
  </g>
  <g id="Shadow" transform="translate(46.247 288.438)">
    <ellipse id="_Path_" data-name="&lt;Path&gt;" cx="159.803" cy="9.333" rx="159.803" ry="9.333" fill="#f5f5f5"/>
  </g>
  <g id="Upload_Window" data-name="Upload Window" transform="translate(80.528 50.262)">
    <g id="Group_322" data-name="Group 322" transform="translate(0)">
      <g id="Group_320" data-name="Group 320" transform="translate(0)">
        <g id="Group_319" data-name="Group 319">
          <rect id="Rectangle_160" data-name="Rectangle 160" width="0.825" height="10.988" transform="translate(0.309 50.349) rotate(-1.872)" fill="#407bff"/>
          <rect id="Rectangle_161" data-name="Rectangle 161" width="0.825" height="5.222" transform="translate(0 40.877) rotate(-1.872)" fill="#407bff"/>
          <path id="Path_268" data-name="Path 268" d="M110.026,236.214H267.334a6.239,6.239,0,0,0,6.258-6.469l-3.5-107.34a6.75,6.75,0,0,0-6.68-6.469H106.1a6.239,6.239,0,0,0-6.258,6.469l3.5,107.34A6.752,6.752,0,0,0,110.026,236.214Z" transform="translate(-98.08 -115.936)" fill="#407bff"/>
          <g id="Group_317" data-name="Group 317" transform="translate(2.265)">
            <g id="Group_316" data-name="Group 316">
              <path id="Path_269" data-name="Path 269" d="M110.638,236.214H267.946a6.239,6.239,0,0,0,6.258-6.469l-3.5-107.34a6.75,6.75,0,0,0-6.68-6.469H106.713a6.239,6.239,0,0,0-6.258,6.469l3.5,107.34A6.75,6.75,0,0,0,110.638,236.214Z" transform="translate(-100.452 -115.936)" fill="#407bff"/>
              <path id="Path_270" data-name="Path 270" d="M110.638,236.214H267.946a6.239,6.239,0,0,0,6.258-6.469l-3.5-107.34a6.75,6.75,0,0,0-6.68-6.469H106.713a6.239,6.239,0,0,0-6.258,6.469l3.5,107.34A6.75,6.75,0,0,0,110.638,236.214Z" transform="translate(-100.452 -115.936)" fill="#fff" opacity="0.5"/>
            </g>
            <path id="Path_271" data-name="Path 271" d="M264.174,119.861H106.866q-.267,0-.528.021c-4.034.331-3.453,6.448.6,6.448H264.52c4.058,0,4.24-6.116.184-6.448Q264.441,119.861,264.174,119.861Z" transform="translate(-101.003 -116.626)" fill="#407bff" opacity="0.5"/>
            <path id="Path_272" data-name="Path 272" d="M111.748,123.469a1.426,1.426,0,0,1-1.435,1.484,1.544,1.544,0,0,1-1.531-1.484,1.427,1.427,0,0,1,1.435-1.483A1.543,1.543,0,0,1,111.748,123.469Z" transform="translate(-101.916 -117)" fill="#fafafa"/>
            <path id="Path_273" data-name="Path 273" d="M117.869,123.469a1.427,1.427,0,0,1-1.435,1.484,1.544,1.544,0,0,1-1.531-1.484,1.427,1.427,0,0,1,1.435-1.483A1.543,1.543,0,0,1,117.869,123.469Z" transform="translate(-102.992 -117)" fill="#fafafa"/>
            <ellipse id="Ellipse_19" data-name="Ellipse 19" cx="1.459" cy="1.507" rx="1.459" ry="1.507" transform="matrix(0.701, -0.713, 0.713, 0.701, 16.341, 6.453)" fill="#fafafa"/>
          </g>
          <path id="Path_274" data-name="Path 274" d="M115.38,229.041H265.89a2.255,2.255,0,0,0,2.269-2.345l-2.881-88.273a2.44,2.44,0,0,0-2.422-2.345H112.346a2.255,2.255,0,0,0-2.268,2.345l2.88,88.273A2.441,2.441,0,0,0,115.38,229.041Z" transform="translate(-99.879 -119.477)" fill="#fff"/>
          <g id="Group_318" data-name="Group 318" transform="translate(52.521 27.526)" opacity="0.3">
            <path id="Path_275" data-name="Path 275" d="M249.94,235.03h-2.747v-.782h1.941l-.063-1.94.781-.025Z" transform="translate(-176.505 -163.916)" fill="#407bff"/>
            <path id="Path_276" data-name="Path 276" d="M229.748,235.449h-4.376v-.781h4.376Zm-8.752,0h-4.377v-.781H221Zm-8.753,0h-4.376v-.781h4.376Zm-8.753,0h-4.376v-.781h4.376Zm-8.752,0h-4.377v-.781h4.377Zm-8.753,0h-4.376v-.781h4.376Zm-8.752,0h-4.376v-.781h4.376Z" transform="translate(-163.437 -164.335)" fill="#407bff"/>
            <path id="Path_277" data-name="Path 277" d="M166.947,235.03h-2.723l-.089-2.721.781-.025.064,1.965h1.966Z" transform="translate(-161.904 -163.916)" fill="#407bff"/>
            <path id="Path_278" data-name="Path 278" d="M163.567,214.864l-.143-4.377.781-.026.143,4.376Zm-.286-8.753-.143-4.376.781-.026.143,4.377ZM163,197.358l-.143-4.376.781-.026.143,4.376Zm-.285-8.753-.143-4.376.781-.025.143,4.376Zm-.286-8.753-.143-4.377.781-.026.143,4.376Zm-.286-8.753L162,166.723l.78-.026.143,4.376Zm-.285-8.753-.143-4.376.781-.025.143,4.376Z" transform="translate(-161.478 -150.847)" fill="#407bff"/>
            <path id="Path_279" data-name="Path 279" d="M161.518,152.079l-.09-2.747h2.748v.781h-1.94l.063,1.94Z" transform="translate(-161.428 -149.333)" fill="#407bff"/>
            <path id="Path_280" data-name="Path 280" d="M226.964,150.114h-4.376v-.781h4.376Zm-8.752,0h-4.377v-.781h4.377Zm-8.753,0h-4.377v-.781h4.377Zm-8.753,0H196.33v-.781h4.376Zm-8.752,0h-4.377v-.781h4.377Zm-8.752,0h-4.377v-.781H183.2Zm-8.753,0h-4.377v-.781h4.377Z" transform="translate(-162.947 -149.333)" fill="#407bff"/>
            <path id="Path_281" data-name="Path 281" d="M246.439,152.079l-.064-1.965h-1.966v-.781h2.723l.089,2.721Z" transform="translate(-176.016 -149.333)" fill="#407bff"/>
            <path id="Path_282" data-name="Path 282" d="M248.9,214.864l-.143-4.377.781-.026.143,4.376Zm-.286-8.753-.143-4.376.781-.026.142,4.377Zm-.285-8.753-.143-4.376.78-.026.143,4.376Zm-.285-8.753-.143-4.376.781-.025.143,4.376Zm-.286-8.753-.143-4.377.781-.026.142,4.376Zm-.286-8.753-.142-4.377.78-.026.143,4.376Zm-.285-8.753-.143-4.376.781-.025.143,4.376Z" transform="translate(-176.48 -150.847)" fill="#407bff"/>
          </g>
        </g>
      </g>
      <g id="Group_321" data-name="Group 321" transform="translate(65.693 46.035)">
        <path id="Path_283" data-name="Path 283" d="M216.487,200H187.713a10.388,10.388,0,0,1-10.3-9.972,9.658,9.658,0,0,1,8.333-9.937,11.116,11.116,0,0,1,10.773-8.3,11.8,11.8,0,0,1,10.073,5.683,9.5,9.5,0,0,1,2.8-.416,10.052,10.052,0,0,1,9.89,8.927,7.69,7.69,0,0,1,4.368,6.613,7.125,7.125,0,0,1-7.161,7.4Zm-19.965-26.287a9.184,9.184,0,0,0-9.042,7.441l-.138.733-.743.048a7.747,7.747,0,0,0-7.262,8.032,8.451,8.451,0,0,0,8.378,8.113h28.774a5.2,5.2,0,0,0,5.241-5.418,5.747,5.747,0,0,0-3.7-5.122l-.6-.224-.027-.636a8.1,8.1,0,0,0-8.014-7.7,7.539,7.539,0,0,0-2.87.56l-.81.332-.4-.777A9.906,9.906,0,0,0,196.521,173.711Z" transform="translate(-177.41 -171.79)" fill="#407bff"/>
        <path id="Path_284" data-name="Path 284" d="M211.484,193.04l-7.936-7.686-7.435,7.686h4.351l.259,7.946h6.67l-.259-7.946Z" transform="translate(-180.698 -174.175)" fill="#407bff"/>
      </g>
    </g>
  </g>
  <g id="Character" transform="translate(212.44 40.195)">
    <g id="Group_330" data-name="Group 330" transform="translate(0)">
      <path id="Path_285" data-name="Path 285" d="M363.568,156.8c.762,1.092,1.371,2.016,2,3.04.627,1,1.218,2.013,1.793,3.039,1.156,2.046,2.229,4.141,3.212,6.3a68.025,68.025,0,0,1,2.671,6.66,51.753,51.753,0,0,1,1.939,7.13l.32,1.88.039.235.045.3c.032.288.069.537.081.858a8.8,8.8,0,0,1,0,.97l-.038.521-.087.575a8.378,8.378,0,0,1-.312,1.2,7.7,7.7,0,0,1-.581,1.254,7.025,7.025,0,0,1-1.819,2.08,8.21,8.21,0,0,1-3.716,1.581,12.151,12.151,0,0,1-2.689.135,16.544,16.544,0,0,1-2.188-.259,31.258,31.258,0,0,1-3.767-.967,51.7,51.7,0,0,1-6.627-2.717,59.505,59.505,0,0,1-6.109-3.41l2.37-5.26a126.006,126.006,0,0,0,12.431,2.688,21.564,21.564,0,0,0,2.794.237,4.552,4.552,0,0,0,1.77-.2c.05-.039-.136-.1-.684.266a2.957,2.957,0,0,0-.75.816,2.778,2.778,0,0,0-.237.495,2.673,2.673,0,0,0-.124.391l-.049.265a1.249,1.249,0,0,1-.019.138c0,.043-.02.018-.02.03a.834.834,0,0,1-.032-.11l-.047-.173-.372-1.385a66.028,66.028,0,0,0-4.629-11.2c-.93-1.859-1.951-3.695-2.99-5.519-.518-.913-1.06-1.815-1.595-2.712-.529-.875-1.109-1.834-1.59-2.587Z" transform="translate(-273.572 -113.054)" fill="#ffb573"/>
      <path id="Path_286" data-name="Path 286" d="M350.264,187.051l-3.573-3.564-3.556,7.925s3.363,1.866,6.362.505Z" transform="translate(-272.764 -117.745)" fill="#ffb573"/>
      <path id="Path_287" data-name="Path 287" d="M340.475,180.044l-2.633,6.687,4.362,4.075,3.557-7.924Z" transform="translate(-271.833 -117.14)" fill="#ffb573"/>
      <g id="Group_324" data-name="Group 324" transform="translate(0 34.313)">
        <g id="Group_323" data-name="Group 323" transform="translate(0 0)">
          <rect id="Rectangle_162" data-name="Rectangle 162" width="69.679" height="69.679" transform="matrix(0.985, 0.173, -0.173, 0.985, 12.089, 0)" fill="#407bff"/>
          <rect id="Rectangle_163" data-name="Rectangle 163" width="69.679" height="69.679" transform="matrix(0.985, 0.173, -0.173, 0.985, 12.089, 0)" fill="#fff" opacity="0.6"/>
        </g>
        <rect id="Rectangle_164" data-name="Rectangle 164" width="62.898" height="62.898" transform="translate(14.84 3.927) rotate(9.991)" fill="#fff"/>
        <ellipse id="Ellipse_20" data-name="Ellipse 20" cx="11.611" cy="11.611" rx="11.611" ry="11.611" transform="matrix(0.819, -0.574, 0.574, 0.819, 21.152, 23.205)" fill="#407bff" opacity="0.3"/>
        <path id="Path_288" data-name="Path 288" d="M310.442,197.481,289.68,212.015l-9.548-13.631-15.666,10.973-1.943,11.031L324.46,231.3l1.943-11.031Z" transform="translate(-258.592 -154.518)" fill="#407bff" opacity="0.2"/>
      </g>
      <path id="Path_289" data-name="Path 289" d="M324.517,126.305c.011.548-.269,1-.628,1.006s-.659-.431-.67-.979.27-1,.628-1.006S324.505,125.757,324.517,126.305Z" transform="translate(-269.262 -107.52)" fill="#263238"/>
      <path id="Path_290" data-name="Path 290" d="M323.99,127.725a19.635,19.635,0,0,1-2.522,4.744,3.162,3.162,0,0,0,2.63.437Z" transform="translate(-268.955 -107.942)" fill="#ff5652"/>
      <path id="Path_291" data-name="Path 291" d="M326.5,122.518a.322.322,0,0,1-.239-.052,2.55,2.55,0,0,0-2.3-.372.322.322,0,0,1-.243-.6,3.2,3.2,0,0,1,2.907.438.322.322,0,0,1-.126.583Z" transform="translate(-269.315 -106.817)" fill="#263238"/>
      <path id="Path_292" data-name="Path 292" d="M341.357,129.052c-.348,5.057.05,15.274,3.917,18.133,0,0-.948,4.125-10.119,5.277-10.085,1.267-5.449-4.4-5.449-4.4,5.339-2.006,4.684-6.071,3.243-9.786Z" transform="translate(-270.216 -108.175)" fill="#ffb573"/>
      <path id="Path_293" data-name="Path 293" d="M374.307,394.208a.544.544,0,0,1-.064-.026.656.656,0,0,1-.344-.682.751.751,0,0,1,.279-.565c.776-.66,3.036-.37,3.131-.357a.161.161,0,0,1,.084.282C376.865,393.312,375.119,394.489,374.307,394.208Zm2.572-1.352a4.382,4.382,0,0,0-2.492.323.434.434,0,0,0-.166.329c-.009.3.118.363.16.382C374.817,394.1,376.053,393.471,376.879,392.856Z" transform="translate(-278.172 -154.49)" fill="#407bff"/>
      <path id="Path_294" data-name="Path 294" d="M376.246,392.257c-.792-.275-1.63-.738-1.771-1.217a.526.526,0,0,1,.264-.61.877.877,0,0,1,.7-.128c.994.209,2.036,1.887,2.079,1.958a.161.161,0,0,1-.141.246A4.181,4.181,0,0,1,376.246,392.257Zm-.759-1.609a.937.937,0,0,0-.11-.03.558.558,0,0,0-.457.08c-.175.118-.147.212-.136.252.129.438,1.414,1.044,2.277,1.2A4.261,4.261,0,0,0,375.487,390.648Z" transform="translate(-278.269 -154.099)" fill="#407bff"/>
      <path id="Path_295" data-name="Path 295" d="M313.219,407.888c-.873,0-1.715-.12-2-.513a.609.609,0,0,1,.013-.7.8.8,0,0,1,.51-.377c1.132-.308,3.509,1.046,3.608,1.1a.16.16,0,0,1-.049.3A11.81,11.81,0,0,1,313.219,407.888Zm-1.078-1.319a1.177,1.177,0,0,0-.311.037.482.482,0,0,0-.316.226c-.114.2-.073.3-.031.356.316.439,2.036.448,3.3.271A7.282,7.282,0,0,0,312.141,406.569Z" transform="translate(-267.135 -156.907)" fill="#407bff"/>
      <path id="Path_296" data-name="Path 296" d="M315.649,407.353a.154.154,0,0,1-.066-.014c-.821-.368-2.446-1.839-2.322-2.608.029-.181.157-.4.6-.45a1.19,1.19,0,0,1,.893.277,4.6,4.6,0,0,1,1.056,2.618.16.16,0,0,1-.161.176ZM313.99,404.6c-.031,0-.064,0-.1,0-.29.03-.308.143-.314.181-.075.462,1.03,1.616,1.868,2.12a3.781,3.781,0,0,0-.9-2.1A.86.86,0,0,0,313.99,404.6Z" transform="translate(-267.511 -156.56)" fill="#407bff"/>
      <path id="Path_297" data-name="Path 297" d="M323.637,404.455h-6.8l-.677-15.747h6.8Z" transform="translate(-268.021 -153.823)" fill="#ffb573"/>
      <path id="Path_298" data-name="Path 298" d="M383.853,387.243l-6.3,1.733-8.073-14.765,6.3-1.733Z" transform="translate(-277.394 -150.97)" fill="#ffb573"/>
      <path id="Path_299" data-name="Path 299" d="M376.266,390.9l6.8-3.48a.594.594,0,0,1,.727.15l3.949,4.77a1,1,0,0,1-.336,1.53c-2.4,1.174-3.62,1.625-6.61,3.154-1.841.942-7.313,5.011-10.074,5.731-2.7.7-3.835-1.917-2.769-2.459a15.565,15.565,0,0,0,7.52-8.521A1.647,1.647,0,0,1,376.266,390.9Z" transform="translate(-277.057 -153.585)" fill="#263238"/>
      <path id="Path_300" data-name="Path 300" d="M313.533,406.859h7.426a.593.593,0,0,1,.579.464l1.343,6.045a.989.989,0,0,1-.978,1.209c-2.679-.045-6.549-.2-9.916-.2-3.937,0-7.337.215-11.953.215-2.792,0-3.566-2.822-2.4-3.078,5.319-1.164,9.663-1.289,14.26-4.123A3.144,3.144,0,0,1,313.533,406.859Z" transform="translate(-264.673 -157.014)" fill="#263238"/>
      <path id="Path_301" data-name="Path 301" d="M352.311,163.777c.709,1.827,1.489,3.608,2.276,5.278,1.356,2.889,2.707,5.413,3.688,7.156.875,1.57,1.447,2.5,1.447,2.5l14.853-7.366s-5.984-17.2-12.231-19.117C355.941,150.283,349.1,155.576,352.311,163.777Z" transform="translate(-274.233 -112.179)" fill="#263238"/>
      <path id="Path_302" data-name="Path 302" d="M359.858,168.39c-1.294.951-2.217,3.511-2.874,6.518.847,1.656,1.627,3.092,2.256,4.215.875,1.571,1.446,2.5,1.446,2.5l1.7-.846A32.78,32.78,0,0,0,359.858,168.39Z" transform="translate(-275.198 -115.091)" opacity="0.2"/>
      <path id="Path_303" data-name="Path 303" d="M314.379,174.458c0,2.314.056,4.86.185,7.664.333,7.627,1.166,17.133,2.759,28.943H353.69c.25-5.581-3.258-32.821,2.129-59.127a95.214,95.214,0,0,0-12.182-1.536,134.382,134.382,0,0,0-15.457,0,69.291,69.291,0,0,0-10.459,1.888S314.37,156.076,314.379,174.458Z" transform="translate(-267.708 -111.889)" fill="#263238"/>
      <path id="Path_304" data-name="Path 304" d="M316.264,165.473a32.819,32.819,0,0,1-1.808,3.3c-.6.973-1.2,1.906-1.836,2.812-1.249,1.821-2.563,3.563-3.938,5.266a75.65,75.65,0,0,1-9.176,9.627,41.652,41.652,0,0,1-5.689,4.209l-.811.473-.212.12-.3.15-.6.288a12.105,12.105,0,0,1-2.423.781,15.388,15.388,0,0,1-4.505.229,21.715,21.715,0,0,1-7.241-2.166,28.563,28.563,0,0,1-3.029-1.729,25.994,25.994,0,0,1-2.807-2.1l2.919-4.976c3.565.935,7.592,1.775,10.358,1.381a4.925,4.925,0,0,0,1.633-.456,3.055,3.055,0,0,0,.472-.3,1.08,1.08,0,0,1,.082-.08l.043-.035.117-.084.5-.352a38.461,38.461,0,0,0,4.007-3.49,85.088,85.088,0,0,0,7.493-8.688c1.179-1.545,2.321-3.128,3.412-4.713.539-.8,1.073-1.587,1.568-2.367.481-.763.986-1.583,1.246-2.088Z" transform="translate(-260.239 -113.7)" fill="#ffb573"/>
      <path id="Path_305" data-name="Path 305" d="M275.761,186.545l-6.271-2.973-.566,8.411s4.874.845,7.455-1.059Z" transform="translate(-259.717 -117.76)" fill="#ffb573"/>
      <path id="Path_306" data-name="Path 306" d="M260.018,185l2.417,6.411,4.923.57.566-8.411Z" transform="translate(-258.152 -117.76)" fill="#ffb573"/>
      <path id="Path_307" data-name="Path 307" d="M325.265,159.5c-.215,6.5-13.6,21.469-13.6,21.469l-14.141-9.235a75.931,75.931,0,0,1,10.3-14.457C316.615,148.121,325.523,151.7,325.265,159.5Z" transform="translate(-264.746 -112.183)" fill="#263238"/>
      <g id="Group_325" data-name="Group 325" transform="translate(48.14 221.512)">
        <path id="Path_308" data-name="Path 308" d="M316.162,388.714l.348,8.117h6.8l-.348-8.117Z" transform="translate(-316.162 -375.336)" opacity="0.2"/>
        <path id="Path_309" data-name="Path 309" d="M375.785,372.483l-6.307,1.733,4.164,7.61,6.307-1.734Z" transform="translate(-325.535 -372.483)" opacity="0.2"/>
      </g>
      <path id="Path_310" data-name="Path 310" d="M342.847,122.571c-.274,6.744-.091,10.7-3.42,14.231-5.008,5.306-13.384,2.4-15.132-4.293-1.573-6.02-.862-16.036,5.674-18.854A9.2,9.2,0,0,1,342.847,122.571Z" transform="translate(-269.328 -105.33)" fill="#ffb573"/>
      <path id="Path_311" data-name="Path 311" d="M329.049,124.177c-2.427-1.728-4.808-5.3-4.625-7.954-2.244-.091-3.755-3.8-2.519-6.5.778,1.74,3.456.458,4.5-.916-.56-1.328-.469-3.526,3.378-5.083-.321,1.122-.153,3.005,3.709,1.648,4.693-1.648,12.938-.549,10.522,5.037,3.306.6,7.588,7.413,3.947,11s-4.4,9.374-7.509,9.969S329.232,132.177,329.049,124.177Z" transform="translate(-268.953 -103.722)" fill="#263238"/>
      <path id="Path_312" data-name="Path 312" d="M346.163,111.459a6.3,6.3,0,0,1,7.53,2.117A22.962,22.962,0,0,0,346.163,111.459Z" transform="translate(-273.296 -104.996)" fill="#263238"/>
      <path id="Path_313" data-name="Path 313" d="M331.832,127.662a6.828,6.828,0,0,1-1.6,4.081c-1.285,1.5-2.693.626-2.978-1.146-.255-1.6.1-4.3,1.7-5.147C330.536,124.612,331.89,125.855,331.832,127.662Z" transform="translate(-269.959 -107.495)" fill="#ffb573"/>
      <g id="Group_326" data-name="Group 326" transform="translate(61.666 99.177)">
        <path id="Path_314" data-name="Path 314" d="M333.419,224.054s-3.209,51.453,2.873,70.426c9.633,30.052,26.8,60.748,26.8,60.748l12.281-3.693s-13.505-32.4-17.948-57.719c-3.99-22.74-.542-51.188-.542-69.763Z" transform="translate(-332.573 -224.054)" fill="#407bff"/>
      </g>
      <path id="Path_315" data-name="Path 315" d="M332.9,237.858c3.432-1,6.107-.625,6.8,2.429,1.813,7.973-3.626,29-6.336,38.615C332.265,265.121,332.52,248.638,332.9,237.858Z" transform="translate(-270.907 -127.216)" opacity="0.2"/>
      <g id="Group_327" data-name="Group 327" transform="translate(88.722 222.058)">
        <path id="Path_316" data-name="Path 316" d="M365.4,377.919c-.051.015,3.2,3.8,3.2,3.8l13.419-4.035-1.706-4.541Z" transform="translate(-365.399 -373.145)" fill="#263238"/>
      </g>
      <g id="Group_328" data-name="Group 328" transform="translate(38.59 99.177)">
        <path id="Path_317" data-name="Path 317" d="M315.595,224.054s-10.241,43.411-10.963,64.148c-.809,23.256,7.307,78.109,7.307,78.109h11.519s1.418-55.281,1.93-76.463c.559-23.092,14.114-65.794,14.114-65.794Z" transform="translate(-304.575 -224.054)" fill="#407bff"/>
      </g>
      <g id="Group_329" data-name="Group 329" transform="translate(43.735 236.847)">
        <path id="Path_318" data-name="Path 318" d="M310.819,391.088c-.053,0,.65,4.782.65,4.782h14.012l.379-4.268Z" transform="translate(-310.817 -391.088)" fill="#263238"/>
      </g>
      <path id="Path_319" data-name="Path 319" d="M323.88,148.16c1.559-.54,13.44-2.05,22.063-1.59,4.922.263,7.7.8,9.709,1.773s-1.592,5.872-3.256,6.472c.674,1.878-3.077,4.276-5.215,5.414-.856,1.767-9.282,3.4-14.232-.4C329.149,156.918,319.432,149.7,323.88,148.16Z" transform="translate(-269.178 -111.24)" fill="#407bff"/>
    </g>
  </g>
</svg>
