<svg xmlns="http://www.w3.org/2000/svg" width="22.186" height="17.648" viewBox="0 0 22.186 17.648">
  <path id="Union_5" data-name="Union 5" d="M-14970.811-5262.733a3.417,3.417,0,0,1-2.738,1.381.689.689,0,0,1-.485-.2.686.686,0,0,1-.2-.487.69.69,0,0,1,.2-.487.686.686,0,0,1,.485-.2,2.063,2.063,0,0,0,2.053-2.068v-10.753a2.064,2.064,0,0,0-2.053-2.069.684.684,0,0,1-.485-.2.687.687,0,0,1-.2-.486.687.687,0,0,1,.684-.69,3.415,3.415,0,0,1,2.738,1.381,3.412,3.412,0,0,1,2.739-1.381.687.687,0,0,1,.685.689.687.687,0,0,1-.685.689,2.065,2.065,0,0,0-2.056,2.069v10.753a2.064,2.064,0,0,0,2.056,2.068h.026a.688.688,0,0,1,.658.689.687.687,0,0,1-.685.689A3.414,3.414,0,0,1-14970.811-5262.733Zm1.175-.866Zm2.6-.744a.87.87,0,0,1-.867-.873.869.869,0,0,1,.867-.872h.78a1.742,1.742,0,0,0,1.733-1.745v-5.149a1.742,1.742,0,0,0-1.733-1.745h-.78a.87.87,0,0,1-.867-.872.87.87,0,0,1,.867-.873h.78a3.482,3.482,0,0,1,3.466,3.49v5.148a3.483,3.483,0,0,1-3.466,3.491Zm-14.473,0a3.483,3.483,0,0,1-3.467-3.49v-5.149a3.483,3.483,0,0,1,3.467-3.491h7.582a.87.87,0,0,1,.867.873.869.869,0,0,1-.867.873h-7.582a1.741,1.741,0,0,0-1.734,1.745v5.149a1.741,1.741,0,0,0,1.734,1.745h7.582a.869.869,0,0,1,.867.872.87.87,0,0,1-.867.873Zm12.564-3a.745.745,0,0,1-.229-.547.745.745,0,0,1,.229-.548.743.743,0,0,1,.544-.232.743.743,0,0,1,.55.231.76.76,0,0,1,.225.549.756.756,0,0,1-.225.547.738.738,0,0,1-.55.232A.743.743,0,0,1-14968.943-5267.343Zm-5,0a.741.741,0,0,1-.229-.547.744.744,0,0,1,.229-.548.741.741,0,0,1,.544-.232.739.739,0,0,1,.549.231.761.761,0,0,1,.226.549.757.757,0,0,1-.226.547.734.734,0,0,1-.549.232.74.74,0,0,1-.545-.232Zm-3.528.074c-.285-.014-.557-.022-.812-.022s-.533.008-.816.022-.564.021-.843.021c-.017,0-.033-.023-.047-.069a.418.418,0,0,1-.021-.119.36.36,0,0,1,.021-.112c.014-.045.03-.071.047-.077a1.191,1.191,0,0,0,.659-.214.687.687,0,0,0,.159-.505v-4.061a.356.356,0,0,0-.077-.261.432.432,0,0,0-.29-.073h-.068a1.385,1.385,0,0,0-.859.526,3.229,3.229,0,0,0-.723,1.084c-.007.017-.027.028-.064.034a.609.609,0,0,1-.089.009.353.353,0,0,1-.149-.035c-.049-.023-.072-.049-.072-.077q.086-.429.184-1.049t.14-1.032a9.083,9.083,0,0,0,.928.085q.631.035,1.982.034,1.156,0,1.928-.034a8.29,8.29,0,0,0,1.016-.085c.019.273.04.6.069.976s.059.745.093,1.1c0,.028-.021.055-.063.078a.32.32,0,0,1-.149.035.467.467,0,0,1-.093-.013c-.039-.009-.062-.019-.069-.03a2.917,2.917,0,0,0-.564-1.041c-.3-.379-.577-.569-.839-.57h-.127a.4.4,0,0,0-.281.082.339.339,0,0,0-.085.252v4.061a.685.685,0,0,0,.162.505,1.12,1.12,0,0,0,.654.214c.017,0,.032.024.048.073a.422.422,0,0,1,.02.115.384.384,0,0,1-.02.12c-.016.045-.031.068-.048.068-.273,0-.552-.006-.841-.021Z" transform="translate(14984.975 5279)" fill="#7e829e"/>
</svg>
