<svg xmlns="http://www.w3.org/2000/svg" width="41.34" height="41.34" viewBox="0 0 41.34 41.34">
  <g id="_008-money-2" data-name="008-money-2" transform="translate(-1 -1)">
    <path id="Path_249" data-name="Path 249" d="M41.673,21H35.948l6.2-6.2a.666.666,0,0,0,0-.943L29.476,1.2a.666.666,0,0,0-.943,0L8.725,21H1.667A.667.667,0,0,0,1,21.67V39.006a.667.667,0,0,0,.667.667h9.726l2.472,2.472a.666.666,0,0,0,.943,0l2.472-2.472H41.673a.667.667,0,0,0,.667-.667V21.67A.667.667,0,0,0,41.673,21ZM29,2.61,40.73,14.335,34.063,21H28.972a7.332,7.332,0,0,0-14.6,0H10.61ZM18.487,21a1.334,1.334,0,0,1,.353-1.219L20.06,21Zm7.193,0a2.6,2.6,0,0,0-.239-.276,2.67,2.67,0,0,0-3.772,0l-1.886-1.886a1.366,1.366,0,0,1,1.886,0l.943-.943a2.667,2.667,0,0,0-3.771,0h0l-.471-.471-.943.943.471.471A2.646,2.646,0,0,0,17.135,21H15.708A6,6,0,0,1,27.63,21h-1.95ZM14.335,40.73l-1.057-1.057h2.115Zm26.671-2.391H2.334v-16H41.006Z" transform="translate(0 0)" fill="#7e829e"/>
    <path id="Path_250" data-name="Path 250" d="M28.338,44.36H27a2.679,2.679,0,0,0,2.676,2.676v.669h1.338v-.669a2.676,2.676,0,0,0,0-5.353V39.007a1.34,1.34,0,0,1,1.338,1.338h1.338a2.679,2.679,0,0,0-2.676-2.676V37H29.676v.669a2.676,2.676,0,0,0,0,5.353V45.7A1.34,1.34,0,0,1,28.338,44.36Zm0-4.015a1.34,1.34,0,0,1,1.338-1.338v2.676A1.34,1.34,0,0,1,28.338,40.345Zm2.676,2.676a1.338,1.338,0,1,1,0,2.676Z" transform="translate(-8.676 -12.025)" fill="#7e829e"/>
    <path id="Path_251" data-name="Path 251" d="M28.36,48.72A7.36,7.36,0,1,0,21,41.36,7.369,7.369,0,0,0,28.36,48.72Zm0-13.382a6.022,6.022,0,1,1-6.022,6.022A6.029,6.029,0,0,1,28.36,35.338Z" transform="translate(-6.69 -11.064)" fill="#7e829e"/>
    <path id="Path_252" data-name="Path 252" d="M54.7,47.713V35.669A.669.669,0,0,0,54.029,35H46v1.338h7.36V47.044H46v1.338h8.029A.669.669,0,0,0,54.7,47.713Z" transform="translate(-15.035 -11.395)" fill="#4484f4"/>
    <path id="Path_253" data-name="Path 253" d="M5.669,48.382H13.7V47.044H6.338V36.338H13.7V35H5.669A.669.669,0,0,0,5,35.669V47.713A.669.669,0,0,0,5.669,48.382Z" transform="translate(-1.324 -11.395)" fill="#4484f4"/>
    <path id="Path_254" data-name="Path 254" d="M46,49h1.338v1.338H46Z" transform="translate(-14.999 -15.999)" fill="#4484f4"/>
    <path id="Path_255" data-name="Path 255" d="M50,49h1.338v1.338H50Z" transform="translate(-16.332 -15.999)" fill="#4484f4"/>
    <path id="Path_256" data-name="Path 256" d="M46,39h1.338v1.338H46Z" transform="translate(-14.999 -12.666)" fill="#4484f4"/>
    <path id="Path_257" data-name="Path 257" d="M50,39h1.338v1.338H50Z" transform="translate(-16.332 -12.666)" fill="#4484f4"/>
    <path id="Path_258" data-name="Path 258" d="M40.23,8.619l7.57,7.57-5.2,5.2.946.946,5.677-5.677a.668.668,0,0,0,0-.946L40.7,7.2a.689.689,0,0,0-.946,0L34.08,12.877l.946.946Z" transform="translate(-11.09 -1.989)" fill="#4484f4"/>
    <path id="Path_259" data-name="Path 259" d="M0,0H1.338V1.338H0Z" transform="translate(29.648 17.456) rotate(-45)" fill="#4484f4"/>
    <path id="Path_260" data-name="Path 260" d="M0,0H1.338V1.338H0Z" transform="translate(31.533 15.571) rotate(-45)" fill="#4484f4"/>
    <path id="Path_261" data-name="Path 261" d="M0,0H1.338V1.338H0Z" transform="translate(24.935 12.743) rotate(-45)" fill="#4484f4"/>
    <path id="Path_262" data-name="Path 262" d="M0,0H1.338V1.338H0Z" transform="translate(26.82 10.857) rotate(-45)" fill="#4484f4"/>
    <path id="Path_263" data-name="Path 263" d="M12,39h1.338v1.338H12Z" transform="translate(-3.666 -12.666)" fill="#4484f4"/>
    <path id="Path_264" data-name="Path 264" d="M16,39h1.338v1.338H16Z" transform="translate(-5 -12.666)" fill="#4484f4"/>
    <path id="Path_265" data-name="Path 265" d="M12,49h1.338v1.338H12Z" transform="translate(-3.666 -15.999)" fill="#4484f4"/>
    <path id="Path_266" data-name="Path 266" d="M16,49h1.338v1.338H16Z" transform="translate(-5 -15.999)" fill="#4484f4"/>
  </g>
</svg>
