<svg xmlns="http://www.w3.org/2000/svg" width="32.515" height="47.785" viewBox="0 0 32.515 47.785">
  <g id="loan_2_" data-name="loan (2)" transform="translate(-88.629 -10.059)">
    <path id="Path_267" data-name="Path 267" d="M142.308,367.478h-4.959a.583.583,0,0,0-.558.413l-.41,1.344a2.675,2.675,0,0,1-.814-.5l-.832-.74-.037-.03a6.118,6.118,0,0,0-6.367-.622l-.345.167a3.409,3.409,0,0,1-1.475.338H124.06l-1.833-1a2.862,2.862,0,0,0-3.162.209l-.23-.124-.013-.007a2.238,2.238,0,0,0-2.563.532l0,0a2.592,2.592,0,0,0-3.457.945.583.583,0,0,0,.169.781l8.686,5.964a.572.572,0,0,0,.071.042,6.71,6.71,0,0,0,4.147.585l5.021-.925.037-.008a1.279,1.279,0,0,1,.927.118l2.329,1.472-.747,2.449a.583.583,0,0,0,.557.753h6.97a.583.583,0,0,0,.579-.512l1.341-11a.583.583,0,0,0-.579-.653Zm-20.658.389.014.008.365.2a3.072,3.072,0,0,0-.551.29l-1.193-.642a1.693,1.693,0,0,1,1.365.146Zm-3.36.1,2.327,1.254a3.074,3.074,0,0,0-.251.457l-3-1.619a.992.992,0,0,1,.926-.091Zm14.176,6-.027-.016a2.44,2.44,0,0,0-1.773-.243l-5,.921a5.534,5.534,0,0,1-3.384-.465l-8.111-5.569a1.428,1.428,0,0,1,1.534-.111l4.133,2.23.272.143c0,.02,0,.038,0,.057a.583.583,0,0,0,.583.583h.026l2.85-.129a13.506,13.506,0,0,1,2.461.114.583.583,0,1,0,.16-1.155,14.693,14.693,0,0,0-2.673-.123l-2.139.1a1.9,1.9,0,0,1,1.8-1.287h3.341a4.581,4.581,0,0,0,1.983-.454l.345-.167a4.957,4.957,0,0,1,5.14.49l.813.724a3.845,3.845,0,0,0,1.249.742l-1.5,4.929Zm7.985,4.5h-5.667l3-9.83h3.869Z" transform="translate(-21.746 -321.796)" fill="#7e829e"/>
    <path id="Path_268" data-name="Path 268" d="M94.786,28.084V27.047h.569a7.194,7.194,0,0,1,1.071.081l-1.679,2.29a8.731,8.731,0,0,0,.377,10.836,10.314,10.314,0,0,0,7.888,3.658h0a10.314,10.314,0,0,0,7.888-3.658,8.731,8.731,0,0,0,.377-10.836l-1.7-2.312c0-.014,0-.028,0-.042a1.959,1.959,0,0,0-.327-1.085,1.972,1.972,0,0,0,.379-3.1,2.015,2.015,0,0,0,.022-2.827,1.884,1.884,0,0,0-.787-3.157,3.239,3.239,0,0,0,1.513-3v-.053a.583.583,0,0,0-.583-.583h-1.858a14.934,14.934,0,0,1,.873-1.792.885.885,0,0,0-.759-1.324l-7.734-.081a.888.888,0,0,0-.666.275.862.862,0,0,0-.1,1.046l.365.579a11.9,11.9,0,0,1,.706,1.3h-.5A2.823,2.823,0,0,0,97.293,15.6a3.635,3.635,0,0,1-.153.411,3.239,3.239,0,0,1-1.687.551h-.666V15.312a.583.583,0,0,0-.583-.583H89.212a.583.583,0,0,0-.583.583V28.084a.583.583,0,0,0,.583.583H94.2A.583.583,0,0,0,94.786,28.084Zm15.55,2.023a7.569,7.569,0,0,1-.327,9.393,9.167,9.167,0,0,1-14,0,7.569,7.569,0,0,1-.326-9.393l1.967-2.682a7.188,7.188,0,0,1,1.419.659A3.85,3.85,0,0,0,98.014,32.1a.583.583,0,1,0,1.112-.351,3.416,3.416,0,0,1-.1-1.211,2.291,2.291,0,0,1,1.269-1.881,10.379,10.379,0,0,0,3.252.377h1.358l.139.25a5.576,5.576,0,0,1,.688,3.077l-.012.178a.583.583,0,0,0,.543.62h.039a.583.583,0,0,0,.581-.544l.012-.178a6.736,6.736,0,0,0-.638-3.34c.337.128,1.357.684,1.55,2.736a.583.583,0,0,0,.58.528l.055,0a.583.583,0,0,0,.526-.635A5,5,0,0,0,107.988,29a1.974,1.974,0,0,0,1.084-.615Zm-1.159-15.685a1.656,1.656,0,0,1-1.639,1.627h-.424a14.944,14.944,0,0,1,.41-1.627h1.654Zm-7.863-3.187a.592.592,0,0,0,.066.033,2.617,2.617,0,0,1,1.525,2.455.583.583,0,1,0,1.15.187,3.5,3.5,0,0,0-.835-2.655l1.842.019a4.444,4.444,0,0,0-.219,2.2.583.583,0,0,0,.573.48.591.591,0,0,0,.171-.026.6.6,0,0,0,.4-.678,3.58,3.58,0,0,1,.322-1.959l1.264.013a16.036,16.036,0,0,0-1.712,5.143l-.064.416-2.5.046a.46.46,0,0,1-.317-.168,15.429,15.429,0,0,0-2.136-5.508Zm-6.528,6.491h.666a4.4,4.4,0,0,0,2.353-.758,1.7,1.7,0,0,0,.594-1c.3-.9.6-1.544,1.728-1.544h.985c.209.573.383,1.16.535,1.754v.259a.574.574,0,0,0,0,.063,1.75,1.75,0,0,0,1.649,1.573h.011l5.032-.093a.722.722,0,1,1,0,1.443l-2.054.006a.583.583,0,1,0,0,1.166H108.2a.855.855,0,1,1,0,1.71h-1.92a.583.583,0,1,0,0,1.166h1.964a.812.812,0,1,1,0,1.623h-2.832a.583.583,0,0,0,0,1.166h2.2a.806.806,0,1,1,0,1.611h-4.063a6.939,6.939,0,0,1-3.79-.733,8.348,8.348,0,0,0-4.4-1.255h-.569ZM93.62,27.5H89.795V15.9H93.62Z" transform="translate(0 0)" fill="#7e829e"/>
    <path id="Path_269" data-name="Path 269" d="M221.984,249.078a.737.737,0,0,1,.736.736.583.583,0,1,0,1.166,0,1.9,1.9,0,0,0-1.319-1.809v-.234a.583.583,0,1,0-1.166,0v.234a1.9,1.9,0,0,0,.583,3.712.736.736,0,0,1,.01,1.472h-.019a.737.737,0,0,1-.727-.736.583.583,0,1,0-1.166,0,1.9,1.9,0,0,0,1.319,1.81v.294a.583.583,0,1,0,1.166,0v-.294a1.9,1.9,0,0,0-.583-3.712.736.736,0,1,1,0-1.473Z" transform="translate(-118.684 -214.095)" fill="#4484f4"/>
  </g>
</svg>
