<svg xmlns="http://www.w3.org/2000/svg" width="64.53" height="77.195" viewBox="0 0 64.53 77.195">
  <g id="Group_46" data-name="Group 46" transform="translate(-64.441 -309.059)">
    <g id="contract" transform="translate(69.117 304.5)">
      <path id="Path_369" data-name="Path 369" d="M13,19H43v2H13Z" transform="translate(5.912 4.73)" fill="#4484f4"/>
      <path id="Path_370" data-name="Path 370" d="M13,23H43v2H13Z" transform="translate(5.912 5.781)" fill="#4484f4"/>
      <path id="Path_371" data-name="Path 371" d="M13,27H43v2H13Z" transform="translate(5.912 6.832)" fill="#4484f4"/>
      <path id="Path_372" data-name="Path 372" d="M13,51H24v2H13Z" transform="translate(25.709 7.765)" fill="#4484f4"/>
      <path id="Path_374" data-name="Path 374" d="M13,51h6.092v2H13Z" transform="translate(30.618 11.765)" fill="#4484f4"/>
      <g id="user-data" transform="translate(-46.677 4.559)">
        <path id="Path_437" data-name="Path 437" d="M192.247,18.062V73.545H144V6h36.185Z" transform="translate(-86.621 -5.095)" fill="#fff"/>
        <g id="Group_37" data-name="Group 37" transform="translate(42.905 47.632)">
          <path id="Path_443" data-name="Path 443" d="M62.475,415.268A14.475,14.475,0,0,1,48.051,402c-.033.4-.05.8-.05,1.206a14.474,14.474,0,1,0,28.948,0c0-.406-.018-.808-.05-1.206A14.475,14.475,0,0,1,62.475,415.268Z" transform="translate(-48.001 -389.022)" fill="#95a4b6"/>
          <circle id="Ellipse_33" data-name="Ellipse 33" cx="5" cy="5" r="5" transform="translate(9.655 9.81)" fill="#fff"/>
          <path id="Path_444" data-name="Path 444" d="M92.756,442a9.652,9.652,0,0,0-9.1,6.432,14.472,14.472,0,0,0,18.2,0A9.652,9.652,0,0,0,92.756,442Z" transform="translate(-78.282 -422.991)" fill="#fff"/>
        </g>
        <g id="Group_38" data-name="Group 38" transform="translate(42)">
          <path id="Path_446" data-name="Path 446" d="M93.938,0H56.474V46.465a15.378,15.378,0,1,0,14.3,22.89H106.53V12.592Zm.53,3.089,8.973,8.973H94.468Zm-37.09,72.3a13.5,13.5,0,0,1-8-2.62,8.747,8.747,0,0,1,16.009,0A13.5,13.5,0,0,1,57.379,75.386Zm-3.92-13.569a3.92,3.92,0,1,1,3.92,3.92A3.924,3.924,0,0,1,53.459,61.816Zm13.356,9.741a10.523,10.523,0,0,0-5.922-5.222,5.729,5.729,0,1,0-7.029,0,10.522,10.522,0,0,0-5.922,5.222,13.569,13.569,0,1,1,18.872,0Zm37.906-4.012H71.65A15.377,15.377,0,0,0,58.283,46.465V1.809H92.659V13.871h12.062Z" transform="translate(-42)" fill="#7e829e"/>
          <path id="Path_447" data-name="Path 447" d="M192,64h24.123v1.809H192Z" transform="translate(-169.384 -54.351)" fill="#7e829e"/>
          <path id="Path_448" data-name="Path 448" d="M192,96h19.3v1.809H192Z" transform="translate(-169.384 -81.526)" fill="#7e829e"/>
          <path id="Path_449" data-name="Path 449" d="M186,150.634h6.634V144H186Zm1.809-4.825h3.015v3.015h-3.015Z" transform="translate(-164.289 -122.289)" fill="#4484f4"/>
          <path id="Path_450" data-name="Path 450" d="M256,176h19.3v1.809H256Z" transform="translate(-223.735 -149.464)" fill="#7e829e"/>
          <path id="Path_451" data-name="Path 451" d="M256,144h24.123v1.809H256Z" transform="translate(-223.735 -122.289)" fill="#7e829e"/>
          <path id="Path_452" data-name="Path 452" d="M186,230.634h6.634V224H186Zm1.809-4.825h3.015v3.015h-3.015Z" transform="translate(-164.289 -190.227)" fill="#4484f4"/>
          <path id="Path_453" data-name="Path 453" d="M256,256h19.3v1.809H256Z" transform="translate(-223.735 -217.403)" fill="#7e829e"/>
          <path id="Path_454" data-name="Path 454" d="M256,224h24.123v1.809H256Z" transform="translate(-223.735 -190.227)" fill="#7e829e"/>
          <path id="Path_455" data-name="Path 455" d="M256,336h19.3v1.809H256Z" transform="translate(-223.735 -285.341)" fill="#7e829e"/>
          <path id="Path_456" data-name="Path 456" d="M256,304h24.123v1.809H256Z" transform="translate(-223.735 -258.166)" fill="#7e829e"/>
        </g>
      </g>
    </g>
  </g>
</svg>
