<svg xmlns="http://www.w3.org/2000/svg" width="56.109" height="74.812" viewBox="0 0 56.109 74.812">
  <g id="Group_44" data-name="Group 44" transform="translate(-73.215 -58)">
    <g id="edition" transform="translate(9.215 58)">
      <path id="Path_397" data-name="Path 397" d="M122,6h46.758V71.461H122Z" transform="translate(-49.525 -5.123)" fill="#b9c2cf" opacity="0"/>
      <path id="Path_398" data-name="Path 398" d="M122,438h46.758v2.338H122Z" transform="translate(-49.525 -374)" fill="#95a4b6"/>
      <path id="Path_399" data-name="Path 399" d="M116.758,69.689v53.771H70V58h35.068Z" transform="translate(-5.123 -49.525)" fill="#fff"/>
      <path id="Path_401" data-name="Path 401" d="M70,490h46.758v2.338H70Z" transform="translate(-5.123 -418.402)" fill="#dce1e7"/>
      <g id="Group_31" data-name="Group 31" transform="translate(95.269 28.347)">
        <path id="Path_407" data-name="Path 407" d="M278,218h7.014v4.676H278Z" transform="translate(-278 -214.493)" fill="#fff"/>
        <path id="Path_409" data-name="Path 409" d="M285.014,418l-3.507,5.845L278,418Z" transform="translate(-278 -385.27)" fill="#fff"/>
        <path id="Path_410" data-name="Path 410" d="M296.338,418,294,421.9l1.169,1.948L298.676,418Z" transform="translate(-291.662 -385.27)" fill="#dce1e7"/>
      </g>
      <g id="Group_32" data-name="Group 32" transform="translate(64)">
        <path id="Path_412" data-name="Path 412" d="M120.109,0H71.6V7.6H64V74.812h48.511v-7.6h7.6ZM65.753,73.059V9.352H99.068V21.041h11.689V73.059Zm35.068-62.468,8.7,8.7h-8.7Zm17.534,54.87h-5.845V19.8l-12.2-12.2H73.352V1.753h45Z" transform="translate(-64)" fill="#7e829e"/>
        <path id="Path_413" data-name="Path 413" d="M118,116h23.379v1.753H118Z" transform="translate(-110.11 -99.05)" fill="#7e829e"/>
        <path id="Path_414" data-name="Path 414" d="M118,148h18.7v1.753H118Z" transform="translate(-110.11 -126.375)" fill="#7e829e"/>
        <path id="Path_415" data-name="Path 415" d="M206,196h7.6v1.753H206Z" transform="translate(-185.251 -167.361)" fill="#7e829e"/>
        <path id="Path_416" data-name="Path 416" d="M206,228h7.6v1.753H206Z" transform="translate(-185.251 -194.685)" fill="#7e829e"/>
        <path id="Path_417" data-name="Path 417" d="M118,292h20.457v1.753H118Z" transform="translate(-110.11 -249.334)" fill="#7e829e"/>
        <path id="Path_418" data-name="Path 418" d="M118,356h20.457v1.753H118Z" transform="translate(-110.11 -303.982)" fill="#7e829e"/>
        <path id="Path_419" data-name="Path 419" d="M206,260h7.6v1.753H206Z" transform="translate(-185.251 -222.009)" fill="#7e829e"/>
        <path id="Path_420" data-name="Path 420" d="M118,388h20.457v1.753H118Z" transform="translate(-110.11 -331.306)" fill="#7e829e"/>
        <path id="Path_421" data-name="Path 421" d="M118,420h16.365v1.753H118Z" transform="translate(-110.11 -358.63)" fill="#7e829e"/>
        <path id="Path_422" data-name="Path 422" d="M118,324h20.457v1.753H118Z" transform="translate(-110.11 -276.658)" fill="#7e829e"/>
        <path id="Path_423" data-name="Path 423" d="M280.767,191.507h-1.753V188h-5.26v3.507H272V221.85l4.383,7.306,4.384-7.306V195.6h1.753v10.813h1.753V193.845h-3.507Zm-5.26-1.753h1.753v1.753h-1.753Zm3.507,3.507v2.922h-5.26V193.26Zm-5.26,27.47V197.936h5.26V220.73Zm.672,1.753h3.917l-1.958,3.264Z" transform="translate(-241.607 -160.53)" fill="#4484f4"/>
        <path id="Path_424" data-name="Path 424" d="M123.1,196H112v11.1h11.1Zm-1.753,9.352h-7.6v-7.6h7.6Z" transform="translate(-104.986 -167.361)" fill="#4484f4"/>
      </g>
    </g>
  </g>
</svg>
