<svg xmlns="http://www.w3.org/2000/svg" width="56.404" height="72.926" viewBox="0 0 56.404 72.926">
  <g id="certification" transform="translate(-58)">
    <path id="Path_474" data-name="Path 474" d="M173.579,17.395V69.811H128V6h34.184Z" transform="translate(-60.03 -5.145)" fill="#fff"/>
    <g id="Group_43" data-name="Group 43" transform="translate(58)">
      <g id="Group_42" data-name="Group 42" transform="translate(0)">
        <path id="Path_481" data-name="Path 481" d="M102.509,0H67.116V38.781a9.962,9.962,0,0,0-5.7,17.437V72.926h2.348l4.2-4.2,4.2,4.2h2.348V65.52H114.4V11.9Zm.5,2.918,8.477,8.477h-8.477Zm-30.2,68.23L67.97,66.305l-4.843,4.843V57.424a9.941,9.941,0,0,0,9.686,0ZM67.97,56.974a8.261,8.261,0,1,1,8.261-8.261A8.271,8.271,0,0,1,67.97,56.974Zm44.724,6.837H74.522V56.218a9.962,9.962,0,0,0-5.7-17.437V1.709H101.3V13.1h11.395Z" transform="translate(-58)" fill="#7e829e"/>
        <path id="Path_482" data-name="Path 482" d="M176,64h13.674v1.709H176Z" transform="translate(-159.193 -54.884)" fill="#4484f4"/>
        <path id="Path_483" data-name="Path 483" d="M176,96h9.116v1.709H176Z" transform="translate(-159.193 -82.326)" fill="#4484f4"/>
        <path id="Path_484" data-name="Path 484" d="M176,144h31.905v1.709H176Z" transform="translate(-159.193 -123.489)" fill="#7e829e"/>
        <path id="Path_485" data-name="Path 485" d="M176,176h31.905v1.709H176Z" transform="translate(-159.193 -150.932)" fill="#7e829e"/>
        <path id="Path_486" data-name="Path 486" d="M176,240h31.905v1.709H176Z" transform="translate(-159.193 -205.816)" fill="#7e829e"/>
        <path id="Path_487" data-name="Path 487" d="M208,272H230.79v1.709H208Z" transform="translate(-186.635 -233.258)" fill="#7e829e"/>
        <path id="Path_488" data-name="Path 488" d="M176,208h31.905v1.709H176Z" transform="translate(-159.193 -178.374)" fill="#7e829e"/>
        <path id="Path_489" data-name="Path 489" d="M304,320h13.674v1.709H304Z" transform="translate(-268.961 -274.421)" fill="#4484f4"/>
        <path id="Path_490" data-name="Path 490" d="M336,352h9.116v1.709H336Z" transform="translate(-296.403 -301.863)" fill="#4484f4"/>
        <path id="Path_491" data-name="Path 491" d="M95.413,304a5.413,5.413,0,1,0,5.413,5.413A5.419,5.419,0,0,0,95.413,304Zm0,9.116a3.7,3.7,0,1,1,3.7-3.7A3.707,3.707,0,0,1,95.413,313.116Z" transform="translate(-85.442 -260.7)" fill="#4484f4"/>
      </g>
    </g>
  </g>
</svg>
