<svg xmlns="http://www.w3.org/2000/svg" width="61.265" height="73.289" viewBox="0 0 61.265 73.289">
  <g id="cloud" transform="translate(-42)">
    <path id="Path_425" data-name="Path 425" d="M189.806,17.451V70.128H144V6h34.354Z" transform="translate(-87.399 -5.141)" fill="#fff"/>
    <path id="Path_428" data-name="Path 428" d="M384,17.451V6" transform="translate(-293.045 -5.141)" fill="#95a4b6"/>
    <g id="Group_35" data-name="Group 35" transform="translate(42)">
      <g id="Group_34" data-name="Group 34" transform="translate(0)">
        <path id="Path_432" data-name="Path 432" d="M103.265,11.955,91.31,0H55.742V46.788A12.33,12.33,0,0,0,46.585,58.5,7.728,7.728,0,0,0,49.73,73.289H78.644a7.738,7.738,0,0,0,7.722-7.443h16.9ZM91.814,2.932l8.519,8.519H91.814ZM78.644,71.571H49.73a6.012,6.012,0,1,1,6.012-6.012h1.718a7.722,7.722,0,0,0-9.133-7.6,10.611,10.611,0,0,1,8.127-9.577h1.006V48.2a10.636,10.636,0,0,1,1.431-.1,10.5,10.5,0,0,1,8.018,3.67,7.737,7.737,0,0,0-4.3,6.922H64.33A6.012,6.012,0,1,1,70.342,64.7v1.718a7.74,7.74,0,0,0,7.677-6.838,6.118,6.118,0,0,1,.626-.032,6.012,6.012,0,0,1,0,12.024Zm7.595-7.443a7.741,7.741,0,0,0-7.595-6.3c-.206,0-.413.011-.618.027a7.723,7.723,0,0,0-9.4-6.7,12.212,12.212,0,0,0-9.734-4.775,12.371,12.371,0,0,0-1.431.086V1.718H90.1V13.169h11.451V64.128Z" transform="translate(-42)" fill="#7e829e"/>
        <path id="Path_433" data-name="Path 433" d="M192,64h22.9v1.718H192Z" transform="translate(-170.529 -54.839)" fill="#4484f4"/>
        <path id="Path_434" data-name="Path 434" d="M192,96h18.322v1.718H192Z" transform="translate(-170.529 -82.258)" fill="#4484f4"/>
        <path id="Path_435" data-name="Path 435" d="M267.757,178.7l1.215,1.215,3.114-3.114v11.668H273.8V176.8l3.114,3.115,1.215-1.215-5.188-5.188Z" transform="translate(-235.442 -148.678)" fill="#4484f4"/>
        <path id="Path_436" data-name="Path 436" d="M216.6,128a14.6,14.6,0,1,0,14.6,14.6A14.617,14.617,0,0,0,216.6,128Zm0,27.483A12.883,12.883,0,1,1,229.483,142.6,12.9,12.9,0,0,1,216.6,155.483Z" transform="translate(-179.097 -109.678)" fill="#7e829e"/>
      </g>
    </g>
  </g>
</svg>
