<svg xmlns="http://www.w3.org/2000/svg" width="64.686" height="77.381" viewBox="0 0 64.686 77.381">
  <g id="Group_45" data-name="Group 45" transform="translate(-64.285 -187.275)">
    <g id="search_2_" data-name="search (2)" transform="translate(22.285 187.275)">
      <path id="Path_457" data-name="Path 457" d="M192.363,18.091V73.709H144V6h36.273Z" transform="translate(-86.584 -5.093)" fill="#fff"/>
      <g id="Group_40" data-name="Group 40" transform="translate(42.907 46.805)">
        <ellipse id="Ellipse_35" data-name="Ellipse 35" cx="5" cy="4.5" rx="5" ry="4.5" transform="translate(7.809 7.92)" fill="#fff"/>
      </g>
      <g id="Group_41" data-name="Group 41" transform="translate(42)">
        <path id="Path_464" data-name="Path 464" d="M106.686,12.622,94.064,0H56.509V46.577A15.415,15.415,0,1,0,70.848,69.522h35.838ZM94.6,3.1l8.995,8.995H94.6ZM57.416,75.568a13.6,13.6,0,1,1,13.6-13.6A13.618,13.618,0,0,1,57.416,75.568Zm14.305-7.859a15.414,15.414,0,0,0-13.4-21.132V1.814H92.782V13.9h12.091v53.8Z" transform="translate(-42)" fill="#7e829e"/>
        <path id="Path_465" data-name="Path 465" d="M192,64h24.182v1.814H192Z" transform="translate(-169.33 -54.327)" fill="#7e829e"/>
        <path id="Path_466" data-name="Path 466" d="M192,96h19.345v1.814H192Z" transform="translate(-169.33 -81.491)" fill="#7e829e"/>
        <path id="Path_467" data-name="Path 467" d="M186,150.65h35.668V144H186Zm33.854-1.814H195.068v-3.023h24.786Zm-32.041-3.023h5.441v3.023h-5.441Z" transform="translate(-164.236 -122.236)" fill="#4484f4"/>
        <path id="Path_468" data-name="Path 468" d="M192,288h33.854v1.814H192Z" transform="translate(-169.33 -244.473)" fill="#7e829e"/>
        <path id="Path_469" data-name="Path 469" d="M192,256h33.854v1.814H192Z" transform="translate(-169.33 -217.309)" fill="#7e829e"/>
        <path id="Path_470" data-name="Path 470" d="M192,224h33.854v1.814H192Z" transform="translate(-169.33 -190.146)" fill="#7e829e"/>
        <path id="Path_471" data-name="Path 471" d="M240,320h26.6v1.814H240Z" transform="translate(-210.075 -271.637)" fill="#7e829e"/>
        <path id="Path_472" data-name="Path 472" d="M352,352h9.673v1.814H352Z" transform="translate(-305.148 -298.8)" fill="#7e829e"/>
        <path id="Path_473" data-name="Path 473" d="M101.486,361.743a5.752,5.752,0,1,0-2.377,4.649l5.665,5.665,1.282-1.282-5.665-5.665A5.711,5.711,0,0,0,101.486,361.743Zm-5.743,3.93a3.93,3.93,0,1,1,3.93-3.93A3.934,3.934,0,0,1,95.743,365.673Z" transform="translate(-82.745 -302.196)" fill="#4484f4"/>
      </g>
    </g>
  </g>
</svg>
