<svg xmlns="http://www.w3.org/2000/svg" width="21.29" height="19.871" viewBox="0 0 21.29 19.871">
  <g id="Loan-Real_Estate" data-name="Loan-Real Estate" transform="translate(-2 -4)">
    <path id="Path_592" data-name="Path 592" d="M21.485,21.411A1.774,1.774,0,0,0,19.387,20V13.727l.636.636A1.107,1.107,0,0,0,21.589,12.8l-2.2-2.2V6.129a.71.71,0,0,0,.71-.71V4.71a.71.71,0,0,0-.71-.71H15.839a.71.71,0,0,0-.71.71v.71a.71.71,0,0,0,.71.71v.918L13.4,4.606a1.09,1.09,0,0,0-1.505,0L3.7,12.8a1.107,1.107,0,0,0,1.566,1.566l.636-.636v7.44a1.413,1.413,0,0,0-2.484.929A1.419,1.419,0,0,0,2,23.516a.355.355,0,0,0,.355.355h20.58a.355.355,0,0,0,.355-.355,2.133,2.133,0,0,0-1.805-2.1ZM15.839,4.71h3.548v.71H15.839Zm.71,1.419h2.129V9.885L16.548,7.756ZM4.765,13.862A.4.4,0,0,1,4.2,13.3l8.192-8.192a.355.355,0,0,1,.5,0L21.088,13.3a.4.4,0,0,1,0,.563.407.407,0,0,1-.563,0L13.4,6.735a1.065,1.065,0,0,0-1.505,0Zm7.629-6.625a.355.355,0,0,1,.5,0l5.781,5.781v7.314a1.766,1.766,0,0,0-.71,1.41v.035a1.777,1.777,0,0,0-1.38,1.384H8A2.134,2.134,0,0,0,6.613,21.51V13.018ZM2.805,23.161a.706.706,0,0,1,.925-.279.355.355,0,0,0,.475-.475.7.7,0,0,1-.076-.31A.707.707,0,0,1,5.5,21.865a.355.355,0,0,0,.35.238A.182.182,0,0,0,5.9,22.1a1.423,1.423,0,0,1,1.375,1.065Zm14.513,0a1.056,1.056,0,0,1,.982-.71c.012,0,.048.005.06.006a.355.355,0,0,0,.357-.445,1.051,1.051,0,0,1-.039-.27,1.064,1.064,0,1,1,2.129,0,.355.355,0,0,0,.355.355,1.421,1.421,0,0,1,1.374,1.065Z" transform="translate(0 0)" fill="#7e829e"/>
    <path id="Path_593" data-name="Path 593" d="M22.484,32.355h3.548a2.487,2.487,0,0,0,2.484-2.484V28.1a4.258,4.258,0,0,0-2.129-3.682v-.576h-.419l.752-2a.355.355,0,0,0-.332-.479.683.683,0,0,1-.355-.131,1.343,1.343,0,0,0-.71-.224,1.084,1.084,0,0,0-.8.476c-.088.1-.2.234-.265.234s-.177-.135-.265-.234a1.084,1.084,0,0,0-.8-.476,1.344,1.344,0,0,0-.71.224.683.683,0,0,1-.355.131.355.355,0,0,0-.332.479l.752,2h-.419v.576A4.258,4.258,0,0,0,20,28.1v1.774a2.487,2.487,0,0,0,2.484,2.484ZM22.6,21.963a2.383,2.383,0,0,0,.236-.122.683.683,0,0,1,.355-.131c.061,0,.177.135.265.234a.909.909,0,0,0,1.6,0c.088-.1.2-.234.265-.234a.683.683,0,0,1,.355.131,2.382,2.382,0,0,0,.235.122l-.7,1.876h-1.9ZM20.71,28.1a3.552,3.552,0,0,1,2.2-3.282,1.422,1.422,0,0,0-.075.443v.355h.71v-.355a.71.71,0,1,1,1.419,0v.355h.71v-.355a1.422,1.422,0,0,0-.075-.443,3.552,3.552,0,0,1,2.2,3.282v1.774a1.776,1.776,0,0,1-1.774,1.774H22.484a1.776,1.776,0,0,1-1.774-1.774Z" transform="translate(-11.613 -10.968)" fill="#4484f4"/>
    <rect id="Rectangle_381" data-name="Rectangle 381" width="0.71" height="0.71" transform="translate(14.774 17.129)" fill="#4484f4"/>
    <rect id="Rectangle_382" data-name="Rectangle 382" width="0.71" height="0.71" transform="translate(9.806 17.129)" fill="#4484f4"/>
    <path id="Path_594" data-name="Path 594" d="M29.774,39.193h-.71a.355.355,0,0,1-.355-.355H28A1.064,1.064,0,0,0,29.064,39.9v.355h.71V39.9a1.065,1.065,0,0,0,0-2.129h-.71a.355.355,0,1,1,0-.71h.71a.355.355,0,0,1,.355.355h.71a1.064,1.064,0,0,0-1.064-1.064V36h-.71v.355a1.065,1.065,0,0,0,0,2.129h.71a.355.355,0,1,1,0,.71Z" transform="translate(-16.774 -20.645)" fill="#4484f4"/>
  </g>
</svg>
