<svg id="clipboard" xmlns="http://www.w3.org/2000/svg" width="16.723" height="21.285" viewBox="0 0 16.723 21.285">
  <g id="Group_827" data-name="Group 827" transform="translate(0 0)">
    <g id="Group_826" data-name="Group 826">
      <path id="Path_579" data-name="Path 579" d="M61.632,2.789H59.706V1.927c0-.279-.3-.405-.583-.405H57.628A2.266,2.266,0,0,0,55.373,0a2.306,2.306,0,0,0-2.255,1.52h-1.47c-.279,0-.557.127-.557.405v.861H49.165a2.154,2.154,0,0,0-2.128,2.052V19.36a2.039,2.039,0,0,0,2.128,1.926H61.632A2.039,2.039,0,0,0,63.76,19.36V4.841A2.154,2.154,0,0,0,61.632,2.789ZM52.1,2.536H53.5a.558.558,0,0,0,.481-.456A1.47,1.47,0,0,1,55.373.939a1.444,1.444,0,0,1,1.368,1.14.557.557,0,0,0,.507.456h1.444V4.563H52.1ZM62.747,19.36a1.028,1.028,0,0,1-1.115.912H49.165a1.028,1.028,0,0,1-1.115-.912V4.841A1.14,1.14,0,0,1,49.165,3.8h1.926V5.095a.532.532,0,0,0,.557.481h7.475a.557.557,0,0,0,.583-.481V3.8h1.926a1.14,1.14,0,0,1,1.115,1.039V19.36Z" transform="translate(-47.037 0)" fill="#7e829e"/>
      <path id="Path_580" data-name="Path 580" d="M102.543,230.444l-1.622,1.546-.684-.709a.507.507,0,0,0-.709-.025.532.532,0,0,0,0,.735l1.039,1.064a.456.456,0,0,0,.355.152.507.507,0,0,0,.355-.152l1.976-1.875.029-.029a.481.481,0,0,0-.029-.68A.507.507,0,0,0,102.543,230.444Z" transform="translate(-96.842 -219.141)" fill="#4484f4"/>
      <path id="Path_581" data-name="Path 581" d="M204.882,256.034h-5.828a.507.507,0,1,0,0,1.014h5.828a.507.507,0,1,0,0-1.014Z" transform="translate(-191.2 -243.617)" fill="#4484f4"/>
      <path id="Path_582" data-name="Path 582" d="M204.882,172.442h-5.828a.507.507,0,0,0,0,1.014h5.828a.507.507,0,0,0,0-1.014Z" transform="translate(-191.2 -164.079)" fill="#7e829e"/>
      <path id="Path_583" data-name="Path 583" d="M102.543,314.036l-1.622,1.546-.684-.71a.507.507,0,0,0-.709-.025.532.532,0,0,0,0,.735l1.039,1.064a.456.456,0,0,0,.355.152.507.507,0,0,0,.355-.152l1.976-1.875.029-.029a.481.481,0,0,0-.029-.68A.507.507,0,0,0,102.543,314.036Z" transform="translate(-96.842 -298.679)" fill="#4484f4"/>
      <path id="Path_584" data-name="Path 584" d="M204.882,339.626h-5.828a.507.507,0,1,0,0,1.014h5.828a.507.507,0,1,0,0-1.014Z" transform="translate(-191.2 -323.155)" fill="#4484f4"/>
      <path id="Path_585" data-name="Path 585" d="M97.685,146.935h3.067a.481.481,0,0,0,.455-.507v-2.736a.507.507,0,0,0-.507-.507H97.685a.507.507,0,0,0-.507.507v2.736a.494.494,0,0,0,0,.052A.481.481,0,0,0,97.685,146.935Zm.507-2.736h2v1.723h-2Z" transform="translate(-94.746 -136.241)" fill="#7e829e"/>
    </g>
  </g>
</svg>
