<svg xmlns="http://www.w3.org/2000/svg" width="41.34" height="40.651" viewBox="0 0 41.34 40.651">
  <g id="Outline" transform="translate(-16 -24)">
    <path id="Path_240" data-name="Path 240" d="M54.584,63.273V30.2h1.378a.689.689,0,0,0,.689-.689V24.689A.689.689,0,0,0,55.9,24L32.476,26.07a.689.689,0,0,0-.629.686v2.756a.689.689,0,0,0,.689.689h1.378V41.225h1.378V30.2H53.206V63.273H48.691a2.573,2.573,0,0,0,.381-1.358,2.486,2.486,0,0,0-.893-1.884c-.337-.339-.485-.505-.485-.891,0-1.712-.947-3.445-2.756-3.445s-2.756,1.733-2.756,3.445c0,.386-.149.552-.485.891a2.486,2.486,0,0,0-.893,1.884,2.574,2.574,0,0,0,.381,1.358H33.914V54.316a.689.689,0,0,0-.689-.689H29.091a.689.689,0,0,0-.689.689v8.957H26.335V51.107L34.6,47.489l8.268,3.617v3.9h1.378v-3.3l1.1.482a.689.689,0,0,0,.965-.631V48.115a.689.689,0,0,0-.413-.631L34.879,42.661a.689.689,0,0,0-.552,0L23.3,47.484a.689.689,0,0,0-.413.631V51.56a.689.689,0,0,0,.965.631l1.1-.482V63.273H20.134V51.56h1.378V50.182H17.378V35.024H32.536V33.646H28l-2.554-2.554a.689.689,0,0,0-.487-.2H19.445a.689.689,0,0,0-.689.689v2.067H16.689a.689.689,0,0,0-.689.689V50.871a.689.689,0,0,0,.689.689h2.067V63.273H16v1.378H57.34V63.273ZM33.225,27.387l22.048-1.945v3.382H33.225Zm-8.957,23.12V48.566L34.6,44.044l10.335,4.522v1.941l-.689-.3v-.023H44.2l-9.317-4.076a.689.689,0,0,0-.552,0L25.01,50.182h-.053v.023ZM20.134,32.268h4.538l1.378,1.378H20.134ZM29.78,55.005h2.756v8.268H29.78Zm13.78,8.268a1.485,1.485,0,0,1-1.378-1.358c0-.4.151-.57.493-.914a2.462,2.462,0,0,0,.885-1.862c0-1.635.9-2.067,1.378-2.067,1.09,0,1.378,1.352,1.378,2.067A2.462,2.462,0,0,0,47.2,61c.342.344.493.513.493.914a1.485,1.485,0,0,1-1.378,1.358Z" transform="translate(0 0)" fill="#7e829e"/>
    <path id="Path_241" data-name="Path 241" d="M240.689,384a.689.689,0,0,0-.689.689v3.445a.689.689,0,0,0,.689.689h4.134a.689.689,0,0,0,.689-.689v-3.445a.689.689,0,0,0-.689-.689Zm3.445,3.445h-2.756v-2.067h2.756Z" transform="translate(-204.708 -328.995)" fill="#4484f4"/>
    <rect id="Rectangle_136" data-name="Rectangle 136" width="1.649" height="1.649" transform="translate(30.074 50.922)" fill="#4484f4"/>
    <path id="Path_242" data-name="Path 242" d="M55.579,176.268v-6.89h6.2V168H48.689a.689.689,0,0,0-.689.689v11.024a.689.689,0,0,0,.689.689h2.067v-1.378H49.378v-9.646H54.2v6.89Z" transform="translate(-29.244 -131.598)" fill="#4484f4"/>
    <path id="Path_243" data-name="Path 243" d="M264.689,125.512h4.134a.689.689,0,0,0,.689-.689v-4.134a.689.689,0,0,0-.689-.689h-4.134a.689.689,0,0,0-.689.689v4.134A.689.689,0,0,0,264.689,125.512Zm.689-4.134h2.756v2.756h-2.756Z" transform="translate(-226.641 -87.732)" fill="#4484f4"/>
    <path id="Path_244" data-name="Path 244" d="M360.689,125.512h4.134a.689.689,0,0,0,.689-.689v-4.134a.689.689,0,0,0-.689-.689h-4.134a.689.689,0,0,0-.689.689v4.134A.689.689,0,0,0,360.689,125.512Zm.689-4.134h2.756v2.756h-2.756Z" transform="translate(-314.373 -87.732)" fill="#4484f4"/>
    <path id="Path_245" data-name="Path 245" d="M264,210.756h1.378v-1.378h2.756v3.445h1.378v-4.134a.689.689,0,0,0-.689-.689h-4.134a.689.689,0,0,0-.689.689Z" transform="translate(-226.641 -168.153)" fill="#4484f4"/>
    <path id="Path_246" data-name="Path 246" d="M360,212.823a.689.689,0,0,0,.689.689h4.134a.689.689,0,0,0,.689-.689v-4.134a.689.689,0,0,0-.689-.689h-4.134a.689.689,0,0,0-.689.689Zm1.378-3.445h2.756v2.756h-2.756Z" transform="translate(-314.373 -168.153)" fill="#4484f4"/>
    <path id="Path_247" data-name="Path 247" d="M384,300.134v1.378h2.756a.689.689,0,0,0,.689-.689v-4.134a.689.689,0,0,0-.689-.689H384v1.378h2.067v2.756Z" transform="translate(-336.306 -248.574)" fill="#4484f4"/>
    <rect id="Rectangle_137" data-name="Rectangle 137" width="3.298" height="3.298" transform="translate(20.18 52.571)" fill="#4484f4"/>
  </g>
</svg>
