<svg id="Group_322" data-name="Group 322" xmlns="http://www.w3.org/2000/svg" width="41.336" height="37.095" viewBox="0 0 41.336 37.095">
  <path id="Path_291" data-name="Path 291" d="M39.914,37.682H39.52l-3.7-9.96a2.246,2.246,0,0,0-2.1-1.458H7.611a2.246,2.246,0,0,0-2.1,1.458l-3.7,9.96H1.421A1.423,1.423,0,0,0,0,39.1v1.142a1.423,1.423,0,0,0,1.421,1.421h.21V54.937a.606.606,0,0,0,1.211,0V41.665h9.507a1.979,1.979,0,0,0,1.409-.583l6.91-6.91,6.91,6.91a1.979,1.979,0,0,0,1.408.583h9.507v1.605a.605.605,0,1,0,1.211,0V41.665h.21a1.423,1.423,0,0,0,1.421-1.421V39.1a1.423,1.423,0,0,0-1.421-1.421ZM6.65,28.143a1.03,1.03,0,0,1,.961-.668H33.724a1.03,1.03,0,0,1,.961.668l3.543,9.538H29.811l-7.735-7.735a1.992,1.992,0,0,0-2.817,0l-7.735,7.735H3.107Zm33.474,12.1a.21.21,0,0,1-.21.21H28.986a.776.776,0,0,1-.552-.229L21.1,32.888a.606.606,0,0,0-.856,0L12.9,40.226a.776.776,0,0,1-.552.229H1.421a.21.21,0,0,1-.21-.21V39.1a.21.21,0,0,1,.21-.21H11.775a.606.606,0,0,0,.428-.177L20.116,30.8a.781.781,0,0,1,1.1,0l7.913,7.912a.605.605,0,0,0,.428.177H39.915a.21.21,0,0,1,.21.21v1.142Z" transform="translate(0 -26.264)" fill="#7e829e"/>
  <path id="Path_292" data-name="Path 292" d="M351.206,288.761a.605.605,0,0,0,.606-.606V277.391a.605.605,0,0,0-.606-.606H343.05a.605.605,0,0,0-.605.606v10.765a.605.605,0,0,0,.605.606Zm-.606-3.821h-2.867v-2.867H350.6Zm-4.078,0h-2.867v-2.867h2.867Zm4.078,2.61h-6.944v-1.4H350.6Zm0-6.687h-2.867V278H350.6ZM346.523,278v2.867h-2.867V278Z" transform="translate(-314.798 -256.56)" fill="#4484f4"/>
  <path id="Path_293" data-name="Path 293" d="M62.3,288.761a.605.605,0,0,0,.606-.606V277.391a.605.605,0,0,0-.606-.606H54.144a.605.605,0,0,0-.606.606v10.765a.605.605,0,0,0,.606.606Zm-.605-3.821H58.827v-2.867h2.867Zm-4.078,0H54.749v-2.867h2.867Zm4.078,2.61H54.749v-1.4h6.944Zm0-6.687H58.827V278h2.867ZM57.616,278v2.867H54.749V278Z" transform="translate(-49.216 -256.56)" fill="#4484f4"/>
  <path id="Path_294" data-name="Path 294" d="M228.776,309.11h-3.915a.606.606,0,0,0-.606.606v2.61a.605.605,0,0,0,.606.606h3.915a.605.605,0,0,0,.605-.606v-2.61A.606.606,0,0,0,228.776,309.11Zm-.606,2.61h-2.7v-1.4h2.7Z" transform="translate(-206.151 -286.275)" fill="#7e829e"/>
  <path id="Path_295" data-name="Path 295" d="M222.605,177.973a3.215,3.215,0,1,0-3.215,3.215A3.219,3.219,0,0,0,222.605,177.973Zm-5.219,0a2,2,0,1,1,2,2A2.007,2.007,0,0,1,217.386,177.973Z" transform="translate(-198.722 -162.77)" fill="#4484f4"/>
  <path id="Path_296" data-name="Path 296" d="M40.73,278.377H39.7V265.106a.605.605,0,0,0-1.211,0v13.272H25.84V266.1a.605.605,0,0,0-.605-.606H16.1a.605.605,0,0,0-.606.606v12.28H2.842v-1.605a.606.606,0,0,0-1.211,0v1.605H.606a.605.605,0,0,0-.606.606v2.773a.605.605,0,0,0,.606.606H40.73a.605.605,0,0,0,.605-.606v-2.773A.605.605,0,0,0,40.73,278.377Zm-24.024-4.416h.863a.605.605,0,1,0,0-1.211h-.863V266.7h7.923v11.674H16.706Zm23.418,7.189H1.211v-1.562H40.124Z" transform="translate(0 -245.266)" fill="#7e829e"/>
</svg>
