<svg xmlns="http://www.w3.org/2000/svg" width="184" height="111" viewBox="0 0 184 111">
  <g id="Group_458" data-name="Group 458" transform="translate(-733.5 -501)">
    <g id="Group_456" data-name="Group 456">
      <g id="Group_457" data-name="Group 457">
        <circle id="Ellipse_23" data-name="Ellipse 23" cx="54.5" cy="54.5" r="54.5" transform="translate(766 501)" fill="#f8f8f8"/>
        <line id="Line_67" data-name="Line 67" x2="184" transform="translate(733.5 608.5)" fill="none" stroke="#7e829e" stroke-width="1"/>
        <path id="Path_349" data-name="Path 349" d="M144.516,97.378a1.178,1.178,0,0,1-.212-.019,1.215,1.215,0,0,1-1.005-1.2V54.5a1.217,1.217,0,0,1,1.217-1.217H172.5a1.217,1.217,0,0,1,.86.356l18.25,18.25a1.216,1.216,0,0,1,.356.86v14.6a1.216,1.216,0,0,1-1.217,1.217H149.055a.689.689,0,0,0-.663.507c-.009.035-.02.067-.031.1l-2.7,7.407A1.218,1.218,0,0,1,144.516,97.378Zm1.216-41.663V89.276l.327-.9a3.126,3.126,0,0,1,3-2.249h40.476V73.252L171.995,55.716H145.732Z" transform="translate(655.434 479.22)" fill="#7e829e"/>
        <line id="Line_69" data-name="Line 69" x2="37" transform="translate(845 611.5)" fill="none" stroke="#7e829e" stroke-width="1"/>
      </g>
      <line id="Line_68" data-name="Line 68" x2="90" transform="translate(751 611.5)" fill="none" stroke="#7e829e" stroke-width="1"/>
    </g>
    <g id="Group_438" data-name="Group 438" transform="translate(713.967 479.22)">
      <path id="Path_339" data-name="Path 339" d="M132.615,323.832H78.16a3.12,3.12,0,0,1-3.012-3.935l12.4-34.008a3.089,3.089,0,0,1,2.981-2.206h54.455c1.77,0,3.054,1.521,3.054,3.617a1.217,1.217,0,0,1-.074.417L135.6,321.625A3.089,3.089,0,0,1,132.615,323.832ZM90.528,286.116a.689.689,0,0,0-.663.507l-12.4,34.009a.653.653,0,0,0,.149.5.673.673,0,0,0,.545.27h54.455a.689.689,0,0,0,.663-.507l12.315-33.778c-.03-.333-.149-1-.611-1H90.528Z" transform="translate(-0.006 -197.551)" fill="#7e829e"/>
      <path id="Path_340" data-name="Path 340" d="M216.417,183.717H204.251a1.217,1.217,0,0,1,0-2.433h12.166a1.217,1.217,0,1,1,0,2.433Z" transform="translate(-109.751 -109.752)" fill="#4484f4"/>
      <g id="Group_436" data-name="Group 436" transform="translate(96.77 97.378)">
        <path id="Path_341" data-name="Path 341" d="M235.04,364.271l-6.078,6.078a.86.86,0,0,1-1.216-1.216l6.078-6.078a.86.86,0,0,1,1.216,1.216Z" transform="translate(-227.494 -362.77)" fill="#4484f4"/>
        <path id="Path_342" data-name="Path 342" d="M234.68,370.112l-6.078-6.078a.86.86,0,0,1,1.215-1.216L235.9,368.9a.86.86,0,0,1-1.216,1.216Z" transform="translate(-228.228 -362.566)" fill="#4484f4"/>
      </g>
      <g id="Group_437" data-name="Group 437" transform="translate(120.956 97.378)">
        <path id="Path_343" data-name="Path 343" d="M404.674,364.271,398.6,370.35a.86.86,0,0,1-1.216-1.216l6.078-6.078a.86.86,0,0,1,1.216,1.216Z" transform="translate(-397.129 -362.77)" fill="#4484f4"/>
        <path id="Path_344" data-name="Path 344" d="M404.313,370.112l-6.078-6.078a.86.86,0,0,1,1.216-1.216l6.078,6.078a.86.86,0,0,1-1.216,1.216Z" transform="translate(-397.862 -362.566)" fill="#4484f4"/>
      </g>
      <path id="Path_345" data-name="Path 345" d="M216.417,123.983H204.251a1.217,1.217,0,0,1,0-2.433h12.166a1.217,1.217,0,1,1,0,2.433Z" transform="translate(-109.751 -58.535)" fill="#4484f4"/>
      <path id="Path_346" data-name="Path 346" d="M313.817,474.113h-8.284a.828.828,0,1,1,0-1.657h8.284a.828.828,0,1,1,0,1.657Z" transform="translate(-196.926 -359.411)" fill="#4484f4"/>
      <path id="Path_347" data-name="Path 347" d="M233.45,243.45h-29.2a1.217,1.217,0,0,1,0-2.433h29.2a1.217,1.217,0,0,1,0,2.433Z" transform="translate(-109.751 -160.969)" fill="#4484f4"/>
      <path id="Path_348" data-name="Path 348" d="M358.682,75.2h-17.9a1.217,1.217,0,0,1-1.217-1.217v-17.9a1.361,1.361,0,0,1,2.325-.962l17.754,17.753a1.362,1.362,0,0,1-.963,2.325ZM342,72.768h14.1L342,58.673Z" transform="translate(-226.817 -1.236)" fill="#7e829e"/>
      <path id="Path_350" data-name="Path 350" d="M476.083,220.265h-7.3a1.217,1.217,0,0,1-1.217-1.217V208.1a1.217,1.217,0,0,1,1.217-1.217h5.192a3.328,3.328,0,0,1,3.324,3.324v8.842a1.216,1.216,0,0,1-1.217,1.217ZM470,217.832h4.866v-7.625a.892.892,0,0,0-.891-.891H470Z" transform="translate(-336.568 -131.701)" fill="#7e829e"/>
      <path id="Path_351" data-name="Path 351" d="M76.5,203.687c-.029,0-.058,0-.088,0l-.214-.011a1.216,1.216,0,0,1-1.166-1.215V150.473a3.328,3.328,0,0,1,3.324-3.324h7.625a1.216,1.216,0,0,1,1.217,1.217v28.242a1.217,1.217,0,0,1-.074.419L77.642,202.89A1.218,1.218,0,0,1,76.5,203.687Zm1.857-54.1a.892.892,0,0,0-.891.891V196.3l7.3-19.909V149.582Z" transform="translate(0 -80.484)" fill="#7e829e"/>
    </g>
  </g>
</svg>
