<svg xmlns="http://www.w3.org/2000/svg" width="173.228" height="184.927" viewBox="0 0 173.228 184.927">
  <g id="Group_16810" data-name="Group 16810" transform="matrix(0.875, -0.485, 0.485, 0.875, -239.911, -84.627)">
    <path id="Path_11253" data-name="Path 11253" d="M185.813,276.543a32.225,32.225,0,1,1,64.45,0v15.2h14.427v-15.2a46.652,46.652,0,1,0-93.3,0v15.2h14.427Zm0,0" transform="translate(-24.513 0)" fill="#dbdbdb"/>
    <path id="Path_11254" data-name="Path 11254" d="M255.359,409.859H136.918A5.916,5.916,0,0,0,131,415.777v68.352a5.916,5.916,0,0,0,5.918,5.919H255.359a5.916,5.916,0,0,0,5.918-5.919V415.777a5.916,5.916,0,0,0-5.918-5.918ZM200.577,474.29a4.438,4.438,0,0,1-8.877,0V473.9a4.438,4.438,0,1,1,8.877,0Zm.606-21.334a.844.844,0,0,0-.606.784v3.93a4.438,4.438,0,0,1-8.877,0v-3.93a9.706,9.706,0,0,1,6.726-9.224,7.351,7.351,0,1,0-9.638-6.987,4.439,4.439,0,0,1-8.878,0,16.23,16.23,0,1,1,21.274,15.426Zm0,0" transform="translate(0 -109.237)" fill="#4484f4" opacity="0.3"/>
  </g>
</svg>
