<svg xmlns="http://www.w3.org/2000/svg" width="304.36" height="275.059" viewBox="0 0 304.36 275.059">
  <g id="Group_16744" data-name="Group 16744" transform="translate(67.009 -532.956)">
    <g id="Group_16709" data-name="Group 16709" transform="translate(-75.802 593.682) rotate(-16)">
      <path id="Path_11218" data-name="Path 11218" d="M146.306,0,0,13.375c8.839,5.461,22.519,16.406,30.753,38.58,16.212,43.656-1.8,84.319,17.684,113.683C53.621,173.45,64.8,187.6,82.068,191.068l139.725-19.05c-45.753-13.265-58.163-38.345-60.55-59.728-2.395-21.459,4.419-47.125-3.743-81.663A131.191,131.191,0,0,0,146.306,0Z" transform="translate(0 31.903)" fill="#4484f4" opacity="0.3"/>
      <path id="Path_11219" data-name="Path 11219" d="M0,8.093,128.889,0c5.784,4.9,13.908,13.614,19.2,28.685,12.183,34.686-2.008,68.991,2.092,102.706,2.615,21.5,13.4,48.436,52.039,66.44l-138.4,18.111c-9.532-3.652-22.237-11.241-29.589-28.9-7.794-18.723-2.337-31.389-5.022-90.242C27.318,55.38,23.6,39.044,15.859,25.948A59.39,59.39,0,0,0,0,8.093Z" transform="translate(17.262 0)" fill="#d8dee8"/>
      <path id="Path_11220" data-name="Path 11220" d="M0,8.093,128.889,0c5.784,4.9,13.908,13.614,19.2,28.685,12.183,34.686-2.008,68.991,2.092,102.706,2.615,21.5,13.4,48.436,52.039,66.44l-138.4,18.111c-9.532-3.652-22.237-11.241-29.589-28.9-7.794-18.723-2.337-31.389-5.022-90.242C27.318,55.38,23.6,39.044,15.859,25.948A59.389,59.389,0,0,0,0,8.093Z" transform="translate(18.086 0)" fill="#fff"/>
      <g id="Group_16708" data-name="Group 16708" transform="translate(39.262 9.764)">
        <path id="Path_11221" data-name="Path 11221" d="M101.864.542q.041.509.087,1.019a.589.589,0,0,1-.521.639L.654,13.268A.587.587,0,0,1,0,12.68q0-.513.009-1.034a.592.592,0,0,1,.525-.584L101.213,0A.588.588,0,0,1,101.864.542Z" transform="translate(17.797 117.915)" fill="#d8dee8"/>
        <path id="Path_11222" data-name="Path 11222" d="M101.432.592q0,.514,0,1.029a.589.589,0,0,1-.526.589L.656,12.886A.587.587,0,0,1,0,12.3q0-.513,0-1.033a.591.591,0,0,1,.527-.591L100.781,0A.589.589,0,0,1,101.432.592Z" transform="translate(17.826 107.018)" fill="#d8dee8"/>
        <path id="Path_11223" data-name="Path 11223" d="M103.441.48q.1.5.2,1.005a.588.588,0,0,1-.51.7L.656,13.774A.589.589,0,0,1,0,13.181q.006-.512.013-1.035a.591.591,0,0,1,.523-.58L102.8,0A.588.588,0,0,1,103.441.48Z" transform="translate(17.66 128.713)" fill="#d8dee8"/>
        <path id="Path_11224" data-name="Path 11224" d="M0,5.956,46.469,0A.588.588,0,0,1,47,.219a3,3,0,0,0,.906.74.59.59,0,0,1-.19,1.111L2.112,7.91Q1.056,6.934,0,5.956Z" transform="translate(104.34 179.916)" fill="#d8dee8"/>
        <path id="Path_11225" data-name="Path 11225" d="M.516,6.722,53,0q1.02.987,2.053,1.961L2.273,8.722a.594.594,0,0,1-.339-.056Q1.1,8.259.3,7.823A.59.59,0,0,1,.516,6.722Z" transform="translate(39.838 187.346)" fill="#d8dee8"/>
        <path id="Path_11226" data-name="Path 11226" d="M101.952.625q-.032.519-.062,1.04a.587.587,0,0,1-.526.551L.67,12.594a.587.587,0,0,1-.649-.573q-.01-.512-.02-1.03a.591.591,0,0,1,.528-.6L101.306,0A.587.587,0,0,1,101.952.625Z" transform="translate(17.683 96.061)" fill="#d8dee8"/>
        <path id="Path_11227" data-name="Path 11227" d="M111.944.265q.314.477.634.949a.589.589,0,0,1-.414.917L1.1,15.716a.59.59,0,0,1-.608-.337q-.225-.491-.442-.991a.59.59,0,0,1,.467-.823L111.382,0A.586.586,0,0,1,111.944.265Z" transform="translate(21.612 160.176)" fill="#d8dee8"/>
        <path id="Path_11228" data-name="Path 11228" d="M109.411.338q.229.487.464.972a.588.588,0,0,1-.458.843L.829,15.109a.589.589,0,0,1-.651-.48Q.087,14.118.007,13.6a.589.589,0,0,1,.514-.673L108.81,0A.587.587,0,0,1,109.411.338Z" transform="translate(18.429 149.881)" fill="#d8dee8"/>
        <path id="Path_11229" data-name="Path 11229" d="M106.133.412q.157.5.32.99a.588.588,0,0,1-.49.771L.676,14.41a.589.589,0,0,1-.657-.571Q.008,13.328,0,12.8a.591.591,0,0,1,.522-.6L105.505,0A.588.588,0,0,1,106.133.412Z" transform="translate(17.632 139.379)" fill="#d8dee8"/>
        <path id="Path_11230" data-name="Path 11230" d="M103.138.643q-.049.521-.1,1.042a.589.589,0,0,1-.528.532L.682,12.356a.588.588,0,0,1-.647-.566Q.018,11.279,0,10.762a.591.591,0,0,1,.53-.608L102.494,0A.588.588,0,0,1,103.138.643Z" transform="translate(17.376 85.082)" fill="#d8dee8"/>
        <path id="Path_11231" data-name="Path 11231" d="M107.516,0a.59.59,0,0,1,.6.382q.186.5.366,1.012l0,.007a.588.588,0,0,1-.513.777L.92,10.334A.59.59,0,0,1,.308,9.9Q.168,9.4.024,8.9a.587.587,0,0,1,.52-.75Z" transform="translate(9.959 20.503)" fill="#d8dee8"/>
        <path id="Path_11232" data-name="Path 11232" d="M108.555.469q.107.511.206,1.023a.59.59,0,0,1-.533.7L.825,10.822A.59.59,0,0,1,.2,10.338Q.106,9.829.01,9.327a.587.587,0,0,1,.531-.7L107.929,0A.592.592,0,0,1,108.555.469Z" transform="translate(12.54 30.992)" fill="#d8dee8"/>
        <path id="Path_11233" data-name="Path 11233" d="M112.908,11.755,7.006,19.805a.588.588,0,0,1-.583-.353,71.25,71.25,0,0,0-4.007-7.841Q1.3,9.729.1,7.944a.59.59,0,0,1,.447-.919L104.763,0a.594.594,0,0,1,.462.175,53.762,53.762,0,0,1,8.15,10.7A.59.59,0,0,1,112.908,11.755Z" transform="translate(0 0)" fill="#d8dee8"/>
        <path id="Path_11234" data-name="Path 11234" d="M104.673.646q-.05.521-.1,1.043a.591.591,0,0,1-.531.531L.694,12.133a.591.591,0,0,1-.645-.561Q.025,11.057,0,10.546a.588.588,0,0,1,.532-.614L104.029,0A.589.589,0,0,1,104.673.646Z" transform="translate(16.913 74.115)" fill="#d8dee8"/>
        <path id="Path_11235" data-name="Path 11235" d="M106.233.63q-.036.519-.075,1.039a.592.592,0,0,1-.535.546L.708,11.89a.591.591,0,0,1-.642-.552Q.034,10.823,0,10.313A.588.588,0,0,1,.535,9.69L105.589,0A.591.591,0,0,1,106.233.63Z" transform="translate(16.292 63.196)" fill="#d8dee8"/>
        <path id="Path_11236" data-name="Path 11236" d="M107.543.595q-.006.518-.015,1.038a.59.59,0,0,1-.538.577L.731,11.6a.59.59,0,0,1-.639-.538Q.048,10.548,0,10.041A.588.588,0,0,1,.537,9.4L106.9,0A.59.59,0,0,1,107.543.595Z" transform="translate(15.447 52.352)" fill="#d8dee8"/>
        <path id="Path_11237" data-name="Path 11237" d="M108.367.541q.042.515.079,1.031a.59.59,0,0,1-.54.63L.767,11.247a.591.591,0,0,1-.634-.517Q.07,10.217,0,9.713a.588.588,0,0,1,.535-.66L107.729,0A.59.59,0,0,1,108.367.541Z" transform="translate(14.26 41.612)" fill="#d8dee8"/>
      </g>
      <path id="Path_11238" data-name="Path 11238" d="M50.935,27.592,32.328,16.067C26.143,12.2,19.939,8.354,13.877,4.327c-1.5-1.012-3.028-2.032-4.426-3.121C9.28,1.069,9.111.93,8.96.794c-.075-.067-.146-.136-.2-.2A.8.8,0,0,1,8.7.534c-.009-.011.008.008.008.015a.277.277,0,0,1,.029.068A.529.529,0,0,1,8.767.8a.623.623,0,0,1-.329.539.777.777,0,0,1-.1.04c-.016.005-.044.008-.04.008s-.013,0,0,0a.246.246,0,0,1,.037,0,2.061,2.061,0,0,1,.253.035c.19.035.4.088.6.146a17.6,17.6,0,0,1,2.45.937,19.16,19.16,0,0,1,4.436,2.807,9.229,9.229,0,0,1,2.893,4.057A6.154,6.154,0,0,1,18.5,14.09a25.681,25.681,0,0,1-3.011,4.344,24.453,24.453,0,0,0-1.65,2.3A7.746,7.746,0,0,0,12.7,23.582a5.1,5.1,0,0,0,.02,1.653,4.919,4.919,0,0,0,.219.8,4.854,4.854,0,0,0,.328.743,7.635,7.635,0,0,0,2,2.338,15.65,15.65,0,0,0,5.154,2.625A24.551,24.551,0,0,0,26,32.787a24.249,24.249,0,0,0,11.166-1.721,22.156,22.156,0,0,0,4.9-2.925,24.254,24.254,0,0,0,4.059-3.992,17,17,0,0,0,1.621-2.406,9.027,9.027,0,0,0,1.06-2.876,4.344,4.344,0,0,0-.052-1.758,2.705,2.705,0,0,0-.156-.462l-.1-.228c-.04-.079-.1-.165-.149-.245a2.369,2.369,0,0,0-.842-.764,3.907,3.907,0,0,0-1.762-.433,9.177,9.177,0,0,0-1.517.075,42.747,42.747,0,0,0-5.461,1.174c-1.764.481-3.517.963-5.278,1.408s-3.529.855-5.311,1.213c-1.784.339-3.579.633-5.382.853a95.206,95.206,0,0,1-10.872.705,84.71,84.71,0,0,1-10.865-.583h0A.947.947,0,1,0,.835,21.7c.037,0,.074.006.11.007,3.682.012,7.352-.024,11.014-.2,1.83-.1,3.66-.191,5.485-.359.913-.07,1.824-.161,2.736-.244.91-.1,1.822-.189,2.729-.31,3.634-.442,7.271-.925,10.884-1.573,1.805-.323,3.6-.685,5.39-1.04.892-.181,1.779-.373,2.662-.538s1.758-.337,2.605-.422a8.589,8.589,0,0,1,1.214-.051,2.055,2.055,0,0,1,.878.18c.232.047.441.7.308,1.412a7.13,7.13,0,0,1-.835,2.229,15.015,15.015,0,0,1-1.431,2.129,22.268,22.268,0,0,1-3.72,3.671A20.2,20.2,0,0,1,36.4,29.268a22.788,22.788,0,0,1-10.266,1.615,22.688,22.688,0,0,1-5.161-.921A13.873,13.873,0,0,1,16.406,27.7a4.263,4.263,0,0,1-1.957-3.863,6.053,6.053,0,0,1,.879-2.2,24.232,24.232,0,0,1,1.516-2.158,27,27,0,0,0,3.14-4.683,8.63,8.63,0,0,0,.827-2.885,7.26,7.26,0,0,0-.344-3.022,9.041,9.041,0,0,0-1.4-2.627,13,13,0,0,0-2.008-2.092A20.619,20.619,0,0,0,12.236,1.2,18.94,18.94,0,0,0,9.566.221C9.33.157,9.094.1,8.835.054A3.452,3.452,0,0,0,8.409,0c-.039,0-.082,0-.133,0a1.355,1.355,0,0,0-.17.012.923.923,0,0,0-.124.025A.771.771,0,0,0,7.8.106.754.754,0,0,0,7.53.334a.78.78,0,0,0-.152.44.9.9,0,0,0,.042.269,1.271,1.271,0,0,0,.062.147,1.409,1.409,0,0,0,.1.158,2.067,2.067,0,0,0,.166.2c.1.107.2.194.292.278.189.167.376.315.563.461,1.5,1.136,3.021,2.125,4.555,3.131,3.069,1.992,6.171,3.917,9.28,5.833s6.227,3.811,9.358,5.688c6.262,3.75,12.523,7.5,18.838,11.158a.293.293,0,0,0,.3-.5Z" transform="translate(135.661 167.501)" fill="#a7a7a7"/>
    </g>
    <g id="Group_16707" data-name="Group 16707" transform="translate(237.601 636.764) rotate(95)">
      <path id="Path_11212" data-name="Path 11212" d="M4.383,3.931,4.82,4.965,3.8,4.494,0,.562.581,0Z" transform="translate(85.512 88.367)" fill="#263238"/>
      <path id="Rectangle_681" data-name="Rectangle 681" d="M1.379,0H2.615A1.379,1.379,0,0,1,3.994,1.379v10.4a0,0,0,0,1,0,0H0a0,0,0,0,1,0,0V1.379A1.379,1.379,0,0,1,1.379,0Z" transform="translate(0 2.776) rotate(-44.034)" fill="#263238"/>
      <path id="Rectangle_682" data-name="Rectangle 682" d="M1.379,0H2.615A1.379,1.379,0,0,1,3.994,1.379v10.4a0,0,0,0,1,0,0H0a0,0,0,0,1,0,0V1.379A1.379,1.379,0,0,1,1.379,0Z" transform="translate(0 2.776) rotate(-44.034)" fill="#fff" opacity="0.1" style="isolation: isolate"/>
      <path id="Path_11213" data-name="Path 11213" d="M4.484.527.572,4.31a1.877,1.877,0,0,0-.091,2.6Q35.107,45.372,72.46,81.266h0S77.9,85.672,83.177,86.8l.967-.935c-.95-5.315-5.17-10.9-5.17-10.9h0Q44.4,36.466,7.089.524A1.876,1.876,0,0,0,4.484.527Z" transform="translate(5.231 5.51)" fill="#7e829e"/>
      <path id="Path_11214" data-name="Path 11214" d="M6.765.179.17,6.555a.559.559,0,0,0-.014.79L.8,8.008,7.5,1.525C17.63,11.058,25.261,19.778,25.261,19.778L25,20.487l2.387,1.451C25.392,17.445,10.422,2.859,7.648.178A.634.634,0,0,0,6.765.179Z" transform="translate(4.71 2.196)" fill="#263238"/>
      <path id="Path_11215" data-name="Path 11215" d="M.249,8.466Q11.082,19.4,22.1,30.085a.863.863,0,0,0,1.2,0l6.253-6.045a.863.863,0,0,0,.041-1.2Q19.314,11.471,8.726.27A.864.864,0,0,0,7.5.242l-7.236,7A.863.863,0,0,0,.249,8.466Z" transform="translate(51.716 53.666)" fill="#263238"/>
      <path id="Path_11216" data-name="Path 11216" d="M6.765.179.17,6.555a.559.559,0,0,0-.014.79L.8,8.008,7.5,1.525C17.63,11.058,25.261,19.778,25.261,19.778L25,20.487l2.387,1.451C25.392,17.445,10.422,2.859,7.648.178A.634.634,0,0,0,6.765.179Z" transform="translate(4.71 2.196)" fill="#fff" opacity="0.6" style="isolation: isolate"/>
      <path id="Path_11217" data-name="Path 11217" d="M.249,8.466Q11.082,19.4,22.1,30.085a.863.863,0,0,0,1.2,0l6.253-6.045a.863.863,0,0,0,.041-1.2Q19.314,11.471,8.726.27A.864.864,0,0,0,7.5.242l-7.236,7A.863.863,0,0,0,.249,8.466Z" transform="translate(51.716 53.666)" fill="#4e4e4e" opacity="0.1" style="isolation: isolate"/>
    </g>
  </g>
</svg>
