<svg xmlns="http://www.w3.org/2000/svg" width="20.54" height="22.496" viewBox="0 0 20.54 22.496">
  <g id="Group_16268" data-name="Group 16268" transform="translate(-1651 -106)">
    <path id="Subtraction_8" data-name="Subtraction 8" d="M6.85,13.693H0V0H13.7V6.846h-.006A6.786,6.786,0,0,0,9.617,8.194,9.445,9.445,0,0,0,6.85,7.718c-1.982,0-5.87,1.056-5.87,3.5v1.5H6.919a7.14,7.14,0,0,0-.069.976ZM6.85.977A2.935,2.935,0,1,0,9.78,3.912,2.938,2.938,0,0,0,6.85.977Z" transform="translate(1652.954 109.913)" fill="#4484f4" opacity="0.3"/>
    <path id="Subtraction_7" data-name="Subtraction 7" d="M9.088,19.561H1.958A1.959,1.959,0,0,1,0,17.607V3.912a2.065,2.065,0,0,1,.334-1.1,1.955,1.955,0,0,1,1.624-.861h.977V0H4.893V1.954h7.824V0h1.955V1.954h.977a1.966,1.966,0,0,1,.762.158,2.209,2.209,0,0,1,.335.177,1.921,1.921,0,0,1,.526.526,2.172,2.172,0,0,1,.176.334,1.992,1.992,0,0,1,.158.763v7.131a6.863,6.863,0,0,0-1.958-.283V3.912H1.958V17.607H8.806a6.814,6.814,0,0,0,.283,1.953Zm-.212-2.935H2.935v-1.5c0-2.445,3.887-3.5,5.871-3.5a9.427,9.427,0,0,1,2.775.479,6.86,6.86,0,0,0-1.56,1.609,6.186,6.186,0,0,0-1.215-.133,6.87,6.87,0,0,0-3.612,1.1h4.27a6.75,6.75,0,0,0-.588,1.953Zm-.07-5.866a2.935,2.935,0,1,1,2.931-2.935A2.939,2.939,0,0,1,8.806,10.76Zm0-3.912a.977.977,0,1,0,.977.977A.98.98,0,0,0,8.806,6.847Z" transform="translate(1651 106)" fill="#4484f4"/>
    <path id="Path_10804" data-name="Path 10804" d="M16.891,12a4.891,4.891,0,1,0,4.891,4.891A4.892,4.892,0,0,0,16.891,12Zm2.934,5.38H17.38v2.445H16.4V17.38H13.956V16.4H16.4V13.956h.978V16.4h2.445Z" transform="translate(1649.759 106.715)" fill="#4484f4"/>
  </g>
</svg>
