<svg xmlns="http://www.w3.org/2000/svg" width="12.74" height="14" viewBox="0 0 12.74 14">
  <path id="Subtraction_12" data-name="Subtraction 12" d="M-5627.624-1214h-6.523a1.859,1.859,0,0,1-1.853-1.853v-10.3a1.856,1.856,0,0,1,1.853-1.852h9.036a1.854,1.854,0,0,1,1.852,1.852v7.784h-2.505a1.863,1.863,0,0,0-1.858,1.86v2.5Zm.894-8.666a1.992,1.992,0,0,0-.708.116,1.455,1.455,0,0,0-.53.332,1.44,1.44,0,0,0-.33.529,2.045,2.045,0,0,0-.112.689,1.983,1.983,0,0,0,.115.692,1.494,1.494,0,0,0,.331.528,1.424,1.424,0,0,0,.521.331,1.927,1.927,0,0,0,.677.115,2.282,2.282,0,0,0,.588-.072,2.59,2.59,0,0,0,.563-.23.812.812,0,0,0,.166-.115.3.3,0,0,0,.089-.133.674.674,0,0,0,.024-.2v-.617a.438.438,0,0,0-.058-.252.265.265,0,0,0-.153-.108.978.978,0,0,0-.23-.024h-.741a.308.308,0,0,0-.212.071.232.232,0,0,0-.078.178.2.2,0,0,0,.094.187.552.552,0,0,0,.275.055h.507v.522a2.218,2.218,0,0,1-.4.17,1.49,1.49,0,0,1-.426.059.9.9,0,0,1-.726-.306,1.311,1.311,0,0,1-.262-.873,1.6,1.6,0,0,1,.068-.477,1.006,1.006,0,0,1,.194-.364.829.829,0,0,1,.3-.226.98.98,0,0,1,.4-.078.833.833,0,0,1,.361.066.669.669,0,0,1,.225.161,2.636,2.636,0,0,1,.205.286.315.315,0,0,0,.109.093.3.3,0,0,0,.134.032.307.307,0,0,0,.219-.086.281.281,0,0,0,.09-.211.556.556,0,0,0-.079-.262.975.975,0,0,0-.235-.279,1.256,1.256,0,0,0-.406-.218A1.765,1.765,0,0,0-5626.73-1222.666Zm-4.136.055a.453.453,0,0,0-.314.092.4.4,0,0,0-.1.308v2.482a.423.423,0,0,0,.09.294.3.3,0,0,0,.238.1.3.3,0,0,0,.232-.1.427.427,0,0,0,.093-.3v-.912h.6a1.38,1.38,0,0,0,.9-.253.921.921,0,0,0,.3-.745,1.1,1.1,0,0,0-.075-.416.819.819,0,0,0-.219-.313.844.844,0,0,0-.341-.182,2.269,2.269,0,0,0-.572-.057Zm-2.954,1.933a.3.3,0,0,0-.219.082.306.306,0,0,0-.085.235,1.062,1.062,0,0,0,.044.306,1.2,1.2,0,0,0,.113.283.788.788,0,0,0,.354.334,1.257,1.257,0,0,0,.546.1,1.206,1.206,0,0,0,.615-.148.847.847,0,0,0,.362-.413,1.216,1.216,0,0,0,.085-.312,3.388,3.388,0,0,0,.018-.373v-1.687a.435.435,0,0,0-.089-.3.312.312,0,0,0-.241-.1.3.3,0,0,0-.236.1.442.442,0,0,0-.086.3v1.782c0,.422-.146.635-.433.635a.378.378,0,0,1-.251-.074.4.4,0,0,1-.125-.173,2.075,2.075,0,0,1-.075-.27.53.53,0,0,0-.1-.233A.255.255,0,0,0-5633.819-1220.677Zm6.963,6.454v-2.281a1.1,1.1,0,0,1,1.09-1.092h2.29l-3.379,3.372Zm-3.331-6.914h-.438v-.984h.438a.846.846,0,0,1,.579.143.488.488,0,0,1,.125.348.472.472,0,0,1-.081.287.454.454,0,0,1-.236.158A1.3,1.3,0,0,1-5630.187-1221.137Z" transform="translate(5636 1228)" fill="#a7a7a7"/>
</svg>
