<svg xmlns="http://www.w3.org/2000/svg" width="27.91" height="33.388" viewBox="0 0 27.91 33.388">
  <g id="Group_16222" data-name="Group 16222" transform="translate(0)">
    <path id="Union_13" data-name="Union 13" d="M0,26.448a6.333,6.333,0,0,1,6.332-6.333h.035V0H22.2l5.139,5.273V29.194H12.04A6.334,6.334,0,0,1,0,26.448Z" transform="translate(0.235 0.455)" fill="#a7a7a7" opacity="0.3"/>
    <g id="paper" transform="translate(0)">
      <g id="Group_1003" data-name="Group 1003">
        <g id="Group_1002" data-name="Group 1002">
          <path id="Path_535" data-name="Path 535" d="M69.91,5.446,64.464,0H48.26V20.1A6.651,6.651,0,1,0,54.447,30H69.91Zm-5.217-4.11,3.881,3.881H64.693ZM48.651,32.605a5.869,5.869,0,1,1,5.869-5.869A5.876,5.876,0,0,1,48.651,32.605Zm6.172-3.391A6.651,6.651,0,0,0,49.043,20.1V.783H63.911V6h5.217V29.214Z" transform="translate(-42)" fill="#a7a7a7"/>
          <path id="Path_536" data-name="Path 536" d="M192,64h6.26v.783H192Z" transform="translate(-182.219 -59.827)" fill="#a7a7a7"/>
          <path id="Path_537" data-name="Path 537" d="M192,96h4.173v.783H192Z" transform="translate(-182.219 -89.74)" fill="#a7a7a7"/>
          <path id="Path_538" data-name="Path 538" d="M192,144h14.607v.783H192Z" transform="translate(-182.219 -134.61)" fill="#a7a7a7"/>
          <path id="Path_539" data-name="Path 539" d="M192,176h14.607v.783H192Z" transform="translate(-182.219 -164.523)" fill="#a7a7a7"/>
          <path id="Path_540" data-name="Path 540" d="M192,240h14.607v.783H192Z" transform="translate(-182.219 -224.35)" fill="#a7a7a7"/>
          <path id="Path_541" data-name="Path 541" d="M192,272h10.434v.783H192Z" transform="translate(-182.219 -254.263)" fill="#a7a7a7"/>
          <path id="Path_542" data-name="Path 542" d="M192,208h14.607v.783H192Z" transform="translate(-182.219 -194.436)" fill="#a7a7a7"/>
          <path id="Path_543" data-name="Path 543" d="M336,320h5.217v.783H336Z" transform="translate(-316.828 -299.133)" fill="#a7a7a7"/>
          <path id="Path_544" data-name="Path 544" d="M4.727,3.407l-.553-.553L2.755,4.272V0H1.972V4.272L.553,2.853,0,3.407,2.363,5.77Z" transform="translate(9.015 29.462) rotate(180)" fill="#a7a7a7"/>
        </g>
      </g>
    </g>
  </g>
</svg>
