<svg xmlns="http://www.w3.org/2000/svg" width="20" height="20" viewBox="0 0 20 20">
  <g id="Group_18941" data-name="Group 18941" transform="translate(-28 -772)">
    <rect id="Rectangle_1164" data-name="Rectangle 1164" width="20" height="20" transform="translate(28 772)" fill="none"/>
    <path id="Subtraction_28" data-name="Subtraction 28" d="M-12298.669,18137.668H-12309a2,2,0,0,1-2-2v-5.162a2,2,0,0,1,2-2h10.333a2,2,0,0,1,2,2v5.162A2.007,2.007,0,0,1-12298.669,18137.668Zm-6.163-7.666h0v3h2v-3Z" transform="translate(12341.833 -17349)" fill="rgba(126,130,158,0.3)"/>
    <path id="Subtraction_29" data-name="Subtraction 29" d="M-12301.641,18093h-6.547a2.815,2.815,0,0,1-2.812-2.811v-7.08a2.82,2.82,0,0,1,2.812-2.811h.817v-.986a1.315,1.315,0,0,1,1.313-1.312h6a1.3,1.3,0,0,1,.931.391,1.326,1.326,0,0,1,.382.932v.98h.813a2.829,2.829,0,0,1,2.815,2.816v7.07a2.8,2.8,0,0,1-.471,1.553,2.043,2.043,0,0,0-1.163-.342l.006-.006.008-.006h0a1.694,1.694,0,0,0,.5-1.2v-3.934a3.567,3.567,0,0,1-2.438.959h-2.5v.469a1.315,1.315,0,0,1-1.312,1.313h-1.126a1.315,1.315,0,0,1-1.312-1.312v-.455h-2.5a3.554,3.554,0,0,1-2.443-.973v3.938a1.691,1.691,0,0,0,1.689,1.689h6.818a1.986,1.986,0,0,0-.352.822.688.688,0,0,0,.079.293Zm-1.979-7.773a.189.189,0,0,0-.19.186v2.248a.2.2,0,0,0,.19.191h1.126a.191.191,0,0,0,.187-.191v-2.248a.186.186,0,0,0-.187-.186Zm-4.568-3.793a1.689,1.689,0,0,0-1.689,1.686v.525a2.449,2.449,0,0,0,2.443,2.439h2.5v-.672a1.315,1.315,0,0,1,1.313-1.312h1.126a1.315,1.315,0,0,1,1.313,1.313v.658h2.5a2.455,2.455,0,0,0,2.438-2.443v-.508a1.689,1.689,0,0,0-1.689-1.686Zm2.13-2.307a.193.193,0,0,0-.138.063.187.187,0,0,0-.049.133v.977h6.376v-.986a.2.2,0,0,0-.186-.186Z" transform="translate(12341 -17304)" fill="#7e829e" stroke="#7e829e" stroke-width="0.25"/>
    <g id="Group_18942" data-name="Group 18942" transform="translate(-12579.114 17943.941)">
      <path id="Path_12050" data-name="Path 12050" d="M4.317,7.727l1.8-1.8a.545.545,0,0,0-.771-.771L3.16,7.342a.545.545,0,0,0,0,.771l2.182,2.182a.545.545,0,1,0,.771-.771Z" transform="translate(12616 -17163)" fill="#7e829e"/>
      <path id="Path_12051" data-name="Path 12051" d="M11.273,9H8.545a.545.545,0,1,0,0,1.091h2.727a.546.546,0,0,1,.545.545.545.545,0,0,0,1.091,0A1.638,1.638,0,0,0,11.273,9Z" transform="translate(12612.091 -17164.818)" fill="#7e829e"/>
    </g>
  </g>
</svg>
