<svg xmlns="http://www.w3.org/2000/svg" width="10.988" height="10.988" viewBox="0 0 10.988 10.988">
  <g id="Group_16902" data-name="Group 16902" transform="translate(-380.002 -541.756)">
    <path id="Path_10723" data-name="Path 10723" d="M8.4,4a4.4,4.4,0,1,0,4.4,4.4A4.4,4.4,0,0,0,8.4,4ZM7.3,11.142l-2.2-2.2.775-.775L7.3,9.588l3.621-3.621.775.78Z" transform="translate(377.101 538.855)" fill="#00ad46" opacity="0.3"/>
    <path id="Path_10724" data-name="Path 10724" d="M7.494,2a5.494,5.494,0,1,0,5.494,5.494A5.5,5.5,0,0,0,7.494,2Zm0,9.889a4.4,4.4,0,1,1,4.4-4.4A4.4,4.4,0,0,1,7.494,11.889Zm2.522-6.824L6.4,8.686,4.972,7.269,4.2,8.044l2.2,2.2,4.4-4.4Z" transform="translate(378.002 539.756)" fill="#00ad46"/>
  </g>
</svg>
