<svg xmlns="http://www.w3.org/2000/svg" width="16.782" height="18.865" viewBox="0 0 16.782 18.865">
  <g id="documents" transform="translate(1.712 0.615)">
    <path id="Path_11396" data-name="Path 11396" d="M45.238,2.109h-.527V1.217A1.584,1.584,0,0,0,43.129-.365H32.12a1.584,1.584,0,0,0-1.582,1.582V14.309a1.584,1.584,0,0,0,1.582,1.582h.989v.527A1.584,1.584,0,0,0,34.691,18H45.238a1.584,1.584,0,0,0,1.582-1.582V3.691A1.584,1.584,0,0,0,45.238,2.109ZM33.573,4.064a1.571,1.571,0,0,0-.463,1.119v9.653H32.12a.528.528,0,0,1-.527-.527V1.217A.528.528,0,0,1,32.12.69H43.129a.528.528,0,0,1,.527.527v.892H36.183a1.572,1.572,0,0,0-1.119.463Zm2.7-.9V5.273H34.164v-.09a.524.524,0,0,1,.154-.373L35.81,3.319a.524.524,0,0,1,.373-.154Zm9.492,13.254a.528.528,0,0,1-.527.527H34.691a.528.528,0,0,1-.527-.527V6.328H36.8a.527.527,0,0,0,.527-.527V3.164h7.91a.528.528,0,0,1,.527.527Z" transform="translate(-32)" fill="#4484f4" stroke="#4484f4" stroke-width="0.5"/>
    <path id="Path_11397" data-name="Path 11397" d="M157.363,212h-5.989a.5.5,0,0,0,0,.962h5.989a.5.5,0,0,0,0-.962Z" transform="translate(-146.32 -203.701)" fill="#4484f4" stroke="#4484f4" stroke-width="0.5"/>
    <path id="Path_11398" data-name="Path 11398" d="M157.363,272h-5.989a.5.5,0,0,0,0,.962h5.989a.5.5,0,0,0,0-.962Z" transform="translate(-146.32 -260.964)" fill="#4484f4" stroke="#4484f4" stroke-width="0.5"/>
    <path id="Path_11400" data-name="Path 11400" d="M157.363,392h-5.989a.5.5,0,0,0,0,.962h5.989a.5.5,0,0,0,0-.962Z" transform="translate(-146.32 -378.226)" fill="#4484f4" stroke="#4484f4" stroke-width="0.5"/>
  </g>
</svg>
