<svg id="Group_17901" data-name="Group 17901" xmlns="http://www.w3.org/2000/svg" width="16.145" height="16" viewBox="0 0 16.145 16">
  <path id="Exclusion_6" data-name="Exclusion 6" d="M0,15.284H0V10.975L.15,2.822,3.914,0,8.125,2.724l.089,6.487-.3,5.689Zm2.816-3.442L3.006,14.8l2.2.169V12.011ZM2.7,3.422v4.8H5.1v-4.8Z" transform="translate(0.5 0.515)" fill="#4484f4" opacity="0.3"/>
  <path id="Path_1028" data-name="Path 1028" d="M12.109,9.1,9.081,11.261V5.417L4.541,2.3,0,5.417V18.3H16.145V11.982ZM5.045,17.287H4.036V15.269H5.045Zm3.027,0H6.054V14.26H3.027v3.027H1.009V5.948L4.541,3.52,8.072,5.948V17.287Zm5.045,0H11.1V15.532h2.018Zm2.018-2.018v2.018H14.127V14.523H10.09v2.764H9.081V12.5l3.027-2.162L15.136,12.5v2.767Z" transform="translate(0 -2.296)" fill="#4484f4"/>
  <path id="Path_1029" data-name="Path 1029" d="M96,130.749h3.027V125.7H96Zm.859-4.147h1.309v1.309H96.859Zm0,1.947h1.309v1.309H96.859Z" transform="translate(-92.973 -121.813)" fill="#4484f4"/>
</svg>
