<svg xmlns="http://www.w3.org/2000/svg" width="24" height="24" viewBox="0 0 24 24">
  <g id="pending-actions" transform="translate(-35 -699)">
    <rect id="Rectangle_1065" data-name="Rectangle 1065" width="24" height="24" transform="translate(35 699)" fill="none"/>
    <g id="Group_17564" data-name="Group 17564" transform="translate(-5 533.11)">
      <path id="Path_11474" data-name="Path 11474" d="M58.875,167.53a1.642,1.642,0,0,0-1.641-1.64H43.641A1.642,1.642,0,0,0,42,167.53V185.39a1.643,1.643,0,0,0,1.641,1.641h7.647a6.369,6.369,0,1,0,7.587-9.531ZM43.641,185.624a.235.235,0,0,1-.235-.235V167.53a.234.234,0,0,1,.235-.234H57.234a.234.234,0,0,1,.235.234c.016.422,0,9.563,0,9.766-3.25-.281-4.647,1.169-4.862,1.343-.175-.066,3.314-.046-4.279-.046a.7.7,0,0,0,0,1.406h3.023a6.313,6.313,0,0,0-.722,1.406h-2.3a.7.7,0,0,0,0,1.406h1.967a6.32,6.32,0,0,0,.3,2.812Zm12.938,2.859a4.922,4.922,0,1,1,4.922-4.922,4.927,4.927,0,0,1-4.922,4.922Zm0,0" fill="#7e829e"/>
      <path id="Path_11475" data-name="Path 11475" d="M62.468,182.284H69.5a.7.7,0,1,0,0-1.406H62.468a.7.7,0,0,0,0,1.406Zm0,0" transform="translate(-14.14 -10.722)" fill="#7e829e"/>
      <path id="Path_11476" data-name="Path 11476" d="M62.468,192.166H69.5a.7.7,0,0,0,0-1.406H62.468a.7.7,0,0,0,0,1.406Zm0,0" transform="translate(-14.14 -17.792)" fill="#7e829e"/>
      <path id="Path_11477" data-name="Path 11477" d="M62.468,202.049H69.5a.7.7,0,1,0,0-1.406H62.468a.7.7,0,0,0,0,1.406Zm0,0" transform="translate(-14.14 -24.862)" fill="#7e829e"/>
      <path id="Path_11478" data-name="Path 11478" d="M53.288,181.581a.7.7,0,1,1-.7-.7.7.7,0,0,1,.7.7Zm0,0" transform="translate(-7.07 -10.722)" fill="#7e829e"/>
      <path id="Path_11479" data-name="Path 11479" d="M53.288,191.463a.7.7,0,1,1-.7-.7.7.7,0,0,1,.7.7Zm0,0" transform="translate(-7.07 -17.792)" fill="#7e829e"/>
      <path id="Path_11480" data-name="Path 11480" d="M53.288,201.346a.7.7,0,1,1-.7-.7.7.7,0,0,1,.7.7Zm0,0" transform="translate(-7.07 -24.862)" fill="#7e829e"/>
      <path id="Path_11481" data-name="Path 11481" d="M53.288,211.228a.7.7,0,1,1-.7-.7.7.7,0,0,1,.7.7Zm0,0" transform="translate(-7.07 -31.932)" fill="#7e829e"/>
      <path id="Path_11482" data-name="Path 11482" d="M53.288,221.11a.7.7,0,1,1-.7-.7.7.7,0,0,1,.7.7Zm0,0" transform="translate(-7.07 -39.001)" fill="#7e829e"/>
      <path id="Path_11483" data-name="Path 11483" d="M96.695,215.466a.7.7,0,0,0-.7.7v2.109H94.585a.7.7,0,1,0,0,1.406h2.109a.7.7,0,0,0,.7-.7v-2.812a.7.7,0,0,0-.7-.7Zm0,0" transform="translate(-39.577 -34.763)" fill="#7e829e"/>
      <path id="Path_11484" data-name="Path 11484" d="M10639.286,700.286h14.571v10.286s-8.149,1.857-6.436,8.714c-.143.286-8.136,0-8.136,0Z" transform="translate(-10596 -533.11)" fill="#7e829e" opacity="0.3"/>
    </g>
  </g>
</svg>
