<svg id="add_circle-24px" xmlns="http://www.w3.org/2000/svg" width="25" height="25" viewBox="0 0 25 25">
  <path id="Path_10787" data-name="Path 10787" d="M0,0H25V25H0Z" fill="none"/>
  <path id="Path_10788" data-name="Path 10788" d="M12.333,4a8.333,8.333,0,1,0,8.333,8.333A8.344,8.344,0,0,0,12.333,4Zm5.208,9.375H13.375v4.167H11.292V13.375H7.125V11.292h4.167V7.125h2.083v4.167h4.167Z" transform="translate(0.167 0.167)" fill="#4484f4" opacity="0.3"/>
  <path id="Path_10789" data-name="Path 10789" d="M13.458,7.208H11.375v4.167H7.208v2.083h4.167v4.167h2.083V13.458h4.167V11.375H13.458ZM12.417,2A10.417,10.417,0,1,0,22.833,12.417,10.42,10.42,0,0,0,12.417,2Zm0,18.75a8.333,8.333,0,1,1,8.333-8.333A8.344,8.344,0,0,1,12.417,20.75Z" transform="translate(0.083 0.083)" fill="#4484f4"/>
</svg>
