<svg id="Group_17098" data-name="Group 17098" xmlns="http://www.w3.org/2000/svg" width="22.594" height="24" viewBox="0 0 22.594 24">
  <g id="Group_17097" data-name="Group 17097">
    <path id="Path_10797" data-name="Path 10797" d="M17.54,12a5.406,5.406,0,1,0,5.54,5.4A5.476,5.476,0,0,0,17.54,12Zm3.324,5.945h-2.77v2.7H16.986v-2.7h-2.77V16.864h2.77v-2.7h1.108v2.7h2.77Z" transform="translate(-0.486 1.19)" fill="#7e829e"/>
    <path id="Subtraction_6" data-name="Subtraction 6" d="M7.59,15.657H0V0H2V2.937H12.037V0h2.008V7.4A7.576,7.576,0,0,0,9.4,9.826,7.2,7.2,0,0,0,7.59,15.656Z" transform="translate(2.007 3.915)" fill="#7e829e" opacity="0.3"/>
    <path id="Subtraction_5" data-name="Subtraction 5" d="M10.153,21.53H2.008A1.985,1.985,0,0,1,0,19.574V3.915A1.985,1.985,0,0,1,2.008,1.959H6.2a3.023,3.023,0,0,1,5.659,0h4.195a1.983,1.983,0,0,1,2,1.955V11.32a7.785,7.785,0,0,0-2,0V3.915h-2V6.852H4.013V3.915h-2V19.574H9.6a7.124,7.124,0,0,0,.558,1.954ZM9.028,1.959a.978.978,0,1,0,0,1.955.994.994,0,0,0,1.006-.978A.994.994,0,0,0,9.028,1.959Z" fill="#7e829e"/>
  </g>
  <g id="Group_16267" data-name="Group 16267" transform="translate(4.013 8.809)">
    <path id="Path_10800" data-name="Path 10800" d="M7,11H17.031v1.957H7Zm0,3.915h6.019v1.957H7Z" transform="translate(-7 -11)" fill="#7e829e"/>
  </g>
</svg>
