<svg id="Group_17477" data-name="Group 17477" xmlns="http://www.w3.org/2000/svg" width="24" height="24" viewBox="0 0 24 24">
  <path id="Path_11458" data-name="Path 11458" d="M0,24H24V0H0Z" transform="translate(24 24) rotate(180)" fill="none"/>
  <g id="Group_4144" data-name="Group 4144" transform="translate(2 5)">
    <path id="Path_893" data-name="Path 893" d="M18.638,80.609H1.8A1.8,1.8,0,0,0,0,82.4V92.813a1.8,1.8,0,0,0,1.8,1.8H18.638a1.8,1.8,0,0,0,1.8-1.8V82.4A1.8,1.8,0,0,0,18.638,80.609Zm-5.3,6.97,5.895-4.908V91.5Zm4.822-5.573L10.93,88.03a1.113,1.113,0,0,1-1.425,0L2.27,82.006l-.24-.2H18.4ZM1.2,82.671l5.895,4.908L1.2,91.5ZM18.638,93.412H1.8a.6.6,0,0,1-.587-.479l6.843-4.554.687.572a2.311,2.311,0,0,0,2.957,0l.687-.572,6.842,4.554A.6.6,0,0,1,18.638,93.412Z" transform="translate(0 -80.609)" fill="#4484f4"/>
    <path id="Path_1748" data-name="Path 1748" d="M-11236.681-14362.4l7.991,6.508,1.364.381,1.221-.838,7.669-6.4.383,7.791v3.96l-.383.394-.819.419h-16.962l-.674-.419-.422-.64v-11.151Z" transform="translate(11237.902 14363.819)" fill="#4484f4" opacity="0.3"/>
  </g>
</svg>
