<svg xmlns="http://www.w3.org/2000/svg" width="24" height="18.352" viewBox="0 0 24 18.352">
  <g id="Group_17010" data-name="Group 17010" transform="translate(0 0)">
    <path id="Path_11392" data-name="Path 11392" d="M10112.75,1148.25v12.344h19.5V1148.25Z" transform="translate(-10110.725 -1143.106)" fill="#ff5652" opacity="0.3"/>
    <g id="Group_17009" data-name="Group 17009">
      <path id="Path_11390" data-name="Path 11390" d="M128.3,274.89H105.7a.7.7,0,0,0-.7.7v4.236a.7.7,0,0,0,.7.7h.709v12.006a.7.7,0,0,0,.7.7h19.769a.7.7,0,0,0,.7-.7V280.533h.709a.7.7,0,0,0,.7-.7v-4.236a.7.7,0,0,0-.7-.7Zm-2.115,16.945H107.818v-11.3h18.363Zm1.412-12.709H106.406V276.3h21.187Zm0,0" transform="translate(-105 -274.89)" fill="#ff5652"/>
      <path id="Path_11391" data-name="Path 11391" d="M242.677,392.089H245.5a2.115,2.115,0,1,0,0-4.23h-2.824a2.115,2.115,0,1,0,0,4.23Zm0-2.824H245.5a.709.709,0,1,1,0,1.418h-2.824a.709.709,0,1,1,0-1.418Zm0,0" transform="translate(-232.089 -380.798)" fill="#ff5652"/>
    </g>
  </g>
</svg>
