<svg xmlns="http://www.w3.org/2000/svg" width="20.096" height="18.755" viewBox="0 0 20.096 18.755">
  <g id="Group_17794" data-name="Group 17794" transform="translate(-275 -251)">
    <ellipse id="Ellipse_88" data-name="Ellipse 88" cx="7.171" cy="6.658" rx="7.171" ry="6.658" transform="translate(275.294 251)" fill="#4484f4" opacity="0.31"/>
    <path id="Path_11329" data-name="Path 11329" d="M162.009,98.679h1.34a.67.67,0,0,0,0-1.34h-.67v-.67a.67.67,0,0,0-1.34,0v.793a2,2,0,0,0,.67,3.9.67.67,0,0,1,0,1.34h-1.34a.67.67,0,0,0,0,1.34h.67v.67a.67.67,0,0,0,1.34,0v-.793a2,2,0,0,0-.67-3.9.67.67,0,1,1,0-1.34Z" transform="translate(120.36 157.679)" fill="#4484f4"/>
    <path id="Path_11330" data-name="Path 11330" d="M42.741,44.374a.67.67,0,0,0,.756,1.107A7.372,7.372,0,1,0,32,39.368a7.313,7.313,0,0,0,4.111,6.6.682.682,0,0,0,.295.068.67.67,0,0,0,.3-1.271,6.026,6.026,0,1,1,8.694-5.4A6.059,6.059,0,0,1,42.741,44.374Z" transform="translate(243.001 219)" fill="#4484f4"/>
    <path id="Path_11331" data-name="Path 11331" d="M51.393,288H47.374a.67.67,0,0,0,0,1.34h2.332l-4.445,3.888L40.3,290.749a.668.668,0,0,0-.62.012l-7.368,4.019a.67.67,0,0,0,.322,1.258.66.66,0,0,0,.32-.083l7.061-3.85,5.045,2.523a.674.674,0,0,0,.741-.1l4.918-4.3v2.46a.67.67,0,1,0,1.34,0V288.67A.67.67,0,0,0,51.393,288Z" transform="translate(243.034 -26.283)" fill="#4484f4"/>
  </g>
</svg>
