<svg xmlns="http://www.w3.org/2000/svg" width="19.38" height="17.828" viewBox="0 0 19.38 17.828">
  <path id="Path_11935" data-name="Path 11935" d="M12.3,288.953l-7.614,7.614v2.363H8.733l1.809,3.615,1.061,1.081v3.156h1.384v-5.641h4.153v5.641h2.769V296.566Zm3.461.287v1.217l4.153,4.153V289.24Zm-5.537,5.537H11.6v1.384H10.219Zm2.769,0h1.384v1.384H12.988ZM2.871,300.314l-1.526,2.88-.815.815V305.9H1.913v.884H3.3V305.9H7.451v.884H8.835V305.9h1.384v-1.888l-.815-.815-1.526-2.88Zm.854,1.384h3.3l.692,1.213H3.033Z" transform="translate(-0.529 -288.953)" fill="#4484f4" opacity="0.5"/>
</svg>
