<svg id="email" xmlns="http://www.w3.org/2000/svg" width="24" height="24" viewBox="0 0 24 24">
  <rect id="Rectangle_1072" data-name="Rectangle 1072" width="24" height="24" fill="none"/>
  <g id="Group_4144" data-name="Group 4144" transform="translate(2 5)">
    <path id="Path_893" data-name="Path 893" d="M16.722,80.609H2.708A1.71,1.71,0,0,0,1,82.317v9.9a1.71,1.71,0,0,0,1.708,1.708H16.722a1.71,1.71,0,0,0,1.708-1.708v-9.9A1.71,1.71,0,0,0,16.722,80.609Zm-4.036,6.628,4.6-4.667v8.4Zm3.585-5.3-5.879,5.728a1.059,1.059,0,0,1-1.355,0L3.159,81.937l-.228-.19H16.5Zm-14.133.632,4.6,4.667-4.6,3.73ZM16.722,92.782H2.708a.57.57,0,0,1-.558-.456L7.656,88l.653.544a2.2,2.2,0,0,0,2.812,0L11.774,88l5.506,4.33A.57.57,0,0,1,16.722,92.782Z" transform="translate(0 -80.609)" fill="#4484f4"/>
    <path id="Path_1748" data-name="Path 1748" d="M-11235.712-14362.414l6.6,6.188,1.3.362,1.161-.8,6.292-6.09.364,7.408v3.766l-.364.374-.779.4h-14.128l-.641-.4-.4-.608v-10.6Z" transform="translate(11237.873 14363.767)" fill="#4484f4" opacity="0.3"/>
  </g>
</svg>
