<svg xmlns="http://www.w3.org/2000/svg" width="18" height="17.999" viewBox="0 0 18 17.999">
  <g id="Group_17968" data-name="Group 17968" transform="translate(0)">
    <path id="Path_11687" data-name="Path 11687" d="M452.678,642.2a1.12,1.12,0,0,1,.781.32,1.16,1.16,0,0,1,.333.794,1.038,1.038,0,0,1-.046.316,1.125,1.125,0,0,1-.272.465,1.085,1.085,0,0,1-.36.237,1.052,1.052,0,0,1-.434.1,1.312,1.312,0,0,1-.305-.042,1.125,1.125,0,0,1-.474-.276,1.107,1.107,0,0,1-.333-.794,1.148,1.148,0,0,1,.313-.772,1.127,1.127,0,0,1,.8-.344.921.921,0,0,1,.651,1.57,1,1,0,0,1-.651.268.09.09,0,0,0-.022,0l.245-.033a.214.214,0,0,0-.059.017l.219-.092a.218.218,0,0,0-.035.02l.186-.143a.235.235,0,0,0-.042.042l.143-.186a.21.21,0,0,0-.02.035c.031-.074.063-.147.092-.219a.359.359,0,0,0-.016.059l.033-.245a.164.164,0,0,0,0,.042l-.033-.245a.217.217,0,0,0,.016.059c-.031-.074-.062-.147-.092-.219a.215.215,0,0,0,.02.035l-.143-.186a.229.229,0,0,0,.042.042l-.186-.143a.214.214,0,0,0,.035.02l-.219-.092a.348.348,0,0,0,.059.017l-.245-.033a.164.164,0,0,0,.042,0l-.245.033a.216.216,0,0,0,.059-.017l-.219.092a.214.214,0,0,0,.035-.02l-.186.143a.231.231,0,0,0,.042-.042l-.143.186a.215.215,0,0,0,.02-.035c-.031.074-.062.147-.092.219a.354.354,0,0,0,.017-.059l-.033.245a.164.164,0,0,0,0-.042l.033.245a.214.214,0,0,0-.017-.059c.031.074.063.147.092.219a.21.21,0,0,0-.02-.035l.143.186a.235.235,0,0,0-.042-.042l.186.143a.218.218,0,0,0-.035-.02l.219.092a.348.348,0,0,0-.059-.017l.245.033-.022,0a.957.957,0,0,1-.651-.268.923.923,0,0,1,0-1.3A.974.974,0,0,1,452.678,642.2Z" transform="translate(-443.679 -637.826)" fill="#7e829e"/>
    <path id="Path_11688" data-name="Path 11688" d="M462,247.414v-4.832a.957.957,0,0,1,.268-.651.923.923,0,0,1,1.3,0,.954.954,0,0,1,.268.651v4.832a.957.957,0,0,1-.268.651.923.923,0,0,1-1.3,0,.962.962,0,0,1-.268-.651Z" transform="translate(-453.92 -234.366)" fill="#7e829e"/>
    <path id="Path_11689" data-name="Path 11689" d="M38.731,31.434a8.424,8.424,0,0,0-.074-1.1l.033.245a8.1,8.1,0,0,0-.553-2.03c.031.074.063.147.092.219a8.11,8.11,0,0,0-1.048-1.8l.143.186a8.213,8.213,0,0,0-1.478-1.478l.186.143a8.182,8.182,0,0,0-1.8-1.048l.219.092a8.1,8.1,0,0,0-2.03-.553l.245.033a8.294,8.294,0,0,0-2.2,0l.245-.033a8.1,8.1,0,0,0-2.03.553l.219-.092a8.11,8.11,0,0,0-1.8,1.048l.186-.143a8.213,8.213,0,0,0-1.478,1.478l.143-.186a8.182,8.182,0,0,0-1.048,1.8c.031-.074.063-.147.092-.219a8.1,8.1,0,0,0-.553,2.03l.033-.245a8.294,8.294,0,0,0,0,2.2l-.033-.245A8.1,8.1,0,0,0,25,34.319c-.031-.074-.063-.147-.092-.219a8.11,8.11,0,0,0,1.048,1.8l-.143-.186a8.213,8.213,0,0,0,1.478,1.478l-.186-.143A8.182,8.182,0,0,0,28.9,38.1L28.684,38a8.1,8.1,0,0,0,2.03.553l-.245-.033a8.294,8.294,0,0,0,2.2,0l-.245.033A8.1,8.1,0,0,0,34.453,38l-.219.092a8.109,8.109,0,0,0,1.8-1.048l-.186.143a8.214,8.214,0,0,0,1.478-1.478l-.143.186a8.182,8.182,0,0,0,1.048-1.8c-.031.074-.063.147-.092.219a8.1,8.1,0,0,0,.553-2.03l-.033.245a8.811,8.811,0,0,0,.074-1.1A.957.957,0,0,1,39,30.784a.923.923,0,0,1,1.3,0,.945.945,0,0,1,.268.651,8.936,8.936,0,0,1-1.62,5.148,9.794,9.794,0,0,1-.914,1.112,9.636,9.636,0,0,1-1.074.938,8.979,8.979,0,0,1-12.285-1.412,8.626,8.626,0,0,1-1.471-2.468,8.81,8.81,0,0,1-.612-2.686,9,9,0,0,1,.235-2.788,8.869,8.869,0,0,1,1.035-2.5,9.014,9.014,0,0,1,3.922-3.51,8.56,8.56,0,0,1,2.835-.781,8.94,8.94,0,0,1,2.8.138,8.792,8.792,0,0,1,2.539.951,9.03,9.03,0,0,1,3.641,3.8,8.814,8.814,0,0,1,.84,2.578,9.748,9.748,0,0,1,.127,1.48.957.957,0,0,1-.268.651.923.923,0,0,1-1.3,0A.976.976,0,0,1,38.731,31.434Z" transform="translate(-22.57 -22.437)" fill="#7e829e"/>
  </g>
</svg>
