<svg xmlns="http://www.w3.org/2000/svg" width="14" height="12.998" viewBox="0 0 14 12.998">
  <g id="Group_17768" data-name="Group 17768" transform="translate(-4728.994 182)">
    <path id="Path_11634" data-name="Path 11634" d="M23.128,18.339c-.025.066-.064.066-.076.066h-1.08a.576.576,0,0,0-.583.569v5.692h-10.5V18.974A.576.576,0,0,0,10.3,18.4H9.223c-.012,0-.05,0-.075-.066a.113.113,0,0,1,.036-.134l6.342-5.826a.91.91,0,0,1,1.225,0l6.36,5.841A.1.1,0,0,1,23.128,18.339Z" transform="translate(4719.855 -193.668)" fill="rgba(68,132,244,0.3)"/>
    <path id="Path_11632" data-name="Path 11632" d="M43,47.5V47H41.75a.751.751,0,0,1-.75-.75v-1a.751.751,0,0,1,.75-.75H42V44h1v.5h.5a.5.5,0,0,1,0,1H42V46h1.25a.751.751,0,0,1,.75.75v1a.751.751,0,0,1-.75.75H43V49H42v-.5h-.5a.5.5,0,1,1,0-1Z" transform="translate(4693.494 -220.501)" fill="#4484f4"/>
    <path id="Path_11633" data-name="Path 11633" d="M21.639,16.6,16.2,11.48a1.767,1.767,0,0,0-2.42,0l-1.289,1.214V11.5a.5.5,0,0,0-.5-.5h-2a.5.5,0,0,0-.5.5v4.018L8.363,16.583a1.083,1.083,0,0,0-.3,1.209,1.067,1.067,0,0,0,1,.707h.427v5a.5.5,0,0,0,.5.5h10a.5.5,0,0,0,.5-.5v-5h.426a1.1,1.1,0,0,0,.72-1.9ZM10.495,12h1v1.635l-1,.941Zm10.49,5.442c-.021.058-.054.058-.065.058h-.926a.5.5,0,0,0-.5.5v5h-9V18a.5.5,0,0,0-.5-.5H9.068c-.011,0-.043,0-.065-.058a.1.1,0,0,1,.03-.117l5.435-5.117a.766.766,0,0,1,1.049,0l5.45,5.13A.093.093,0,0,1,20.984,17.442Z" transform="translate(4721 -193)" fill="#4484f4"/>
  </g>
</svg>
