<svg xmlns="http://www.w3.org/2000/svg" width="24" height="24" viewBox="0 0 24 24">
  <g id="application" transform="translate(-35 -699)">
    <rect id="Rectangle_1065" data-name="Rectangle 1065" width="24" height="24" transform="translate(35 699)" fill="none"/>
    <path id="Path_11484" data-name="Path 11484" d="M10639.286,700.286h14.571v8.826s-8.67-2.576-6.436,7.478c-.143.245-8.136,0-8.136,0Z" transform="translate(-10601 2.714)" fill="#7e829e" opacity="0.3"/>
    <path id="Path_11474" data-name="Path 11474" d="M58.875,170.53a1.642,1.642,0,0,0-1.641-1.64H43.641A1.642,1.642,0,0,0,42,170.53V185.39a1.643,1.643,0,0,0,1.641,1.641h7.647a6.369,6.369,0,1,0,7.587-9.531ZM43.641,185.624a.235.235,0,0,1-.235-.235V170.53a.234.234,0,0,1,.235-.234H57.234a.234.234,0,0,1,.235.234c.016.422,0,6.563,0,6.766-3.25-.281-4.647,1.169-4.862,1.343-.175-.066,1.314-.046-6.279-.046a.7.7,0,0,0,0,1.406h5.023a6.313,6.313,0,0,0-.722,1.406h-4.3a.7.7,0,0,0,0,1.406h3.967a6.32,6.32,0,0,0,.3,2.812Zm12.938,2.859a4.922,4.922,0,1,1,4.922-4.922,4.927,4.927,0,0,1-4.922,4.922Zm0,0" transform="translate(-5 533.11)" fill="#7e829e"/>
    <path id="Path_11476" data-name="Path 11476" d="M62.635,192.166h8.7a.719.719,0,1,0,0-1.406h-8.7a.719.719,0,1,0,0,1.406Zm0,0" transform="translate(-21.14 515.318)" fill="#7e829e"/>
    <path id="Path_11477" data-name="Path 11477" d="M62.635,202.049h8.7a.719.719,0,1,0,0-1.406h-8.7a.719.719,0,1,0,0,1.406Zm0,0" transform="translate(-21.14 508.248)" fill="#7e829e"/>
    <path id="Subtraction_14" data-name="Subtraction 14" d="M-6529-848.11a3,3,0,0,1-3-3,3,3,0,0,1,3-3,3,3,0,0,1,3,3A3,3,0,0,1-6529-848.11Zm0-4a1,1,0,0,0-1,1,1,1,0,0,0,1,1,1,1,0,0,0,1-1A1,1,0,0,0-6529-852.11Z" transform="translate(6575 1553.11)" fill="#7e829e"/>
    <path id="Path_11816" data-name="Path 11816" d="M3.325-.035H2.119V-1.816H.328V-3.041H2.119V-4.832H3.325v1.791h1.8v1.225h-1.8Z" transform="translate(49 719.348)" fill="#7e829e"/>
    <rect id="Rectangle_1069" data-name="Rectangle 1069" width="10" height="2" transform="translate(41 703)" fill="#7e829e"/>
  </g>
</svg>
