<svg xmlns="http://www.w3.org/2000/svg" width="14.286" height="18.755" viewBox="0 0 14.286 18.755">
  <g id="Group_17793" data-name="Group 17793" transform="translate(-142 -251)">
    <g id="Group_16911" data-name="Group 16911" transform="translate(-9917.041 -699.258)">
      <path id="Path_11352" data-name="Path 11352" d="M10063.34,957.895s5.355-2.211,8.166,3.79c-.267.158,4.015,8.842-5.222,8.842-.669.158-9.1.789-5.487-8.842C10060.529,961.842,10063.34,957.895,10063.34,957.895Z" transform="translate(0.1 -1.641)" fill="#4484f4" opacity="0.3"/>
      <g id="Group_16907" data-name="Group 16907" transform="translate(10059.041 950.258)">
        <path id="Path_11350" data-name="Path 11350" d="M211.978,230.791a.632.632,0,0,1-.246-1.214.865.865,0,0,1,.929.281.632.632,0,1,0,.879-.908,2.482,2.482,0,0,0-.931-.582v-.736a.632.632,0,1,0-1.264,0v.74c-.036.013-.072.026-.107.041a1.9,1.9,0,0,0,.739,3.642.632.632,0,0,1,.216,1.226.971.971,0,0,1-1.037-.44.632.632,0,0,0-.968.813,2.626,2.626,0,0,0,1.156.826v.735a.632.632,0,1,0,1.264,0v-.74l.017-.006a1.9,1.9,0,0,0-.649-3.677Z" transform="translate(-204.831 -220.251)" fill="#4484f4"/>
        <path id="Path_11351" data-name="Path 11351" d="M73.232,8.251a7.791,7.791,0,0,0-2.219-1.9A1.651,1.651,0,0,0,70.2,3.691l1.4-2.446a.55.55,0,0,0-.323-.8,11.27,11.27,0,0,0-6.267,0,.55.55,0,0,0-.323.8l1.4,2.446a1.651,1.651,0,0,0-.815,2.656,7.791,7.791,0,0,0-2.219,1.9A9.011,9.011,0,0,0,61,13.81c0,4,3.189,4.945,7.143,4.945s7.143-.951,7.143-4.945A9.012,9.012,0,0,0,73.232,8.251ZM66,1.327a10.2,10.2,0,0,1,4.286,0l-1.21,2.11a6.74,6.74,0,0,0-1.866,0Zm.359,3.431a5.681,5.681,0,0,1,2.9-.177h0a5.8,5.8,0,0,1,.667.176.55.55,0,0,1-.112,1.069,5.53,5.53,0,0,0-3.339,0,.549.549,0,0,1-.116-1.067Zm1.784,12.905c-4.293,0-6.044-1.122-6.044-3.854a8.007,8.007,0,0,1,1.808-4.865,5.078,5.078,0,0,1,8.472,0,8.007,8.007,0,0,1,1.808,4.865C74.187,16.542,72.436,17.663,68.143,17.663Z" transform="translate(-61)" fill="#4484f4"/>
      </g>
    </g>
  </g>
</svg>
