<svg xmlns="http://www.w3.org/2000/svg" width="20" height="20" viewBox="0 0 20 20">
  <g id="Group_18709" data-name="Group 18709" transform="translate(-5353.2 -1070)" opacity="0.6">
    <path id="Path_11949" data-name="Path 11949" d="M0,0H20V20H0Z" transform="translate(5353.2 1070)" fill="none"/>
    <path id="Path" d="M7.2,26a2.5,2.5,0,0,0,2.5,2.5H18.7A2.5,2.5,0,0,0,21.2,26V20.915a.715.715,0,0,0-1.43,0V26A1.073,1.073,0,0,1,18.7,27.07H9.7A1.073,1.073,0,0,1,8.63,26V17A1.073,1.073,0,0,1,9.7,15.93h5.082a.715.715,0,1,0,0-1.43H9.7A2.5,2.5,0,0,0,7.2,17Z" transform="translate(5349 1058.5)" fill="#7e829e"/>
    <path id="Compound_Path" data-name="Compound Path" d="M41.269,7.834h0a2.01,2.01,0,0,0-2.824,0l-6.5,6.5a.693.693,0,0,0-.173.312L31.22,16.6a1.04,1.04,0,0,0,1,1.317l.277-.035,1.975-.554a.693.693,0,0,0,.312-.173l6.48-6.5A2.01,2.01,0,0,0,41.269,7.834Z" transform="translate(5328.018 1065.746)" fill="#7e829e"/>
    <path id="Compound_Path-2" data-name="Compound Path" d="M36.808,5.563h0a.812.812,0,0,0-1.141,0l-6.158,6.1a.28.28,0,0,0-.07.126l-.5,1.111a.42.42,0,0,0,.406.532l.112-.014,1.12-.5a.28.28,0,0,0,.126-.07l6.151-6.1A.87.87,0,0,0,36.808,5.563Z" transform="translate(5331.341 1069.065)" fill="#fff" opacity="0.5"/>
  </g>
</svg>
