<svg id="Group_1003" data-name="Group 1003" xmlns="http://www.w3.org/2000/svg" width="35.07" height="41.953" viewBox="0 0 35.07 41.953">
  <g id="Group_1002" data-name="Group 1002" transform="translate(0)">
    <path id="Path_535" data-name="Path 535" d="M77.07,6.843,70.227,0H49.866V25.252a8.358,8.358,0,1,0,7.774,12.44H77.07ZM70.515,1.679l4.877,4.877H70.515ZM50.358,40.97A7.375,7.375,0,1,1,57.732,33.6,7.383,7.383,0,0,1,50.358,40.97Zm7.756-4.261a8.357,8.357,0,0,0-7.264-11.457V.983H69.532V7.538h6.555V36.709Z" transform="translate(-42)" fill="#7e829e"/>
    <path id="Path_536" data-name="Path 536" d="M192,64h7.866v.983H192Z" transform="translate(-179.709 -58.756)" fill="#2c9ef5"/>
    <path id="Path_537" data-name="Path 537" d="M192,96h5.244v.983H192Z" transform="translate(-179.709 -88.134)" fill="#2c9ef5"/>
    <path id="Path_538" data-name="Path 538" d="M192,144h18.354v.983H192Z" transform="translate(-179.709 -132.201)" fill="#7e829e"/>
    <path id="Path_539" data-name="Path 539" d="M192,176h18.354v.983H192Z" transform="translate(-179.709 -161.579)" fill="#7e829e"/>
    <path id="Path_540" data-name="Path 540" d="M192,240h18.354v.983H192Z" transform="translate(-179.709 -220.334)" fill="#7e829e"/>
    <path id="Path_541" data-name="Path 541" d="M192,272h13.11v.983H192Z" transform="translate(-179.709 -249.712)" fill="#7e829e"/>
    <path id="Path_542" data-name="Path 542" d="M192,208h18.354v.983H192Z" transform="translate(-179.709 -190.957)" fill="#7e829e"/>
    <path id="Path_543" data-name="Path 543" d="M336,320h6.555v.983H336Z" transform="translate(-311.91 -293.779)" fill="#2c9ef5"/>
    <path id="Path_544" data-name="Path 544" d="M113.7,350.281l-.7-.7-1.783,1.783V346h-.983v5.368l-1.783-1.783-.7.7,2.97,2.97Z" transform="translate(119.085 383.02) rotate(180)" fill="#2c9ef5"/>
  </g>
</svg>
