<svg xmlns="http://www.w3.org/2000/svg" width="24" height="24" viewBox="0 0 24 24">
  <g id="Group_17516" data-name="Group 17516" transform="translate(-9126 -1026)">
    <g id="Group_17517" data-name="Group 17517" transform="translate(104 -27)">
      <g id="Group_17515" data-name="Group 17515" transform="translate(8981 887.11)">
        <path id="Path_11461" data-name="Path 11461" d="M61.485,169.4A12,12,0,1,0,65,177.89a11.922,11.922,0,0,0-3.515-8.485ZM47.016,186.627a6.076,6.076,0,0,1,11.968,0,10.571,10.571,0,0,1-11.968,0Zm2.169-10.243A3.816,3.816,0,1,1,53,180.2a3.82,3.82,0,0,1-3.816-3.816ZM60.2,185.651a7.494,7.494,0,0,0-4.357-4.891,5.222,5.222,0,1,0-5.691,0,7.493,7.493,0,0,0-4.357,4.891,10.594,10.594,0,1,1,14.4,0Zm0,0" transform="translate(0 0)" fill="#7e829e"/>
      </g>
      <path id="Path_11462" data-name="Path 11462" d="M9027.25,1073.188c-1.25,2.625-8.75-8.812-.875-16.687.25,0,9.625-6.625,17.125,2.375-.125.5,4.188,7.188-2.187,14.813a7.957,7.957,0,0,0-5.312-6.062c0,.25-3.937,0-3.937,0S9028.5,1070.563,9027.25,1073.188Z" fill="#7e829e" opacity="0.3"/>
    </g>
  </g>
</svg>
