<svg xmlns="http://www.w3.org/2000/svg" width="20" height="20" viewBox="0 0 20 20">
  <g id="loan-info-icn" transform="translate(-5977.451 -3704.003)">
    <rect id="Rectangle_1205" data-name="Rectangle 1205" width="20" height="20" transform="translate(5977.451 3704.003)" fill="none"/>
    <path id="Path_11934" data-name="Path 11934" d="M3.737,0H10.45a1.285,1.285,0,0,1,1.306,1.263V14.738A1.285,1.285,0,0,1,10.45,16H1.306A1.285,1.285,0,0,1,0,14.738V3.9c.149-.243,2.516.131,3.393-.754C4.136,2.391,3.384.385,3.737,0Z" transform="translate(5981.4 3706.003)" fill="#4484f4" opacity="0.3"/>
    <path id="Path_11933" data-name="Path 11933" d="M32.1,19.4A1.6,1.6,0,0,0,33.7,21h9.38a1.6,1.6,0,0,0,1.6-1.6V6.6A1.6,1.6,0,0,0,43.08,5H36c-.02,0-.04,0-.04.02h-.02c-.02,0-.04.02-.06.02h-.02c-.02.02-.04.04-.06.04l-3.6,3.6c-.02.02-.04.04-.04.06l-.02.02c0,.02-.02.04-.02.06v.02a.07.07,0,0,1-.02.04V19.4ZM35.68,6.36V7.8a.8.8,0,0,1-.8.8H33.44ZM32.9,9.4h2a1.6,1.6,0,0,0,1.6-1.6v-2h6.6a.8.8,0,0,1,.8.8V19.4h-.02a.8.8,0,0,1-.8.8H33.7a.8.8,0,0,1-.8-.8h-.02Zm9.78,8.4a.4.4,0,0,1-.4.4h-7.6a.4.4,0,1,1,0-.8h7.6A.4.4,0,0,1,42.68,17.8Zm0-2a.4.4,0,0,1-.4.4h-7.6a.4.4,0,1,1,0-.8h7.6A.4.4,0,0,1,42.68,15.8Z" transform="translate(5948.9 3701.005)" fill="#4484f4"/>
    <path id="Path_11937" data-name="Path 11937" d="M40.583,13.056a.737.737,0,0,0-.751-.751,1.751,1.751,0,0,1-.5-3.429V8.519a.5.5,0,1,1,1,0v.357a1.75,1.75,0,0,1,1.251,1.677.5.5,0,0,1-1,0,.751.751,0,1,0-1.5,0,.753.753,0,0,0,.751.751,1.751,1.751,0,0,1,.5,3.429v.348a.5.5,0,1,1-1,0v-.348a1.75,1.75,0,0,1-1.251-1.677.5.5,0,0,1,1,0,.751.751,0,1,0,1.5,0Z" transform="translate(5948.548 3700.2)" fill="#4484f4"/>
  </g>
</svg>
