<svg xmlns="http://www.w3.org/2000/svg" width="24" height="24" viewBox="0 0 24 24">
  <g id="documents" transform="translate(3 1.202)">
    <rect id="Rectangle_1068" data-name="Rectangle 1068" width="24" height="24" transform="translate(-3 -1.202)" fill="none"/>
    <path id="Path_11401" data-name="Path 11401" d="M9726.6,939.522v13.81h14.63v-17.05h-10.258l-1.514-.682Z" transform="translate(-9724.197 -932.574)" fill="#7e829e" opacity="0.3"/>
    <path id="Path_11396" data-name="Path 11396" d="M48.4,2.578h-.645V1.934A1.936,1.936,0,0,0,45.824,0H32.934A1.936,1.936,0,0,0,31,1.934V17.488a1.936,1.936,0,0,0,1.934,1.934h.645v.645A1.936,1.936,0,0,0,35.512,22H48.4a1.936,1.936,0,0,0,1.934-1.934V4.512A1.936,1.936,0,0,0,48.4,2.578ZM34.144,4.967a1.921,1.921,0,0,0-.566,1.367v11.8h-.645a.645.645,0,0,1-.645-.645V1.934a.645.645,0,0,1,.645-.645H45.824a.645.645,0,0,1,.645.645v.645H37.335a1.921,1.921,0,0,0-1.367.566Zm3.3-1.1V6.445H34.867V6.335a.64.64,0,0,1,.189-.456l1.823-1.823a.64.64,0,0,1,.456-.189Zm11.6,16.2a.645.645,0,0,1-.645.645H35.512a.645.645,0,0,1-.645-.645V7.734H38.09a.645.645,0,0,0,.645-.645V3.867H48.4a.645.645,0,0,1,.645.645Z" transform="translate(-32)" fill="#7e829e"/>
    <path id="Path_11397" data-name="Path 11397" d="M161.957,212H151.645a.645.645,0,1,0,0,1.289h10.312a.645.645,0,1,0,0-1.289Z" transform="translate(-146.844 -202.891)" fill="#7e829e"/>
    <path id="Path_11398" data-name="Path 11398" d="M161.957,272H151.645a.645.645,0,1,0,0,1.289h10.312a.645.645,0,1,0,0-1.289Z" transform="translate(-146.844 -260.313)" fill="#7e829e"/>
    <path id="Path_11399" data-name="Path 11399" d="M161.957,332H151.645a.645.645,0,1,0,0,1.289h10.312a.645.645,0,1,0,0-1.289Z" transform="translate(-146.844 -317.734)" fill="#7e829e"/>
    <path id="Path_11400" data-name="Path 11400" d="M161.957,392H151.645a.645.645,0,1,0,0,1.289h10.312a.645.645,0,1,0,0-1.289Z" transform="translate(-146.844 -375.156)" fill="#7e829e"/>
  </g>
</svg>
