<svg id="person_add_black_24dp" xmlns="http://www.w3.org/2000/svg" width="24" height="24" viewBox="0 0 24 24">
  <path id="Path_11145" data-name="Path 11145" d="M0,0H24V24H0Z" fill="none"/>
  <path id="Path_11146" data-name="Path 11146" d="M15,16c-2.69,0-5.77,1.28-6,2H21C20.8,17.29,17.7,16,15,16Z" transform="translate(0 0)" fill="#4484f4" opacity="0.3"/>
  <circle id="Ellipse_165" data-name="Ellipse 165" cx="2" cy="2" r="2" transform="translate(13 6)" fill="#4484f4" opacity="0.3"/>
  <path id="Path_11147" data-name="Path 11147" d="M15,12a4,4,0,1,0-4-4A4,4,0,0,0,15,12Zm0-6a2,2,0,1,1-2,2A2.006,2.006,0,0,1,15,6Zm0,8c-2.67,0-8,1.34-8,4v2H23V18C23,15.34,17.67,14,15,14ZM9,18c.22-.72,3.31-2,6-2s5.8,1.29,6,2ZM6,15V12H9V10H6V7H4v3H1v2H4v3Z" transform="translate(0 0)" fill="#4484f4"/>
</svg>
