<svg xmlns="http://www.w3.org/2000/svg" width="20" height="20" viewBox="0 0 20 20">
  <path id="Path_12056" data-name="Path 12056" d="M13.535,18.022H23.881a1.247,1.247,0,0,1,1.276,1.225v5.029A1.248,1.248,0,0,1,23.881,25.5H13.535a1.249,1.249,0,0,1-1.278-1.225V19.247A1.249,1.249,0,0,1,13.535,18.022Zm8.323-7.157h2.831a.44.44,0,0,1,.467.411v3.862a.439.439,0,0,1-.467.409H21.858a.442.442,0,0,1-.469-.409V11.276A.442.442,0,0,1,21.858,10.865Zm-5.834-2.24a2.511,2.511,0,0,0-2.376.964l-4.029,4.1a2.361,2.361,0,0,0-.911,2.171V25.5a3.074,3.074,0,0,0,3.03,3.128H25.676A3.076,3.076,0,0,0,28.708,25.5V11.753a3.076,3.076,0,0,0-3.032-3.128Z" transform="translate(-8.708 -8.625)" fill="#fff"/>
</svg>
