<svg xmlns="http://www.w3.org/2000/svg" width="97.375" height="24" viewBox="0 0 97.375 24">
  <g id="Group_1" data-name="Group 1" transform="translate(-101.066 -173.894)">
    <g id="Group_305" data-name="Group 305" transform="translate(120.392 179.102)">
      <path id="Path_270" data-name="Path 270" d="M142.03,194.509H139.7v-9.067h-2.99V183.5h8.314v1.943h-2.99Z" transform="translate(-136.706 -183.499)" fill="#04202e"/>
    </g>
    <g id="Group_306" data-name="Group 306" transform="translate(161.655 179.101)">
      <path id="Path_271" data-name="Path 271" d="M218.125,194.507H215.79V185.44H212.8V183.5h8.314v1.943h-2.99Z" transform="translate(-212.801 -183.497)" fill="#04202e"/>
    </g>
    <g id="Group_307" data-name="Group 307" transform="translate(127.666 181.535)">
      <path id="Path_272" data-name="Path 272" d="M154.442,196.712a4.345,4.345,0,0,1-3.178-1.122,4.249,4.249,0,0,1-1.144-3.178,4.674,4.674,0,0,1,1.058-3.272,3.768,3.768,0,0,1,2.926-1.156A3.708,3.708,0,0,1,156.883,189a3.847,3.847,0,0,1,.994,2.809v1.114h-5.43a2.209,2.209,0,0,0,.58,1.529,2.041,2.041,0,0,0,1.522.55,6.3,6.3,0,0,0,1.438-.158,7.177,7.177,0,0,0,1.416-.5v1.777a5.387,5.387,0,0,1-1.288.448A8.14,8.14,0,0,1,154.442,196.712Zm-.324-7.094a1.458,1.458,0,0,0-1.145.463,2.145,2.145,0,0,0-.474,1.314h3.223a1.916,1.916,0,0,0-.444-1.314A1.506,1.506,0,0,0,154.119,189.618Z" transform="translate(-150.12 -187.984)" fill="#04202e"/>
    </g>
    <g id="Group_308" data-name="Group 308" transform="translate(169.349 181.533)">
      <path id="Path_273" data-name="Path 273" d="M231.687,187.982a3.717,3.717,0,0,1,.776.068l-.173,2.154a2.619,2.619,0,0,0-.678-.076,2.437,2.437,0,0,0-1.714.565,2.043,2.043,0,0,0-.613,1.581v4.285h-2.3v-8.42h1.74l.339,1.416h.113a3.169,3.169,0,0,1,1.058-1.141A2.611,2.611,0,0,1,231.687,187.982Z" transform="translate(-226.988 -187.982)" fill="#04202e"/>
    </g>
    <g id="Group_309" data-name="Group 309" transform="translate(176.041 181.692)">
      <path id="Path_274" data-name="Path 274" d="M245.339,196.694l-.309-1.077h-.12a2.422,2.422,0,0,1-1.047.908,3.567,3.567,0,0,1-1.543.32,2.94,2.94,0,0,1-2.237-.794,3.2,3.2,0,0,1-.753-2.286v-5.49h2.3v4.918a2.363,2.363,0,0,0,.324,1.367,1.178,1.178,0,0,0,1.031.455,1.552,1.552,0,0,0,1.394-.644,3.993,3.993,0,0,0,.429-2.135v-3.961h2.3v8.42Z" transform="translate(-239.329 -188.274)" fill="#04202e"/>
    </g>
    <g id="Group_310" data-name="Group 310" transform="translate(135.585 181.692)">
      <path id="Path_275" data-name="Path 275" d="M167.577,192.394l-2.711-4.12h2.606l1.634,2.681,1.649-2.681h2.606l-2.741,4.12,2.869,4.3h-2.613l-1.769-2.884-1.778,2.884h-2.606Z" transform="translate(-164.723 -188.274)" fill="#04202e"/>
    </g>
    <g id="Group_311" data-name="Group 311" transform="translate(144.012 181.459)">
      <path id="Path_276" data-name="Path 276" d="M185.894,188.354a2.773,2.773,0,0,1,1.095,1.372v-1.773h2.159V196.5h-2.159v-1.789a2.812,2.812,0,0,1-1.095,1.381,3.246,3.246,0,0,1-1.851.517,3.667,3.667,0,0,1-1.943-.524,3.537,3.537,0,0,1-1.35-1.519,5.861,5.861,0,0,1,0-4.673,3.538,3.538,0,0,1,1.35-1.519,3.667,3.667,0,0,1,1.943-.524A3.289,3.289,0,0,1,185.894,188.354Zm-2.807,2.051a2.566,2.566,0,0,0-.617,1.82,2.538,2.538,0,0,0,.617,1.812,2.337,2.337,0,0,0,3.262-.015,2.865,2.865,0,0,0,0-3.609,2.152,2.152,0,0,0-1.627-.671A2.127,2.127,0,0,0,183.086,190.405Z" transform="translate(-180.264 -187.845)" fill="#04202e"/>
    </g>
    <g id="Group_316" data-name="Group 316" transform="translate(101.066 173.894)">
      <g id="Group_312" data-name="Group 312" transform="translate(54.244 18.965)">
        <path id="Path_277" data-name="Path 277" d="M204.925,208.868v4.986h-.651v-2.306h-2.532v2.306H201.1v-4.986h.643v2.157h2.532v-2.157Z" transform="translate(-201.099 -208.868)" fill="#04202e"/>
        <path id="Path_278" data-name="Path 278" d="M212.659,211.052a1.73,1.73,0,0,1,.694.693,2.162,2.162,0,0,1,.251,1.061,2.138,2.138,0,0,1-.251,1.057,1.729,1.729,0,0,1-.694.69,2.2,2.2,0,0,1-2,0,1.746,1.746,0,0,1-.7-.69,2.1,2.1,0,0,1-.255-1.057,2.128,2.128,0,0,1,.255-1.061,1.747,1.747,0,0,1,.7-.693,2.2,2.2,0,0,1,2,0Zm-1.64.481a1.17,1.17,0,0,0-.474.477,1.609,1.609,0,0,0-.181.8,1.588,1.588,0,0,0,.181.788,1.164,1.164,0,0,0,.474.477,1.393,1.393,0,0,0,1.28,0,1.16,1.16,0,0,0,.473-.477,1.583,1.583,0,0,0,.181-.788,1.6,1.6,0,0,0-.181-.8,1.165,1.165,0,0,0-.473-.477,1.389,1.389,0,0,0-1.28,0Z" transform="translate(-205.039 -209.758)" fill="#04202e"/>
        <path id="Path_279" data-name="Path 279" d="M224.31,211.22a1.752,1.752,0,0,1,.414,1.255v2.256h-.644v-2.2a1.25,1.25,0,0,0-.279-.877.99.99,0,0,0-.767-.3,1.054,1.054,0,0,0-.817.336,1.413,1.413,0,0,0-.307.987v2.058h-.644v-2.2a1.241,1.241,0,0,0-.282-.877.992.992,0,0,0-.764-.3,1.063,1.063,0,0,0-.824.336,1.415,1.415,0,0,0-.307.987v2.058h-.644v-3.883h.644v.884a1.261,1.261,0,0,1,.505-.7,1.578,1.578,0,0,1,1.7.007,1.363,1.363,0,0,1,.52.739,1.4,1.4,0,0,1,.544-.732,1.5,1.5,0,0,1,.863-.259A1.439,1.439,0,0,1,224.31,211.22Z" transform="translate(-209.038 -209.745)" fill="#04202e"/>
        <path id="Path_280" data-name="Path 280" d="M235.245,212.94h-3.1a1.363,1.363,0,0,0,.378,1,1.238,1.238,0,0,0,.874.332,1.263,1.263,0,0,0,.781-.236.98.98,0,0,0,.386-.633h.685a1.621,1.621,0,0,1-.947,1.216,2.1,2.1,0,0,1-.877.176,2,2,0,0,1-.99-.24,1.7,1.7,0,0,1-.675-.69,2.178,2.178,0,0,1-.244-1.057,2.2,2.2,0,0,1,.244-1.061,1.7,1.7,0,0,1,.675-.693,2,2,0,0,1,.99-.24,1.954,1.954,0,0,1,.987.24,1.655,1.655,0,0,1,.643.643,1.814,1.814,0,0,1,.223.891A1.852,1.852,0,0,1,235.245,212.94Zm-.764-1.032a1.035,1.035,0,0,0-.445-.432,1.359,1.359,0,0,0-.616-.142,1.274,1.274,0,0,0-.891.329,1.322,1.322,0,0,0-.389.965h2.482A1.32,1.32,0,0,0,234.482,211.908Z" transform="translate(-215.02 -209.758)" fill="#04202e"/>
        <path id="Path_281" data-name="Path 281" d="M243.866,213.352h1.768v.5h-2.411v-4.986h.643Z" transform="translate(-220.381 -208.868)" fill="#04202e"/>
        <path id="Path_282" data-name="Path 282" d="M251.483,211.052a1.729,1.729,0,0,1,.693.693,2.156,2.156,0,0,1,.251,1.061,2.132,2.132,0,0,1-.251,1.057,1.728,1.728,0,0,1-.693.69,2.206,2.206,0,0,1-2,0,1.746,1.746,0,0,1-.7-.69,2.1,2.1,0,0,1-.255-1.057,2.128,2.128,0,0,1,.255-1.061,1.747,1.747,0,0,1,.7-.693,2.205,2.205,0,0,1,2,0Zm-1.641.481a1.17,1.17,0,0,0-.474.477,1.609,1.609,0,0,0-.181.8,1.589,1.589,0,0,0,.181.788,1.164,1.164,0,0,0,.474.477,1.394,1.394,0,0,0,1.28,0,1.166,1.166,0,0,0,.473-.477,1.589,1.589,0,0,0,.181-.788,1.609,1.609,0,0,0-.181-.8,1.172,1.172,0,0,0-.473-.477,1.39,1.39,0,0,0-1.28,0Z" transform="translate(-222.81 -209.758)" fill="#04202e"/>
        <path id="Path_283" data-name="Path 283" d="M259.657,211.095a1.475,1.475,0,0,1,.548.757v-.991h.644v3.883H260.2v-.991a1.475,1.475,0,0,1-.548.757,1.6,1.6,0,0,1-.958.283,1.755,1.755,0,0,1-.919-.24,1.66,1.66,0,0,1-.633-.69,2.291,2.291,0,0,1-.23-1.057,2.317,2.317,0,0,1,.23-1.061,1.662,1.662,0,0,1,.633-.693,1.755,1.755,0,0,1,.919-.24A1.6,1.6,0,0,1,259.657,211.095Zm-1.726.668a1.7,1.7,0,0,0,0,2.087,1.246,1.246,0,0,0,.951.378,1.318,1.318,0,0,0,.683-.177,1.231,1.231,0,0,0,.47-.5,1.579,1.579,0,0,0,.169-.746,1.605,1.605,0,0,0-.169-.75,1.2,1.2,0,0,0-.47-.5,1.343,1.343,0,0,0-.683-.174A1.249,1.249,0,0,0,257.931,211.763Z" transform="translate(-226.648 -209.758)" fill="#04202e"/>
        <path id="Path_284" data-name="Path 284" d="M269.2,211.22a1.746,1.746,0,0,1,.417,1.255v2.256h-.643v-2.2a1.242,1.242,0,0,0-.3-.892,1.061,1.061,0,0,0-.806-.311,1.1,1.1,0,0,0-.849.343,1.42,1.42,0,0,0-.318,1v2.058h-.643v-3.883h.643v.92a1.323,1.323,0,0,1,.527-.728,1.523,1.523,0,0,1,.873-.255A1.451,1.451,0,0,1,269.2,211.22Z" transform="translate(-230.834 -209.745)" fill="#04202e"/>
        <path id="Path_285" data-name="Path 285" d="M276.581,211.155a1.445,1.445,0,0,1,.484.923h-.615a.889.889,0,0,0-.287-.569.932.932,0,0,0-.654-.222.805.805,0,0,0-.541.165.561.561,0,0,0-.195.449.462.462,0,0,0,.131.343.836.836,0,0,0,.325.2,5.43,5.43,0,0,0,.534.145,5.373,5.373,0,0,1,.7.2,1.1,1.1,0,0,1,.453.329.925.925,0,0,1,.188.608.955.955,0,0,1-.357.771,1.438,1.438,0,0,1-.951.3,1.823,1.823,0,0,1-1.131-.332,1.323,1.323,0,0,1-.516-.927h.622a.809.809,0,0,0,.307.573,1.111,1.111,0,0,0,.718.219.749.749,0,0,0,.52-.17.574.574,0,0,0,.187-.446.488.488,0,0,0-.134-.361.88.88,0,0,0-.332-.2,5,5,0,0,0-.544-.149,5.322,5.322,0,0,1-.689-.2,1.063,1.063,0,0,1-.439-.315.881.881,0,0,1-.181-.584.979.979,0,0,1,.361-.788,1.489,1.489,0,0,1,.983-.3A1.566,1.566,0,0,1,276.581,211.155Z" transform="translate(-234.535 -209.758)" fill="#04202e"/>
      </g>
      <g id="Group_315" data-name="Group 315">
        <g id="Group_314" data-name="Group 314">
          <g id="Group_313" data-name="Group 313">
            <path id="Path_286" data-name="Path 286" d="M101.066,175.735l13.29-1.841v21.727l-3.927,2.223v-20.6h-9.364v-1.508Z" transform="translate(-101.066 -173.894)" fill="#04202e"/>
            <path id="Path_287" data-name="Path 287" d="M140.183,175.735l-13.29-1.841v21.727l3.927,2.223v-20.6h9.364v-1.508Z" transform="translate(-112.888 -173.894)" fill="#04202e"/>
          </g>
        </g>
      </g>
    </g>
    <g id="Group_317" data-name="Group 317" transform="translate(154.11 181.533)">
      <path id="Path_288" data-name="Path 288" d="M205.273,194.06a2.319,2.319,0,0,1-.9,1.973,4.448,4.448,0,0,1-2.692.677,8.506,8.506,0,0,1-1.567-.124,5.938,5.938,0,0,1-1.212-.365v-1.9a8.018,8.018,0,0,0,1.442.5,5.846,5.846,0,0,0,1.413.2q1.249,0,1.249-.723a.6.6,0,0,0-.165-.44,2.4,2.4,0,0,0-.572-.384q-.407-.214-1.085-.5a6.816,6.816,0,0,1-1.427-.753,2.113,2.113,0,0,1-.663-.794,2.628,2.628,0,0,1-.207-1.1,2,2,0,0,1,.87-1.736,4.239,4.239,0,0,1,2.466-.614,7,7,0,0,1,2.96.663l-.692,1.657q-.634-.271-1.183-.445a3.726,3.726,0,0,0-1.122-.173q-1.017,0-1.017.55a.647.647,0,0,0,.327.535,8.874,8.874,0,0,0,1.435.67,6.687,6.687,0,0,1,1.446.746,2.208,2.208,0,0,1,.677.8A2.458,2.458,0,0,1,205.273,194.06Z" transform="translate(-198.887 -187.982)" fill="#04202e"/>
    </g>
    <g id="Group_318" data-name="Group 318" transform="translate(185.178 181.533)">
      <path id="Path_289" data-name="Path 289" d="M262.565,194.06a2.319,2.319,0,0,1-.9,1.973,4.448,4.448,0,0,1-2.692.677,8.505,8.505,0,0,1-1.567-.124,5.938,5.938,0,0,1-1.212-.365v-1.9a8.019,8.019,0,0,0,1.442.5,5.847,5.847,0,0,0,1.413.2q1.249,0,1.249-.723a.6.6,0,0,0-.165-.44,2.4,2.4,0,0,0-.572-.384q-.407-.214-1.085-.5a6.814,6.814,0,0,1-1.427-.753,2.114,2.114,0,0,1-.663-.794,2.629,2.629,0,0,1-.207-1.1,2,2,0,0,1,.87-1.736,4.239,4.239,0,0,1,2.466-.614,7,7,0,0,1,2.96.663l-.692,1.657q-.634-.271-1.183-.445a3.726,3.726,0,0,0-1.122-.173q-1.017,0-1.017.55a.647.647,0,0,0,.328.535,8.868,8.868,0,0,0,1.435.67,6.686,6.686,0,0,1,1.446.746,2.208,2.208,0,0,1,.677.8A2.459,2.459,0,0,1,262.565,194.06Z" transform="translate(-256.179 -187.982)" fill="#04202e"/>
    </g>
    <g id="Group_319" data-name="Group 319" transform="translate(192.596 179.9)">
      <path id="Path_290" data-name="Path 290" d="M274.259,193.5a4.98,4.98,0,0,0,1.446-.264v1.709a5.15,5.15,0,0,1-2.109.384,2.582,2.582,0,0,1-2.007-.7,3.029,3.029,0,0,1-.629-2.09v-4.059h-1.1v-.972l1.266-.768.663-1.778h1.468v1.792h2.357v1.725h-2.357v4.059a.9.9,0,0,0,.275.723A1.082,1.082,0,0,0,274.259,193.5Z" transform="translate(-269.86 -184.969)" fill="#04202e"/>
    </g>
  </g>
</svg>
