<svg xmlns="http://www.w3.org/2000/svg" width="15.788" height="17" viewBox="0 0 15.788 17">
  <g id="Group_18155" data-name="Group 18155" transform="translate(0.5 0.5)">
    <path id="Path_313" data-name="Path 313" d="M12.545,8A.546.546,0,0,1,12,7.455V2.3a.546.546,0,0,1,.545-.545h1.273V.606a.544.544,0,0,1,.418-.53l1.05-.253A4.194,4.194,0,0,1,16.54-2.451,4.2,4.2,0,0,1,18.848-3.54V-7.455A.546.546,0,0,1,19.394-8H23.03a.544.544,0,0,1,.5.336.544.544,0,0,1-.118.595l-.827.826.827.826a.544.544,0,0,1,.118.595.544.544,0,0,1-.5.337H19.939v.945A4.182,4.182,0,0,1,23.5-.177l1.05.253a.544.544,0,0,1,.418.53V1.758h1.273a.546.546,0,0,1,.545.545V7.455A.546.546,0,0,1,26.242,8ZM25.7,6.909V2.848h-.323V2.843H13.158v.006h-.067V6.909ZM23.879,1.758V1.036L19.394-.045,14.909,1.036v.722ZM19.394-1.151a.545.545,0,0,1,.128.015L22.3-.468a3.1,3.1,0,0,0-5.8,0l2.774-.668A.546.546,0,0,1,19.394-1.151Zm2.32-4.424-.281-.281a.541.541,0,0,1-.16-.386.541.541,0,0,1,.16-.386l.281-.281H19.939v1.333Z" transform="translate(-12 8)" fill="#4484f4" stroke="rgba(0,0,0,0)" stroke-width="1"/>
    <path id="Path_361" data-name="Path 361" d="M175.565,489.219h3.266l-.771,1.279.89.993-3.189.228Z" transform="translate(-168.171 -488.675)" fill="#4484f4" opacity="0.3"/>
    <path id="Path_362" data-name="Path 362" d="M146.362,529.965l1-.4,12.883.147-.092,4.98H146.362Z" transform="translate(-145.977 -519.34)" fill="#4484f4" opacity="0.3"/>
  </g>
</svg>
