<svg id="doc-edit-icon" xmlns="http://www.w3.org/2000/svg" width="18" height="18" viewBox="0 0 18 18">
  <g id="Group_431" data-name="Group 431" transform="translate(1.241 1.241)">
    <path id="Path_325" data-name="Path 325" d="M91.551,35.931H79.758a.31.31,0,1,1,0-.621H91.551a.31.31,0,1,1,0,.621" transform="translate(-77.896 -35.31)" fill="#4484f4" stroke="#7e829e" stroke-width="0.8"/>
    <path id="Path_326" data-name="Path 326" d="M459.344,91.862a.31.31,0,0,1-.31-.31V79.758a.31.31,0,1,1,.621,0V91.551a.31.31,0,0,1-.31.31" transform="translate(-444.137 -77.896)" fill="#4484f4" stroke="#7e829e" stroke-width="0.8"/>
    <path id="Path_327" data-name="Path 327" d="M91.551,459.655H79.758a.31.31,0,0,1,0-.621H91.551a.31.31,0,0,1,0,.621" transform="translate(-77.896 -444.137)" fill="#4484f4" stroke="#7e829e" stroke-width="0.8"/>
    <path id="Path_328" data-name="Path 328" d="M35.621,91.862a.31.31,0,0,1-.31-.31V79.758a.31.31,0,1,1,.621,0V91.551a.31.31,0,0,1-.31.31" transform="translate(-35.311 -77.896)" fill="#4484f4" stroke="#7e829e" stroke-width="0.8"/>
  </g>
  <g id="Group_432" data-name="Group 432">
    <path id="Path_330" data-name="Path 330" d="M3.1,1.552A1.552,1.552,0,1,1,1.552,0,1.552,1.552,0,0,1,3.1,1.552" fill="#7e829e"/>
    <path id="Path_331" data-name="Path 331" d="M426.827,1.552A1.552,1.552,0,1,1,425.276,0a1.552,1.552,0,0,1,1.552,1.552" transform="translate(-408.827)" fill="#7e829e"/>
    <path id="Path_332" data-name="Path 332" d="M426.827,425.276a1.552,1.552,0,1,1-1.552-1.552,1.552,1.552,0,0,1,1.552,1.552" transform="translate(-408.827 -408.827)" fill="#7e829e"/>
    <path id="Path_333" data-name="Path 333" d="M3.1,425.276a1.552,1.552,0,1,1-1.552-1.552A1.552,1.552,0,0,1,3.1,425.276" transform="translate(0 -408.827)" fill="#7e829e"/>
  </g>
  <text id="T" transform="translate(5 14)" fill="#7e829e" font-size="13" font-family="Rubik-Medium, Rubik" font-weight="500" letter-spacing="-0.03em"><tspan x="0" y="0">T</tspan></text>
</svg>
