<svg xmlns="http://www.w3.org/2000/svg" xmlns:xlink="http://www.w3.org/1999/xlink" width="536" height="443" viewBox="0 0 536 443">
  <defs>
    <clipPath id="clip-path">
      <rect id="Rectangle_277" data-name="Rectangle 277" width="536" height="443" transform="translate(1448.262 147.928)" fill="none"/>
    </clipPath>
    <clipPath id="clip-path-2">
      <rect id="Rectangle_276" data-name="Rectangle 276" width="1366" height="767" transform="translate(1309.262 -83.072)" fill="none"/>
    </clipPath>
    <clipPath id="clip-path-3">
      <rect id="Rectangle_275" data-name="Rectangle 275" width="118" height="443" transform="translate(1866.262 147.928)" fill="none"/>
    </clipPath>
    <clipPath id="clip-path-6">
      <rect id="Rectangle_273" data-name="Rectangle 273" width="55" height="68" transform="translate(1866.262 332.928)" fill="none"/>
    </clipPath>
  </defs>
  <g id="Group_832" data-name="Group 832" transform="translate(-1448.262 -147.928)" clip-path="url(#clip-path)">
    <g id="Group_831" data-name="Group 831">
      <g id="Group_830" data-name="Group 830" clip-path="url(#clip-path-2)">
        <g id="Group_829" data-name="Group 829" style="isolation: isolate">
          <g id="Group_828" data-name="Group 828">
            <g id="Group_827" data-name="Group 827" clip-path="url(#clip-path-3)">
              <g id="Group_819" data-name="Group 819">
                <g id="Group_818" data-name="Group 818" clip-path="url(#clip-path)">
                  <path id="Path_665" data-name="Path 665" d="M1926.51,138.319l30.251,7.542,7.446,12.393-11.515,46.185-40.17-10.016Z" fill="#7e829e"/>
                  <path id="Path_666" data-name="Path 666" d="M1927.428,140.108l27.772,6.924-2.435,9.766,9.689,2.416-10.835,43.457-37.461-9.34Z" fill="#fff"/>
                  <path id="Path_667" data-name="Path 667" d="M1956.109,147.258l-2.208,8.857,8.774,2.188Z" fill="#fff"/>
                  <rect id="Rectangle_207" data-name="Rectangle 207" width="1.552" height="20.687" transform="translate(1929.483 148.388) rotate(-76)" fill="#7e829e"/>
                  <rect id="Rectangle_208" data-name="Rectangle 208" width="1.552" height="16.55" transform="translate(1928.482 152.403) rotate(-76)" fill="#7e829e"/>
                  <rect id="Rectangle_209" data-name="Rectangle 209" width="1.552" height="19.57" transform="translate(1938.021 161.177) rotate(-76)" fill="#7e829e"/>
                  <rect id="Rectangle_210" data-name="Rectangle 210" width="1.552" height="19.57" transform="translate(1937.02 165.192) rotate(-76)" fill="#7e829e"/>
                  <rect id="Rectangle_211" data-name="Rectangle 211" width="1.552" height="30.948" transform="translate(1923.978 170.468) rotate(-76)" fill="#7e829e"/>
                  <rect id="Rectangle_212" data-name="Rectangle 212" width="1.552" height="30.948" transform="translate(1921.976 178.497) rotate(-76)" fill="#7e829e"/>
                  <rect id="Rectangle_213" data-name="Rectangle 213" width="1.552" height="19.57" transform="matrix(0.242, -0.97, 0.97, 0.242, 1936.019, 169.206)" fill="#7e829e"/>
                  <rect id="Rectangle_214" data-name="Rectangle 214" width="1.552" height="30.948" transform="translate(1920.975 182.512) rotate(-76)" fill="#7e829e"/>
                  <rect id="Rectangle_215" data-name="Rectangle 215" width="1.552" height="14.481" transform="matrix(0.242, -0.97, 0.97, 0.242, 1919.974, 186.526)" fill="#4484f4"/>
                  <rect id="Rectangle_216" data-name="Rectangle 216" width="1.552" height="30.948" transform="translate(1922.977 174.483) rotate(-76)" fill="#7e829e"/>
                  <path id="Path_668" data-name="Path 668" d="M1932.631,166.762l-6.524-1.626,1.627-6.524,6.523,1.627Zm3.507-7.653-9.534-2.378-2.378,9.535,9.535,2.377Z" fill="#4484f4"/>
                  <path id="Path_669" data-name="Path 669" d="M1924.238,443.15l28.907,11.679,5.649,13.309-17.831,44.133-38.385-15.509Z" fill="#7e829e"/>
                  <path id="Path_670" data-name="Path 670" d="M1924.9,445.05l26.538,10.722-3.77,9.332,9.258,3.741-16.778,41.526-35.8-14.462Z" fill="#fff"/>
                  <path id="Path_671" data-name="Path 671" d="M1952.305,456.122l-3.419,8.463,8.384,3.387Z" fill="#fff"/>
                  <rect id="Rectangle_217" data-name="Rectangle 217" width="1.552" height="20.687" transform="translate(1925.782 453.535) rotate(-68)" fill="#7e829e"/>
                  <rect id="Rectangle_218" data-name="Rectangle 218" width="1.552" height="16.55" transform="matrix(0.375, -0.927, 0.927, 0.375, 1924.232, 457.371)" fill="#7e829e"/>
                  <rect id="Rectangle_219" data-name="Rectangle 219" width="1.552" height="19.57" transform="matrix(0.375, -0.927, 0.927, 0.375, 1932.456, 467.388)" fill="#7e829e"/>
                  <rect id="Rectangle_220" data-name="Rectangle 220" width="1.552" height="19.57" transform="translate(1930.906 471.224) rotate(-68)" fill="#7e829e"/>
                  <rect id="Rectangle_221" data-name="Rectangle 221" width="1.552" height="30.948" transform="translate(1917.257 474.635) rotate(-68)" fill="#7e829e"/>
                  <rect id="Rectangle_222" data-name="Rectangle 222" width="1.552" height="30.948" transform="translate(1914.157 482.307) rotate(-68)" fill="#7e829e"/>
                  <rect id="Rectangle_223" data-name="Rectangle 223" width="1.552" height="19.57" transform="matrix(0.375, -0.927, 0.927, 0.375, 1929.357, 475.061)" fill="#7e829e"/>
                  <rect id="Rectangle_224" data-name="Rectangle 224" width="1.552" height="30.948" transform="translate(1912.607 486.143) rotate(-68)" fill="#7e829e"/>
                  <rect id="Rectangle_225" data-name="Rectangle 225" width="1.552" height="14.481" transform="matrix(0.375, -0.927, 0.927, 0.375, 1911.057, 489.979)" fill="#4484f4"/>
                  <rect id="Rectangle_226" data-name="Rectangle 226" width="1.552" height="30.948" transform="translate(1915.707 478.471) rotate(-68)" fill="#7e829e"/>
                  <path id="Path_672" data-name="Path 672" d="M1926.341,472.169l-6.234-2.519,2.519-6.234,6.234,2.519Zm4.539-7.091-9.111-3.681-3.681,9.111,9.111,3.681Z" fill="#4484f4"/>
                  <path id="Path_673" data-name="Path 673" d="M1948.751,245.9l27.527-14.637,13.826,4.227,22.346,42.027L1975.9,296.956Z" fill="#7e829e"/>
                  <path id="Path_674" data-name="Path 674" d="M1950.63,246.616l25.272-13.437,4.725,8.886,8.817-4.688,21.026,39.545-34.088,18.125Z" fill="#fff"/>
                  <path id="Path_675" data-name="Path 675" d="M1976.729,232.739l4.285,8.059,7.984-4.245Z" fill="#fff"/>
                  <rect id="Rectangle_227" data-name="Rectangle 227" width="20.687" height="1.552" transform="translate(1956.97 250.025) rotate(-28)" fill="#7e829e"/>
                  <rect id="Rectangle_228" data-name="Rectangle 228" width="16.55" height="1.552" transform="translate(1958.912 253.678) rotate(-28)" fill="#7e829e"/>
                  <rect id="Rectangle_229" data-name="Rectangle 229" width="19.57" height="1.552" transform="translate(1971.872 253.816) rotate(-28)" fill="#7e829e"/>
                  <rect id="Rectangle_230" data-name="Rectangle 230" width="19.57" height="1.552" transform="translate(1973.815 257.469) rotate(-28)" fill="#7e829e"/>
                  <rect id="Rectangle_231" data-name="Rectangle 231" width="30.948" height="1.552" transform="matrix(0.883, -0.469, 0.469, 0.883, 1967.653, 270.117)" fill="#7e829e"/>
                  <rect id="Rectangle_232" data-name="Rectangle 232" width="30.948" height="1.552" transform="translate(1971.538 277.424) rotate(-28)" fill="#7e829e"/>
                  <rect id="Rectangle_233" data-name="Rectangle 233" width="19.57" height="1.552" transform="translate(1975.757 261.122) rotate(-28)" fill="#7e829e"/>
                  <rect id="Rectangle_234" data-name="Rectangle 234" width="30.948" height="1.552" transform="translate(1973.48 281.077) rotate(-28)" fill="#7e829e"/>
                  <rect id="Rectangle_235" data-name="Rectangle 235" width="14.481" height="1.552" transform="translate(1975.423 284.73) rotate(-28)" fill="#4484f4"/>
                  <rect id="Rectangle_236" data-name="Rectangle 236" width="30.948" height="1.552" transform="translate(1969.596 273.771) rotate(-28)" fill="#7e829e"/>
                  <path id="Path_676" data-name="Path 676" d="M1972.332,262.943,1966.4,266.1l-3.157-5.936,5.937-3.157Zm-2.515-8.034-8.676,4.613,4.613,8.676,8.676-4.613Z" fill="#4484f4"/>
                  <path id="Path_677" data-name="Path 677" d="M1875.49,229.564l30.251-7.542,12.393,7.446,11.515,46.185-40.17,10.016Z" fill="#7e829e"/>
                  <path id="Path_678" data-name="Path 678" d="M1877.141,230.713l27.772-6.924,2.435,9.766,9.689-2.416,10.835,43.457-37.461,9.34Z" fill="#fff"/>
                  <path id="Path_679" data-name="Path 679" d="M1905.821,223.562l2.208,8.857,8.774-2.187Z" fill="#fff"/>
                  <rect id="Rectangle_237" data-name="Rectangle 237" width="12.1" height="1.512" transform="translate(1885.045 239.253) rotate(-14)" fill="#4484f4"/>
                  <rect id="Rectangle_238" data-name="Rectangle 238" width="8.066" height="1.512" transform="translate(1886.02 243.166) rotate(-14)" fill="#4484f4"/>
                  <rect id="Rectangle_239" data-name="Rectangle 239" width="28.232" height="1.512" transform="matrix(0.97, -0.242, 0.242, 0.97, 1887.484, 249.036)" fill="#7e829e"/>
                  <rect id="Rectangle_240" data-name="Rectangle 240" width="28.232" height="1.513" transform="matrix(0.97, -0.242, 0.242, 0.97, 1888.46, 252.949)" fill="#7e829e"/>
                  <rect id="Rectangle_241" data-name="Rectangle 241" width="28.232" height="1.512" transform="translate(1890.411 260.776) rotate(-14)" fill="#7e829e"/>
                  <rect id="Rectangle_242" data-name="Rectangle 242" width="20.166" height="1.512" transform="translate(1895.3 263.714) rotate(-14)" fill="#7e829e"/>
                  <rect id="Rectangle_243" data-name="Rectangle 243" width="28.232" height="1.512" transform="matrix(0.97, -0.242, 0.242, 0.97, 1889.435, 256.863)" fill="#7e829e"/>
                  <rect id="Rectangle_244" data-name="Rectangle 244" width="12.1" height="1.512" transform="translate(1908.504 266.657) rotate(-14)" fill="#4484f4"/>
                  <rect id="Rectangle_245" data-name="Rectangle 245" width="8.066" height="1.512" transform="translate(1913.393 269.594) rotate(-14)" fill="#4484f4"/>
                  <path id="Path_680" data-name="Path 680" d="M1913,548.4l27.779-14.154,13.75,4.468,21.609,42.411-36.888,18.8Z" fill="#7e829e"/>
                  <path id="Path_681" data-name="Path 681" d="M1914.87,549.145l25.5-12.994,4.569,8.967,8.9-4.533,20.333,39.906-34.4,17.527Z" fill="#fff"/>
                  <path id="Path_682" data-name="Path 682" d="M1941.207,535.725l4.144,8.133,8.057-4.105Z" fill="#fff"/>
                  <rect id="Rectangle_246" data-name="Rectangle 246" width="12.1" height="1.512" transform="matrix(0.891, -0.454, 0.454, 0.891, 1924.493, 555.688)" fill="#4484f4"/>
                  <rect id="Rectangle_247" data-name="Rectangle 247" width="8.066" height="1.512" transform="matrix(0.891, -0.454, 0.454, 0.891, 1926.324, 559.281)" fill="#4484f4"/>
                  <rect id="Rectangle_248" data-name="Rectangle 248" width="28.232" height="1.512" transform="translate(1929.071 564.672) rotate(-27)" fill="#7e829e"/>
                  <rect id="Rectangle_249" data-name="Rectangle 249" width="28.232" height="1.512" transform="translate(1930.901 568.265) rotate(-27)" fill="#7e829e"/>
                  <rect id="Rectangle_250" data-name="Rectangle 250" width="28.232" height="1.512" transform="translate(1934.564 575.452) rotate(-27)" fill="#7e829e"/>
                  <rect id="Rectangle_251" data-name="Rectangle 251" width="20.166" height="1.512" transform="translate(1939.988 577.215) rotate(-27)" fill="#7e829e"/>
                  <rect id="Rectangle_252" data-name="Rectangle 252" width="28.232" height="1.512" transform="translate(1932.733 571.859) rotate(-27)" fill="#7e829e"/>
                  <rect id="Rectangle_253" data-name="Rectangle 253" width="12.1" height="1.512" transform="matrix(0.891, -0.454, 0.454, 0.891, 1953.515, 577.112)" fill="#4484f4"/>
                  <rect id="Rectangle_254" data-name="Rectangle 254" width="8.066" height="1.512" transform="translate(1958.94 578.875) rotate(-27)" fill="#4484f4"/>
                  <path id="Path_683" data-name="Path 683" d="M1949,402.4l27.779-14.154,13.75,4.468,21.609,42.411-36.888,18.8Z" fill="#7e829e"/>
                  <path id="Path_684" data-name="Path 684" d="M1950.87,403.145l25.5-12.994,4.569,8.967,8.9-4.533,20.333,39.906-34.4,17.527Z" fill="#fff"/>
                  <path id="Path_685" data-name="Path 685" d="M1977.207,389.725l4.144,8.133,8.057-4.105Z" fill="#fff"/>
                  <rect id="Rectangle_255" data-name="Rectangle 255" width="12.1" height="1.512" transform="matrix(0.891, -0.454, 0.454, 0.891, 1960.493, 409.688)" fill="#4484f4"/>
                  <rect id="Rectangle_256" data-name="Rectangle 256" width="8.066" height="1.512" transform="translate(1962.324 413.281) rotate(-27)" fill="#4484f4"/>
                  <rect id="Rectangle_257" data-name="Rectangle 257" width="28.232" height="1.512" transform="translate(1965.07 418.672) rotate(-27)" fill="#7e829e"/>
                  <rect id="Rectangle_258" data-name="Rectangle 258" width="28.232" height="1.512" transform="translate(1966.901 422.265) rotate(-27)" fill="#7e829e"/>
                  <rect id="Rectangle_259" data-name="Rectangle 259" width="28.232" height="1.512" transform="translate(1970.564 429.452) rotate(-27)" fill="#7e829e"/>
                  <rect id="Rectangle_260" data-name="Rectangle 260" width="20.166" height="1.512" transform="translate(1975.988 431.215) rotate(-27)" fill="#7e829e"/>
                  <rect id="Rectangle_261" data-name="Rectangle 261" width="28.232" height="1.512" transform="matrix(0.891, -0.454, 0.454, 0.891, 1968.733, 425.859)" fill="#7e829e"/>
                  <path id="Path_686" data-name="Path 686" d="M1913.4,323.487l28.609-7.666,2.72,10.152,9.981-2.674,12.105,45.178-38.589,10.34Z" fill="#fff"/>
                </g>
              </g>
              <g id="Group_826" data-name="Group 826">
                <g id="Group_825" data-name="Group 825" clip-path="url(#clip-path)">
                  <g id="Group_824" data-name="Group 824" opacity="0.502" style="isolation: isolate">
                    <g id="Group_823" data-name="Group 823">
                      <g id="Group_822" data-name="Group 822" clip-path="url(#clip-path-6)">
                        <g id="Group_821" data-name="Group 821">
                          <g id="Group_820" data-name="Group 820" clip-path="url(#clip-path)">
                            <path id="Path_687" data-name="Path 687" d="M1906.233,339.951l13.9,40.354-35.091,12.083-16.916-49.127,26.318-9.062Z" fill="#fff"/>
                            <path id="Path_688" data-name="Path 688" d="M1919.243,379.874l-29.388,10.12-2.013-5.846a8.111,8.111,0,0,0-9.009-11.914l-9.827-28.541,25-8.609,3.021,8.773,8.772-3.021ZM1883,386.467a6.726,6.726,0,1,1,4.17-8.55A6.734,6.734,0,0,1,1883,386.467Zm7.486,9.629-5.012-2.445-2.445,5.012-3.638-10.566a8.1,8.1,0,0,0,7.457-2.567Zm5.16-60.535,8.774,4.279-6.527,2.248Zm-1.159-2.113-27.248,9.382,10.28,29.857a8.112,8.112,0,0,0,.236,14.935l4.43,12.864,1.807-.623,2.122-4.351,4.352,2.122,1.807-.622-1.963-5.7,30.7-10.573L1906.8,339.452Z" fill="#7e829e"/>
                            <rect id="Rectangle_263" data-name="Rectangle 263" width="11.134" height="1.392" transform="translate(1875.575 347.809) rotate(-19)" fill="#4484f4"/>
                            <rect id="Rectangle_264" data-name="Rectangle 264" width="7.423" height="1.392" transform="translate(1876.783 351.318) rotate(-19)" fill="#4484f4"/>
                            <rect id="Rectangle_265" data-name="Rectangle 265" width="25.979" height="1.392" transform="translate(1878.595 356.582) rotate(-19)" fill="#7e829e"/>
                            <rect id="Rectangle_266" data-name="Rectangle 266" width="25.979" height="1.392" transform="translate(1879.804 360.091) rotate(-19)" fill="#7e829e"/>
                            <rect id="Rectangle_267" data-name="Rectangle 267" width="25.979" height="1.392" transform="translate(1882.22 367.109) rotate(-19)" fill="#7e829e"/>
                            <rect id="Rectangle_268" data-name="Rectangle 268" width="18.556" height="1.392" transform="translate(1886.938 369.41) rotate(-19)" fill="#7e829e"/>
                            <rect id="Rectangle_269" data-name="Rectangle 269" width="25.979" height="1.392" transform="translate(1881.012 363.6) rotate(-19)" fill="#7e829e"/>
                            <rect id="Rectangle_270" data-name="Rectangle 270" width="11.134" height="1.392" transform="translate(1899.277 371.049) rotate(-19)" fill="#4484f4"/>
                            <rect id="Rectangle_271" data-name="Rectangle 271" width="7.423" height="1.392" transform="translate(1903.995 373.35) rotate(-19)" fill="#4484f4"/>
                            <path id="Path_689" data-name="Path 689" d="M1881.79,382.958a3.015,3.015,0,1,1,1.869-3.833A3.018,3.018,0,0,1,1881.79,382.958Zm-2.417-7.018a4.407,4.407,0,1,0,5.6,2.732A4.413,4.413,0,0,0,1879.373,375.94Z" fill="#4484f4"/>
                          </g>
                        </g>
                      </g>
                    </g>
                  </g>
                  <path id="Path_690" data-name="Path 690" d="M1900.046,382.9l-.273.073-.357.334-.2.378s.154.006.045.169a3.207,3.207,0,0,0-.234.509l.053.2s.158-.111.045.17a1.512,1.512,0,0,0-.093.706c0,.278.178.113.122.453a1.881,1.881,0,0,0-.027.756c.043.4.318.278.209.78a1.872,1.872,0,0,0-.094,1.19,6,6,0,0,0,.383,1.427,8.384,8.384,0,0,0,.44,1.644c.325.651.2.5.444,1.006A4.213,4.213,0,0,1,1901.1,394c.254.907.269.957.392,1.462a11.8,11.8,0,0,1,.387,1.445c.163.9.361,1.192.42,1.567s.16.442.18.673-.2.3-.121.437.044.21-.088.323-.3.318-.6.161a1.264,1.264,0,0,0-.614-.135,1.2,1.2,0,0,1-.841-.407,2.608,2.608,0,0,0-1-.605,3.845,3.845,0,0,0-.615-.167,1.493,1.493,0,0,0-.819-.175c-.373.074-.368.258-.989.265s-.621.248-1.212.325a1.842,1.842,0,0,0-.926.248c-.233.143-.472-.153-.608.162s-.2.1-.329.484-.263.273-.239.775a2.252,2.252,0,0,0,.282,1.051c.149.289.046.257.392.58a4.311,4.311,0,0,0,.806.511,7.669,7.669,0,0,1,.807.582c.329.282.315.305.793.721a29.783,29.783,0,0,0,3.96,1.627l8.106,5.1,3.756.239,4.673-.709,1.8-.8a7.409,7.409,0,0,1,.8-.443,1.628,1.628,0,0,0,.6-.335c.109-.131.827-.669.827-.669a1.384,1.384,0,0,0,.556-.539c.151-.329.287-.639.341-.8a3.889,3.889,0,0,1,.292-.572c.127-.222.264-.475.36-.629a3.356,3.356,0,0,0,.284-.563,2.377,2.377,0,0,0,.263-.653,5.046,5.046,0,0,0,.065-.656c.035-.231-.015-.352,0-.7a3.323,3.323,0,0,0,.048-.8c-.046-.395-.184-.291-.176-.654s-.219-.388-.2-.731-.315-.361-.206-.769a1.927,1.927,0,0,0,.07-1.084c-.072-.7-.061-.6-.127-1.073s-.174-.463-.294-1.1a8.976,8.976,0,0,0-.388-1.448c-.272-.886-.182-.81-.343-1.279s-.115-.56-.335-1.25-.126-.913-.324-1.212.005-.5-.434-1.018a2.6,2.6,0,0,0-.818-.732.8.8,0,0,0-.454-.085c-.161.021-.776.04-.856.062a1.026,1.026,0,0,1-.308.082c-.194.02-.5.147-.6.161s-.023-.1-.246.066-.133.226-.507.51a1.174,1.174,0,0,1-.961.258c-.065-.08.147-.054-.052-.193s-.411-.326-.411-.326a2.982,2.982,0,0,0-.351-.293c-.169-.114-.2-.276-.521-.38s-.806-.261-.806-.261l-.851.05a1.13,1.13,0,0,0-.678.181c-.221.2-.293-.055-.517.317a2.873,2.873,0,0,1-.455.6,1.85,1.85,0,0,0-.251.353c-.169.26-.6-.6-.6-.6s-.084.028-.207-.123-.617-.683-.617-.683l-.664-.391a3.264,3.264,0,0,0-.436-.163.676.676,0,0,1-.479.128.965.965,0,0,0-.684,0c-.238.111-.49.317-.613.344s-.427-.209-.548.146a2.282,2.282,0,0,1-.275.724c-.128.138-.352-.381-.454-.708s.131-.258-.246-.919a5.031,5.031,0,0,1-.517-1.09c-.035-.131-.6-1.621-.6-1.621s-.057.078-.057-.213a2.638,2.638,0,0,0-.071-.888c-.116-.576-.2-.54-.233-.873a1.673,1.673,0,0,0-.216-.806c-.161-.262.224-.74-.365-.739s-.443-.064-.952-.07-1.036.039-1.036.039-.116.026-.252.068-.424.113-.424.113Z" fill="#fff"/>
                  <path id="Path_691" data-name="Path 691" d="M1922.417,400.605a7.394,7.394,0,0,1-5.222,9.045l-3.715.995a5.706,5.706,0,0,1-4.36-.573l-14.314-8.265a.821.821,0,0,1-.3-1.121,2.657,2.657,0,0,1,3.27-1.13l4.83,1.94a.821.821,0,0,0,1.1-.974l-4.036-15.06a1.641,1.641,0,0,1,3.171-.85l3.186,11.89a.82.82,0,1,0,1.585-.425l-1.062-3.963a1.641,1.641,0,0,1,3.171-.85l1.062,3.963a.82.82,0,1,0,1.585-.425l-.637-2.377a1.641,1.641,0,0,1,3.17-.85l.637,2.378a.821.821,0,0,0,1.586-.425l-.213-.793a1.641,1.641,0,0,1,3.171-.849Zm-4.771-11.465a3.283,3.283,0,0,1-5.181-.311,3.282,3.282,0,0,1-5.18-.311,3.259,3.259,0,0,0-1.471.852l-1.389-5.183a3.282,3.282,0,0,0-6.341,1.7l3.611,13.475-3.309-1.327a4.3,4.3,0,0,0-5.3,1.832,2.463,2.463,0,0,0,.9,3.362l14.314,8.265a7.339,7.339,0,0,0,5.6.738l3.715-.995A9.039,9.039,0,0,0,1924,400.18l-2.337-8.719A3.286,3.286,0,0,0,1917.646,389.14Z" fill="#4484f4"/>
                  <path id="Path_692" data-name="Path 692" d="M1912.175,324.287l-.248-.923,4.347-1.165a.5.5,0,0,1,.613.353.5.5,0,0,1-.354.613l-3.864,1.035-.129-.483.483-.129.118.44a.5.5,0,0,1-.966.259Zm2.07,7.727-1.035-3.864a.5.5,0,1,1,.966-.258l1.035,3.863a.5.5,0,1,1-.966.259Zm2.071,7.727-1.035-3.863a.5.5,0,0,1,.353-.613.5.5,0,0,1,.613.354l1.035,3.864a.5.5,0,1,1-.966.258Zm2.071,7.728-1.036-3.864a.5.5,0,0,1,.966-.259l1.035,3.864a.5.5,0,1,1-.965.259Zm2.07,7.727-1.035-3.863a.5.5,0,1,1,.966-.259l1.035,3.863a.5.5,0,1,1-.966.259Zm2.071,7.728-1.036-3.864a.484.484,0,0,1,.05-.379.5.5,0,0,1,.916.12l1.036,3.864a.488.488,0,0,1-.05.379.5.5,0,0,1-.916-.12Zm2.07,7.727-1.035-3.864a.5.5,0,1,1,.966-.258l1.035,3.863a.5.5,0,1,1-.966.259Zm2.071,7.727-1.036-3.863a.5.5,0,1,1,.966-.259l1.036,3.864a.5.5,0,1,1-.966.258Zm7.373-.043-3.863,1.035a.5.5,0,0,1-.259-.966l3.864-1.035a.5.5,0,0,1,.612.354.5.5,0,0,1-.354.612Zm7.728-2.07-3.864,1.035a.5.5,0,0,1-.612-.354.477.477,0,0,1,.05-.379.484.484,0,0,1,.3-.233l3.864-1.035a.5.5,0,0,1,.259.966Zm7.727-2.071-3.864,1.035a.5.5,0,1,1-.258-.966l3.863-1.035a.5.5,0,0,1,.259.966Zm7.728-2.071-3.864,1.036a.5.5,0,1,1-.259-.966l3.864-1.035a.5.5,0,1,1,.259.965Zm7.727-2.07-3.864,1.035a.5.5,0,0,1-.259-.966l3.864-1.035a.5.5,0,1,1,.259.966Zm1.671-6.384,1.035,3.864a.5.5,0,1,1-.966.259l-1.035-3.864a.5.5,0,0,1,.733-.562A.484.484,0,0,1,1966.623,363.669Zm-2.071-7.727,1.036,3.864a.5.5,0,0,1-.733.562.478.478,0,0,1-.233-.3l-1.035-3.864a.482.482,0,0,1,.049-.38.489.489,0,0,1,.3-.233.5.5,0,0,1,.612.354Zm-2.07-7.727,1.035,3.863a.5.5,0,1,1-.966.259l-1.035-3.864a.5.5,0,1,1,.966-.258Zm-2.071-7.728,1.036,3.864a.488.488,0,0,1-.05.379.5.5,0,0,1-.916-.12l-1.036-3.864a.5.5,0,0,1,.966-.259Zm-2.07-7.727,1.035,3.863a.5.5,0,1,1-.966.259l-1.035-3.863a.5.5,0,1,1,.966-.259Zm-2.071-7.728,1.036,3.864a.491.491,0,0,1-.05.38.5.5,0,0,1-.916-.121l-1.036-3.864a.5.5,0,0,1,.966-.259Zm-5.725-5.4,3.465,2a.479.479,0,0,1,.232.3.5.5,0,0,1-.732.563l-3.464-2a.5.5,0,0,1-.183-.683.475.475,0,0,1,.3-.233A.48.48,0,0,1,1950.545,319.627Zm-6.928-4,3.464,2a.5.5,0,1,1-.5.865l-3.464-2a.5.5,0,0,1,.5-.866Zm-8.024,1.395,3.863-1.035a.5.5,0,1,1,.259.966l-3.863,1.035a.5.5,0,0,1-.613-.353.5.5,0,0,1,.354-.613Zm-7.728,2.071,3.864-1.035a.5.5,0,0,1,.259.966l-3.864,1.035a.5.5,0,0,1-.563-.733A.489.489,0,0,1,1927.865,319.093Zm-7.727,2.071,3.864-1.036a.5.5,0,0,1,.612.354.5.5,0,0,1-.354.612l-3.863,1.035a.5.5,0,1,1-.259-.965Z" fill="#4484f4"/>
                  <text id="_" data-name="+" transform="matrix(0.966, -0.259, 0.259, 0.966, 1937.193, 356.252)" fill="#7e829e" font-size="20" font-family="Rubik-Medium, Rubik" font-weight="500"><tspan x="0" y="0">+</tspan></text>
                </g>
              </g>
            </g>
          </g>
        </g>
      </g>
    </g>
  </g>
</svg>
