<svg xmlns="http://www.w3.org/2000/svg" width="16.431" height="17.022" viewBox="0 0 16.431 17.022">
  <g id="refresh" transform="translate(-7.986 0.25)">
    <g id="Group_458" data-name="Group 458" transform="translate(8.236)">
      <path id="Path_499" data-name="Path 499" d="M16.234.612a7.955,7.955,0,0,0-5.55,2.235V.612a.612.612,0,1,0-1.224,0V4.283a.612.612,0,0,0,.419.581L13.55,6.088a.613.613,0,1,0,.387-1.163l-2.711-.9A6.7,6.7,0,1,1,9.553,7.445a.612.612,0,0,0-1.2-.215l0,.011a8.047,8.047,0,0,0-.11,1.326,7.966,7.966,0,1,0,8-7.955Z" transform="translate(-8.236)" fill="#d7373f" stroke="#d7373f" stroke-width="0.5"/>
    </g>
  </g>
</svg>
