<svg xmlns="http://www.w3.org/2000/svg" width="11.79" height="16" viewBox="0 0 11.79 16">
  <g id="Group_18674" data-name="Group 18674" transform="translate(-6951.8 -3345.2)" opacity="0.5">
    <path id="Path_11776" data-name="Path 11776" d="M58.721,78c-.211.368-.447.737-.684,1.079,1.474.316,2.263.921,2.263,1.263,0,.5-1.632,1.526-4.632,1.526s-4.632-1-4.632-1.526c0-.342.789-.947,2.263-1.263A9.3,9.3,0,0,1,52.616,78c-1.632.421-2.816,1.211-2.816,2.368,0,1.816,2.974,2.763,5.895,2.763s5.895-.947,5.895-2.763C61.563,79.211,60.353,78.421,58.721,78Z" transform="translate(6902 3278.068)" fill="#4484f4"/>
    <path id="Path_11777" data-name="Path 11777" d="M54.7,41.279c0,2,2.868,6.421,4.053,8.184a.615.615,0,0,0,1.026,0c1.211-1.763,4.053-6.184,4.053-8.184a4.566,4.566,0,1,0-9.132,0Zm4.579-2.132a2.132,2.132,0,1,1-2.132,2.132A2.123,2.123,0,0,1,59.279,39.147Z" transform="translate(6898.389 3308.5)" fill="#4484f4"/>
  </g>
</svg>
