<svg xmlns="http://www.w3.org/2000/svg" width="181.534" height="179.186" viewBox="0 0 181.534 179.186">
  <g id="Group_16743" data-name="Group 16743" transform="matrix(-0.174, 0.985, -0.985, -0.174, 181.534, 26.33)">
    <g id="Group_16736" data-name="Group 16736" transform="translate(0 0)">
      <g id="Group_16723" data-name="Group 16723" transform="translate(1.529 5.176)">
        <g id="Group_16713" data-name="Group 16713" transform="translate(0 0)" opacity="0.3">
          <g id="Group_16712" data-name="Group 16712">
            <path id="Path_11239" data-name="Path 11239" d="M140.1,78.954A45.606,45.606,0,1,0,69.338,68.132l-9.28,8.657,2.218,15.4-14.4-4.037L36.265,98.987l2.218,15.4-14.4-4.035-9.981,9.31,1.35,9.388-8.776-2.461L.869,132.011,0,146.276l21.276,5.353L90.311,87.224A45.619,45.619,0,0,0,140.1,78.954Zm-6.743-56.082a13.083,13.083,0,1,1-18.49-.642A13.082,13.082,0,0,1,133.359,22.871Z" transform="translate(0 0)" fill="#4484f4"/>
          </g>
        </g>
        <g id="Group_16722" data-name="Group 16722" transform="translate(0 0)">
          <g id="Group_16715" data-name="Group 16715">
            <g id="Group_16714" data-name="Group 16714">
              <path id="Path_11240" data-name="Path 11240" d="M140.1,78.954A45.606,45.606,0,1,0,69.338,68.132l-9.28,8.657,2.218,15.4-14.4-4.037L36.265,98.987l2.218,15.4-14.4-4.035-9.981,9.31,1.35,9.388-8.776-2.461L.869,132.011,0,146.276l21.276,5.353L90.311,87.224A45.619,45.619,0,0,0,140.1,78.954Zm-6.743-56.082a13.083,13.083,0,1,1-18.49-.642A13.082,13.082,0,0,1,133.359,22.871Z" transform="translate(0 0)" fill="none"/>
            </g>
          </g>
        </g>
      </g>
      <g id="Group_16735" data-name="Group 16735" transform="translate(0 0)">
        <g id="Group_16725" data-name="Group 16725">
          <g id="Group_16724" data-name="Group 16724">
            <path id="Path_11243" data-name="Path 11243" d="M140.1,78.953A45.606,45.606,0,1,0,69.338,68.131l-.011.013L60.06,76.788l2.216,15.4-14.4-4.037L36.267,98.986l2.216,15.4-14.4-4.037-9.981,9.31,1.352,9.388-8.776-2.461L.869,132.01,0,146.275l21.276,5.355L90.311,87.223A45.619,45.619,0,0,0,140.1,78.953Zm-6.742-56.082a13.083,13.083,0,1,1-18.491-.64A13.084,13.084,0,0,1,133.361,22.871Z" transform="translate(0 0)" fill="#dbdbdb"/>
          </g>
        </g>
        <g id="Group_16734" data-name="Group 16734">
          <g id="Group_16727" data-name="Group 16727">
            <g id="Group_16726" data-name="Group 16726">
              <path id="Path_11244" data-name="Path 11244" d="M140.1,78.953A45.606,45.606,0,1,0,69.338,68.131l-.011.013L60.06,76.788l2.216,15.4-14.4-4.037L36.267,98.986l2.216,15.4-14.4-4.037-9.981,9.31,1.352,9.388-8.776-2.461L.869,132.01,0,146.275l21.276,5.355L90.311,87.223A45.619,45.619,0,0,0,140.1,78.953Zm-6.742-56.082a13.083,13.083,0,1,1-18.491-.64A13.084,13.084,0,0,1,133.361,22.871Z" transform="translate(0 0)" fill="none"/>
            </g>
          </g>
        </g>
      </g>
    </g>
  </g>
</svg>
