<svg xmlns="http://www.w3.org/2000/svg" width="24.647" height="23.333" viewBox="0 0 24.647 23.333">
  <g id="Group_18115" data-name="Group 18115" transform="translate(0.66 0.673)">
    <path id="Path_1027" data-name="Path 1027" d="M.788,7.79,6.452,1.81,8.3,0l6.925,6.216L13.016,8.341,11.86,5.57l-1.2-1.637L9.168,3.187H7.595l-.827.944L2.795,8.341s-1.613.9-1.771.944-2.139,1.04-2.139,1.04Z" transform="translate(5.251 1.935)" fill="#4484f4" opacity="0.3"/>
    <g id="Group_338" data-name="Group 338" transform="matrix(0.914, -0.407, 0.407, 0.914, 0, 7.498)">
      <path id="Path_308" data-name="Path 308" d="M18.4,8.94V8.933L14.956.282a.448.448,0,0,0-.58-.251l-.009,0h0L.388,5.6a.441.441,0,0,0-.167.127A.443.443,0,0,0,0,6.108v9.318a.448.448,0,0,0,.448.448H15.5a.448.448,0,0,0,.448-.448V10.4l2.206-.878A.449.449,0,0,0,18.4,8.94Zm-2.457.5V6.108a.449.449,0,0,0-.392-.444l-.74-1.859,0,0a.373.373,0,0,0-.026-.042.447.447,0,0,0-.428-.328l-.037,0c-.062.006-.125.009-.187.009a2.042,2.042,0,0,1-1.615-.785.445.445,0,0,0-.559-.11l-.043.009h-.006L4.583,5.475a.447.447,0,0,0-.219.185h-1.7L14.29,1.03l3.116,7.824ZM14.591,5.662H6.536l5.511-2.2a2.956,2.956,0,0,0,2.016.869Zm.461.894v8.422H.9V6.556Z" transform="translate(0 0)" fill="#4484f4" stroke="rgba(0,0,0,0)" stroke-width="1"/>
      <path id="Path_309" data-name="Path 309" d="M.008,5.162A.446.446,0,0,0,.32,5.64,2.046,2.046,0,0,1,1.706,7.025a.451.451,0,0,0,.429.32h.006l.047-.006.04.007h8.624l.034-.006a.423.423,0,0,0,.488-.314h0A2.046,2.046,0,0,1,12.761,5.64a.445.445,0,0,0,.311-.475.453.453,0,0,0,.008-.047V2.229a.412.412,0,0,0-.009-.048.445.445,0,0,0-.312-.475A2.044,2.044,0,0,1,11.374.319.444.444,0,0,0,10.9.008L10.852,0H2.229L2.181.009l-.05,0a.441.441,0,0,0-.424.314A2.046,2.046,0,0,1,.319,1.707a.445.445,0,0,0-.311.475A.439.439,0,0,0,0,2.23V5.118A.419.419,0,0,0,.008,5.162ZM10.635.9a2.95,2.95,0,0,0,1.55,1.549V4.9a2.953,2.953,0,0,0-1.549,1.549H2.445A2.953,2.953,0,0,0,.9,4.9V2.445A2.949,2.949,0,0,0,2.445.9Z" transform="translate(1.433 7.094)" fill="#4484f4" stroke="rgba(0,0,0,0)" stroke-width="1"/>
      <path id="Path_310" data-name="Path 310" d="M.627,1.254A.627.627,0,1,0,0,.627.628.628,0,0,0,.627,1.254Zm0-.366A.261.261,0,1,1,.888.627.262.262,0,0,1,.627.888Z" transform="translate(11.289 10.14)" fill="#4484f4" stroke="rgba(0,0,0,0)" stroke-width="1"/>
      <path id="Path_311" data-name="Path 311" d="M.627,1.254A.627.627,0,1,0,0,.627.628.628,0,0,0,.627,1.254Zm0-.366A.261.261,0,1,1,.888.627.262.262,0,0,1,.627.888Z" transform="translate(3.611 10.14)" fill="#4484f4" stroke="rgba(0,0,0,0)" stroke-width="1"/>
      <path id="Path_312" data-name="Path 312" d="M.474,3.257A1.346,1.346,0,0,0,.921,3.4v.2a.18.18,0,0,0,.057.136.187.187,0,0,0,.129.05h.244A.185.185,0,0,0,1.536,3.6V3.4a1.226,1.226,0,0,0,.646-.274.8.8,0,0,0,.279-.63.784.784,0,0,0-.115-.438A.83.83,0,0,0,2,1.774a2.865,2.865,0,0,0-.578-.186,3.343,3.343,0,0,1-.387-.12.455.455,0,0,1-.169-.1.179.179,0,0,1-.041-.125.186.186,0,0,1,.088-.169A.546.546,0,0,1,1.21,1a.541.541,0,0,1,.292.072.224.224,0,0,1,.116.152l0,.011,0,.01a.207.207,0,0,0,.2.131H2.2A.172.172,0,0,0,2.373,1.2v0a.73.73,0,0,0-.12-.347.983.983,0,0,0-.312-.3,1.158,1.158,0,0,0-.4-.154V.186A.183.183,0,0,0,1.482.054.182.182,0,0,0,1.351,0H1.106A.186.186,0,0,0,.977.05.18.18,0,0,0,.921.186v.2A1.111,1.111,0,0,0,.33.659a.786.786,0,0,0-.254.591.747.747,0,0,0,.25.6,1.732,1.732,0,0,0,.727.317c.188.047.332.089.427.123a.521.521,0,0,1,.188.105.16.16,0,0,1,.046.121.208.208,0,0,1-.1.187.7.7,0,0,1-.375.08A.639.639,0,0,1,.889,2.7a.34.34,0,0,1-.15-.181l0-.01L.731,2.505A.271.271,0,0,0,.655,2.42a.209.209,0,0,0-.121-.034H.178a.178.178,0,0,0-.123.048A.169.169,0,0,0,0,2.563a.768.768,0,0,0,.129.391A.92.92,0,0,0,.474,3.257Z" transform="translate(6.641 8.791)" fill="#4484f4" stroke="rgba(0,0,0,0)" stroke-width="1"/>
    </g>
    <path id="Path_360" data-name="Path 360" d="M0,5.146V4.591l.733-.624L4.542,0h.4l.838.252L6.474,0h.731l.9.926.623.579L6.474,2.635,0,5.519Z" transform="translate(7.596 5.303)" fill="#4484f4" opacity="0.3"/>
  </g>
</svg>
