<svg xmlns="http://www.w3.org/2000/svg" width="20.676" height="20" viewBox="0 0 20.676 20">
  <g id="assets-income-icn" transform="translate(-0.731)">
    <rect id="Rectangle_1206" data-name="Rectangle 1206" width="20" height="20" transform="translate(1.303 0)" fill="none"/>
    <path id="Path_1027" data-name="Path 1027" d="M1.794,7.342,7.132,1.706,8.876,0,15.4,5.859l-2.084,2L12.229,5.25,11.1,3.707,9.692,3H8.209l-.78.889L3.685,7.862s-1.52.852-1.669.889S0,9.731,0,9.731Z" transform="matrix(0.966, 0.259, -0.259, 0.966, 6.426, 0.299)" fill="#4484f4" opacity="0.3"/>
    <g id="Group_338" data-name="Group 338" transform="translate(1.303 4.355) rotate(-9)">
      <path id="Path_308" data-name="Path 308" d="M17.346,8.426V8.419L14.1.266A.422.422,0,0,0,13.55.029l-.009,0h0L.366,5.279A.416.416,0,0,0,.208,5.4.418.418,0,0,0,0,5.757v8.782a.423.423,0,0,0,.422.422H14.608a.423.423,0,0,0,.422-.422V9.8l2.079-.828A.423.423,0,0,0,17.346,8.426Zm-2.315.467V5.757a.423.423,0,0,0-.369-.419l-.7-1.752,0,0a.352.352,0,0,0-.025-.04.421.421,0,0,0-.4-.309H13.5c-.058.005-.118.008-.176.008A1.924,1.924,0,0,1,11.8,2.5a.419.419,0,0,0-.527-.1l-.04.008h-.005L4.319,5.16a.421.421,0,0,0-.206.175H2.508L13.468.971,16.4,8.344ZM13.752,5.337H6.16l5.194-2.07a2.786,2.786,0,0,0,1.9.819Zm.434.843v7.937H.844V6.179Z" transform="translate(0 0)" fill="#4484f4" stroke="rgba(0,0,0,0)" stroke-width="1"/>
      <path id="Path_309" data-name="Path 309" d="M.008,4.865A.42.42,0,0,0,.3,5.316,1.928,1.928,0,0,1,1.608,6.621a.425.425,0,0,0,.4.3h.005l.045-.005.038.007h8.128l.032-.006a.4.4,0,0,0,.46-.3h0a1.928,1.928,0,0,1,1.307-1.3.42.42,0,0,0,.293-.448.427.427,0,0,0,.008-.045V2.1a.388.388,0,0,0-.008-.045.419.419,0,0,0-.294-.447A1.926,1.926,0,0,1,10.72.3a.418.418,0,0,0-.451-.293L10.228,0H2.1L2.056.009l-.048,0a.416.416,0,0,0-.4.3A1.928,1.928,0,0,1,.3,1.609a.42.42,0,0,0-.293.448A.414.414,0,0,0,0,2.1V4.823A.4.4,0,0,0,.008,4.865ZM10.023.844a2.78,2.78,0,0,0,1.46,1.46V4.62a2.783,2.783,0,0,0-1.46,1.46H2.3A2.783,2.783,0,0,0,.844,4.62V2.3A2.779,2.779,0,0,0,2.3.844Z" transform="translate(1.351 6.686)" fill="#4484f4" stroke="rgba(0,0,0,0)" stroke-width="1"/>
      <path id="Path_310" data-name="Path 310" d="M.591,1.182A.591.591,0,1,0,0,.591.592.592,0,0,0,.591,1.182Zm0-.345A.246.246,0,1,1,.837.591.246.246,0,0,1,.591.837Z" transform="translate(10.64 9.557)" fill="#4484f4" stroke="rgba(0,0,0,0)" stroke-width="1"/>
      <path id="Path_311" data-name="Path 311" d="M.591,1.182A.591.591,0,1,0,0,.591.592.592,0,0,0,.591,1.182Zm0-.345A.246.246,0,1,1,.837.591.246.246,0,0,1,.591.837Z" transform="translate(3.404 9.557)" fill="#4484f4" stroke="rgba(0,0,0,0)" stroke-width="1"/>
      <path id="Path_312" data-name="Path 312" d="M.446,3.07A1.268,1.268,0,0,0,.868,3.2V3.39a.17.17,0,0,0,.053.128.176.176,0,0,0,.122.047h.23a.175.175,0,0,0,.175-.175V3.2a1.156,1.156,0,0,0,.609-.258.758.758,0,0,0,.263-.594.739.739,0,0,0-.108-.412.782.782,0,0,0-.327-.268A2.7,2.7,0,0,0,1.339,1.5a3.15,3.15,0,0,1-.365-.113.429.429,0,0,1-.159-.1.169.169,0,0,1-.039-.117.175.175,0,0,1,.083-.16A.515.515,0,0,1,1.141.942a.51.51,0,0,1,.276.068.211.211,0,0,1,.109.144l0,.01,0,.01a.2.2,0,0,0,.191.123h.351a.162.162,0,0,0,.164-.164v0A.688.688,0,0,0,2.123.8.927.927,0,0,0,1.829.517,1.092,1.092,0,0,0,1.448.371v-.2A.172.172,0,0,0,1.4.051.172.172,0,0,0,1.273,0h-.23A.176.176,0,0,0,.921.047.17.17,0,0,0,.868.175V.362A1.047,1.047,0,0,0,.311.621a.741.741,0,0,0-.24.557.7.7,0,0,0,.235.564,1.632,1.632,0,0,0,.685.3c.177.044.313.083.4.116a.491.491,0,0,1,.177.1.151.151,0,0,1,.043.114.2.2,0,0,1-.1.176.662.662,0,0,1-.354.075.6.6,0,0,1-.326-.073A.32.32,0,0,1,.7,2.379l0-.009L.689,2.361a.255.255,0,0,0-.072-.081A.2.2,0,0,0,.5,2.249H.167a.168.168,0,0,0-.116.045A.159.159,0,0,0,0,2.416a.724.724,0,0,0,.121.369A.867.867,0,0,0,.446,3.07Z" transform="translate(6.259 8.285)" fill="#4484f4" stroke="rgba(0,0,0,0)" stroke-width="1"/>
    </g>
    <path id="Path_360" data-name="Path 360" d="M0,4.851V4.327l.691-.588L4.281,0h.374l.79.238L6.1,0h.689l.853.872.587.545L6.1,2.484,0,5.2Z" transform="matrix(0.966, 0.259, -0.259, 0.966, 8.754, 4.21)" fill="#4484f4" opacity="0.3"/>
  </g>
</svg>
