<svg xmlns="http://www.w3.org/2000/svg" width="25.557" height="26.124" viewBox="0 0 25.557 26.124">
  <g id="Group_20364" data-name="Group 20364" transform="translate(-65.474 -385.376)">
    <path id="Path_11859" data-name="Path 11859" d="M26.623,13.5,15.945,2.847a1.082,1.082,0,0,0-1.54,0L3.752,13.5a1.1,1.1,0,0,0,.757,1.868H6.226V25.793a.733.733,0,0,0,.732.732H23.366a.733.733,0,0,0,.732-.732V15.342h1.717A1.087,1.087,0,0,0,26.623,13.5Z" transform="translate(63.067 383.975)" fill="none" stroke="#4484f4" stroke-width="2"/>
    <path id="Path_11860" data-name="Path 11860" d="M3.753-6.065v.629a3.644,3.644,0,0,1,1.069.256A2.111,2.111,0,0,1,5.6-4.6a2.474,2.474,0,0,1,.4.612,1.41,1.41,0,0,1,.143.577.689.689,0,0,1-.213.5.7.7,0,0,1-.516.213.725.725,0,0,1-.74-.617,1.32,1.32,0,0,0-.926-.967v2.423q.722.2,1.15.361a2.383,2.383,0,0,1,.766.472,2.181,2.181,0,0,1,.556.766,2.406,2.406,0,0,1,.2.976A2.586,2.586,0,0,1,6.11,1.965a2.463,2.463,0,0,1-.917.947,3.265,3.265,0,0,1-1.439.437V4.8a1.372,1.372,0,0,1-.067.5.284.284,0,0,1-.294.157A.326.326,0,0,1,3.1,5.329a.733.733,0,0,1-.084-.4V3.36a3.679,3.679,0,0,1-1.191-.32,2.82,2.82,0,0,1-.85-.609,2.538,2.538,0,0,1-.5-.757A2.005,2.005,0,0,1,.3.9.705.705,0,0,1,.523.4.729.729,0,0,1,1.068.174.771.771,0,0,1,1.511.3a.63.63,0,0,1,.25.344,7.38,7.38,0,0,0,.274.731,1.408,1.408,0,0,0,.352.463,1.574,1.574,0,0,0,.626.32V-.555a7.13,7.13,0,0,1-1.3-.481,2.2,2.2,0,0,1-.85-.754A2.226,2.226,0,0,1,.532-3.048,2.23,2.23,0,0,1,1.17-4.691a2.857,2.857,0,0,1,1.844-.746v-.617q0-.489.367-.489T3.753-6.065Zm-.74,4V-4.3a2.033,2.033,0,0,0-.763.384.908.908,0,0,0-.274.722.9.9,0,0,0,.256.7A2.358,2.358,0,0,0,3.013-2.069Zm.74,1.73V2.212a1.6,1.6,0,0,0,.909-.472,1.2,1.2,0,0,0,.32-.827A.993.993,0,0,0,4.671.13,2.536,2.536,0,0,0,3.753-.339Z" transform="translate(74.696 401.543)" fill="#4484f4"/>
  </g>
</svg>
