<svg xmlns="http://www.w3.org/2000/svg" width="18.929" height="20" viewBox="0 0 18.929 20">
  <g id="Group_20348" data-name="Group 20348" transform="translate(-77.664 -665.5)">
    <path id="Path_13829" data-name="Path 13829" d="M31.008,32.822a.329.329,0,0,0,0-.658H23.993a.329.329,0,0,0,0,.658Z" transform="translate(57.679 639.426)" fill="#4484f4" stroke="#4484f4" stroke-width="0.5"/>
    <path id="Path_13830" data-name="Path 13830" d="M23.993,22.822h7.015a.329.329,0,1,0,0-.658H23.993a.329.329,0,1,0,0,.658Z" transform="translate(57.679 647.234)" fill="#4484f4" stroke="#4484f4" stroke-width="0.5"/>
    <path id="Path_13831" data-name="Path 13831" d="M29.174,42.518l.265.142a.329.329,0,0,0,.311-.58l-.265-.142a.8.8,0,0,0-.927.208.138.138,0,0,1-.16-.021l-.026-.021a.778.778,0,0,0-1.081.109l-.013.015-.092-.368a.489.489,0,0,0-.936-.147l-.287.462-.086-1.384c-.023-.369-.2-.472-.344-.493s-.344.026-.473.372l-.378,1.014a.329.329,0,0,0,.607.252l.054.871c.023.379.242.475.335.5a.4.4,0,0,0,.1.012.516.516,0,0,0,.436-.292l.42-.677.061.244a.524.524,0,0,0,.958.218l.148-.179a.119.119,0,0,1,.161-.017l.026.021a.78.78,0,0,0,1.054-.042A.3.3,0,0,1,29.174,42.518Z" transform="translate(56.899 633.078)" fill="#4484f4" stroke="#4484f4" stroke-width="0.5"/>
    <path id="Path_13832" data-name="Path 13832" d="M27.029,21.611l-.091-.368a4,4,0,0,1-.01-1.551l.087-.369a1.612,1.612,0,0,0-.7-1.663l-.324-.2a4,4,0,0,1-1.1-1.09l-.2-.322a1.624,1.624,0,0,0-1.345-.719,1.422,1.422,0,0,0-.148.009v-7.8a.879.879,0,0,0-.877-.877H10.041a.879.879,0,0,0-.877.877V22.886a.879.879,0,0,0,.877.877h8.092a4.006,4.006,0,0,1,.787.86l.2.322a1.623,1.623,0,0,0,1.345.719,1.362,1.362,0,0,0,.326-.039l.368-.091a4.216,4.216,0,0,1,1.551-.01l.369.087a1.361,1.361,0,0,0,.309.035,1.62,1.62,0,0,0,1.354-.736l.2-.324a3.992,3.992,0,0,1,1.09-1.1l.322-.2A1.613,1.613,0,0,0,27.029,21.611ZM9.822,22.886V7.541a.222.222,0,0,1,.219-.219H22.317a.222.222,0,0,1,.219.219v7.944a4.289,4.289,0,0,1-1.44-.012l-.369-.087a1.361,1.361,0,0,0-.309-.035,1.62,1.62,0,0,0-1.354.736l-.2.324a4,4,0,0,1-1.09,1.1l-.322.2a1.612,1.612,0,0,0-.68,1.672l.091.368a4,4,0,0,1,.01,1.551l-.087.369a1.62,1.62,0,0,0,.421,1.431h-7.17A.221.221,0,0,1,9.822,22.886ZM26,22.724l-.322.2a4.627,4.627,0,0,0-1.307,1.323l-.2.324a.968.968,0,0,1-.791.418.7.7,0,0,1-.159-.017l-.369-.087a4.1,4.1,0,0,0-.9-.088,4.192,4.192,0,0,0-.962.1l-.368.091a.7.7,0,0,1-.168.02.972.972,0,0,1-.787-.408l-.2-.322a4.636,4.636,0,0,0-1.323-1.306l-.324-.2a.961.961,0,0,1-.4-.95l.087-.369a4.627,4.627,0,0,0-.012-1.859l-.091-.368a.961.961,0,0,1,.388-.955l.322-.2a4.626,4.626,0,0,0,1.306-1.323l.2-.324a.968.968,0,0,1,.791-.418.7.7,0,0,1,.159.017l.369.087a4.1,4.1,0,0,0,.9.088,4.181,4.181,0,0,0,.963-.1l.368-.091a.692.692,0,0,1,.169-.02.972.972,0,0,1,.786.408l.2.322a4.637,4.637,0,0,0,1.323,1.306l.324.2a.962.962,0,0,1,.4.95l-.087.369A4.627,4.627,0,0,0,26.3,21.4l.091.368A.961.961,0,0,1,26,22.724Z" transform="translate(69 659.336)" fill="#4484f4" stroke="#4484f4" stroke-width="1"/>
    <path id="Path_13833" data-name="Path 13833" d="M62.765,64.047a.211.211,0,0,0-.3.031l-.784.964-.484-.4a.211.211,0,0,0-.271.324l.648.541a.211.211,0,0,0,.135.049h.02a.211.211,0,0,0,.144-.077l.919-1.13A.211.211,0,0,0,62.765,64.047Z" transform="translate(29.071 615.074)" fill="#4484f4" stroke="#4484f4" stroke-width="0.5"/>
    <path id="Path_13834" data-name="Path 13834" d="M53.324,52.7a3.121,3.121,0,1,0,3.121,3.121A3.12,3.12,0,0,0,53.324,52.7Zm0,5.695A2.574,2.574,0,1,1,55.9,55.823,2.577,2.577,0,0,1,53.324,58.4Z" transform="translate(37.594 624.026)" fill="#4484f4" stroke="#4484f4" stroke-width="0.5"/>
  </g>
</svg>
