<svg xmlns="http://www.w3.org/2000/svg" width="16" height="15.999" viewBox="0 0 16 15.999">
  <g id="Group_17964" data-name="Group 17964" transform="translate(-623.57 -1361)">
    <path id="Path_11687" data-name="Path 11687" d="M452.555,644.181a1,1,0,0,0,.695-.284,1.032,1.032,0,0,0,.3-.706.919.919,0,0,0-.041-.281,1,1,0,0,0-.242-.414.966.966,0,0,0-.32-.211.936.936,0,0,0-.386-.085,1.161,1.161,0,0,0-.271.038,1,1,0,0,0-.422.245.984.984,0,0,0-.3.706,1.02,1.02,0,0,0,.278.687,1,1,0,0,0,.709.306.818.818,0,0,0,.579-1.4.89.89,0,0,0-.579-.239.08.08,0,0,1-.02,0l.217.029a.192.192,0,0,1-.052-.015l.195.082a.2.2,0,0,1-.031-.018l.165.127a.207.207,0,0,1-.038-.038l.127.165a.186.186,0,0,1-.018-.031c.028.065.056.131.082.194a.312.312,0,0,1-.015-.052l.029.217a.145.145,0,0,1,0-.037l-.029.217a.188.188,0,0,1,.015-.052c-.028.065-.056.131-.082.194a.188.188,0,0,1,.018-.031l-.127.165a.2.2,0,0,1,.038-.037l-.165.127a.2.2,0,0,1,.031-.018l-.195.082a.331.331,0,0,1,.052-.015l-.217.029a.144.144,0,0,1,.038,0l-.217-.029a.2.2,0,0,1,.052.015l-.195-.082a.2.2,0,0,1,.031.018l-.165-.127a.2.2,0,0,1,.038.037l-.128-.165a.182.182,0,0,1,.018.031c-.028-.065-.056-.131-.082-.194a.311.311,0,0,1,.015.052l-.029-.217a.145.145,0,0,1,0,.037l.029-.217a.189.189,0,0,1-.015.052c.028-.065.056-.131.082-.194a.18.18,0,0,1-.018.031l.128-.165a.2.2,0,0,1-.038.038l.165-.127a.2.2,0,0,1-.031.018l.195-.082a.319.319,0,0,1-.052.015l.217-.029-.02,0a.851.851,0,0,0-.579.239.821.821,0,0,0,0,1.157A.866.866,0,0,0,452.555,644.181Z" transform="translate(179.015 728.93)" fill="#ff5652"/>
    <path id="Path_11688" data-name="Path 11688" d="M462,242.479v4.3a.851.851,0,0,0,.239.579.821.821,0,0,0,1.157,0,.848.848,0,0,0,.239-.579v-4.3a.851.851,0,0,0-.239-.579.821.821,0,0,0-1.157,0,.855.855,0,0,0-.239.579Z" transform="translate(168.752 1122.921)" fill="#ff5652"/>
    <path id="Path_11689" data-name="Path 11689" d="M36.936,30.439a7.489,7.489,0,0,1-.065.976L36.9,31.2a7.2,7.2,0,0,1-.492,1.8c.028-.065.056-.131.082-.194a7.208,7.208,0,0,1-.932,1.6l.127-.165a7.3,7.3,0,0,1-1.314,1.314l.165-.127a7.273,7.273,0,0,1-1.6.932l.194-.082a7.2,7.2,0,0,1-1.8.492l.217-.029a7.372,7.372,0,0,1-1.953,0l.217.029a7.2,7.2,0,0,1-1.8-.492l.194.082a7.209,7.209,0,0,1-1.6-.932l.165.127a7.3,7.3,0,0,1-1.314-1.314l.127.165a7.272,7.272,0,0,1-.932-1.6c.028.065.056.131.082.194a7.2,7.2,0,0,1-.492-1.8l.029.217a7.372,7.372,0,0,1,0-1.953l-.029.217a7.2,7.2,0,0,1,.492-1.8c-.028.065-.056.131-.082.194a7.209,7.209,0,0,1,.932-1.6l-.127.165a7.3,7.3,0,0,1,1.314-1.314l-.165.127a7.272,7.272,0,0,1,1.6-.932l-.194.082a7.2,7.2,0,0,1,1.8-.492l-.217.029a7.373,7.373,0,0,1,1.953,0l-.217-.029a7.2,7.2,0,0,1,1.8.492l-.194-.082a7.208,7.208,0,0,1,1.6.932l-.165-.127a7.3,7.3,0,0,1,1.314,1.314l-.127-.165a7.273,7.273,0,0,1,.932,1.6c-.028-.065-.056-.131-.082-.194a7.2,7.2,0,0,1,.492,1.8l-.029-.217a7.833,7.833,0,0,1,.065.977.851.851,0,0,0,.239.579.821.821,0,0,0,1.157,0,.84.84,0,0,0,.239-.579,7.943,7.943,0,0,0-1.44-4.576,8.706,8.706,0,0,0-.812-.989,8.565,8.565,0,0,0-.955-.834A7.981,7.981,0,0,0,24.444,25.3a7.668,7.668,0,0,0-1.308,2.193,7.831,7.831,0,0,0-.544,2.388,8,8,0,0,0,.209,2.478,7.883,7.883,0,0,0,.92,2.22,8.013,8.013,0,0,0,3.486,3.12,7.609,7.609,0,0,0,2.52.695,7.946,7.946,0,0,0,2.488-.123,7.815,7.815,0,0,0,2.257-.845,8.027,8.027,0,0,0,3.236-3.378,7.834,7.834,0,0,0,.747-2.291,8.664,8.664,0,0,0,.113-1.316.851.851,0,0,0-.239-.579.821.821,0,0,0-1.157,0A.868.868,0,0,0,36.936,30.439Z" transform="translate(601 1338.563)" fill="#ff5652"/>
  </g>
</svg>
