<svg xmlns="http://www.w3.org/2000/svg" width="19.014" height="24" viewBox="0 0 19.014 24">
  <g id="surface1" transform="translate(-0.5)">
    <path id="Path_625" data-name="Path 625" d="M13.433.185A.581.581,0,0,0,13.016,0H3.654A3.167,3.167,0,0,0,.5,3.148v17.7A3.167,3.167,0,0,0,3.654,24H16.361a3.167,3.167,0,0,0,3.154-3.148V6.794a.624.624,0,0,0-.168-.406ZM13.6,2.046,17.561,6.2H14.987A1.381,1.381,0,0,1,13.6,4.823Zm2.759,20.794H3.654a2.008,2.008,0,0,1-1.994-1.989V3.148A2.008,2.008,0,0,1,3.654,1.159h8.788V4.823a2.536,2.536,0,0,0,2.545,2.539h3.368v13.49A2,2,0,0,1,16.361,22.841Zm0,0" fill="#7e829e"/>
    <path id="Path_626" data-name="Path 626" d="M99.294,401.934H89.752a.58.58,0,1,0,0,1.159H99.3a.58.58,0,1,0-.006-1.159Zm0,0" transform="translate(-84.515 -383.093)" fill="#7e829e"/>
    <path id="Path_627" data-name="Path 627" d="M145.693,201.605H143.9v-1.791a.58.58,0,0,0-1.159,0v1.791h-1.791a.58.58,0,0,0,0,1.159h1.791v1.791a.58.58,0,0,0,1.159,0v-1.791h1.791a.58.58,0,0,0,0-1.159Zm0,0" transform="translate(-133.315 -189.895)" fill="#7e829e"/>
    <path id="Path_628" data-name="Path 628" d="M83.208,136.164a5.907,5.907,0,1,0,5.907,5.907A5.913,5.913,0,0,0,83.208,136.164Zm0,10.655a4.748,4.748,0,1,1,4.748-4.748A4.75,4.75,0,0,1,83.208,146.819Zm0,0" transform="translate(-73.201 -129.781)" fill="#7e829e"/>
  </g>
</svg>
