<svg id="Component_23_6" data-name="Component 23 – 6" xmlns="http://www.w3.org/2000/svg" width="20" height="21.541" viewBox="0 0 20 21.541">
  <g id="money" transform="translate(0 0)" opacity="0">
    <circle id="Ellipse_105" data-name="Ellipse 105" cx="3.077" cy="3.077" r="3.077" transform="translate(3.459 0)" fill="#7e829e"/>
    <path id="Path_617" data-name="Path 617" d="M208,230.155A6.155,6.155,0,1,0,214.155,224,6.155,6.155,0,0,0,208,230.155Zm5.693.385a1.945,1.945,0,1,1,0-3.847h.077v-.74a.385.385,0,1,1,.769,0v.74h.077a2.1,2.1,0,0,1,2.231,1.923.385.385,0,0,1-.769,0,1.337,1.337,0,0,0-1.462-1.154h-.077v2.308h.077a1.945,1.945,0,1,1,0,3.847h-.077v.769a.385.385,0,1,1-.769,0v-.769h-.077a2.1,2.1,0,0,1-2.231-1.923.385.385,0,1,1,.769,0,1.337,1.337,0,0,0,1.462,1.154h.077v-2.308Z" transform="translate(-200.309 -214.768)" fill="#7e829e"/>
    <path id="Path_618" data-name="Path 618" d="M55.016,185.223a6.923,6.923,0,0,1,4.175-7.134,6.111,6.111,0,0,0-9.21.007,8.314,8.314,0,0,0-1.929,5.365,15.983,15.983,0,0,0,6.537,1.77C54.73,185.232,54.873,185.229,55.016,185.223Z" transform="translate(-48.053 -169.076)" fill="#7e829e"/>
    <path id="Path_619" data-name="Path 619" d="M297.539,296h-.077a1.186,1.186,0,1,0,0,2.308h.077Z" transform="translate(-284.078 -283.306)" fill="#7e829e"/>
    <path id="Path_620" data-name="Path 620" d="M345.539,361.154A1.337,1.337,0,0,0,344.077,360H344v2.308h.077A1.337,1.337,0,0,0,345.539,361.154Z" transform="translate(-329.77 -344.229)" fill="#7e829e"/>
  </g>
  <g id="portfolio-black-symbol" transform="translate(0 1)">
    <g id="_x33__9_">
      <g id="Group_1542" data-name="Group 1542">
        <path id="Path_621" data-name="Path 621" d="M17.5,21.625H13.75v-1.25a1.25,1.25,0,0,0-1.25-1.25h-5a1.25,1.25,0,0,0-1.25,1.25v1.25H2.5a2.5,2.5,0,0,0-2.5,2.5V27.25H20V24.125A2.5,2.5,0,0,0,17.5,21.625Zm-5,0h-5V21a.625.625,0,0,1,.625-.625h3.75A.625.625,0,0,1,12.5,21Zm0,7.5a2.5,2.5,0,1,1-5,0,2.366,2.366,0,0,1,.088-.625H0v6.875a2.5,2.5,0,0,0,2.5,2.5h15a2.5,2.5,0,0,0,2.5-2.5V28.5H12.412A2.371,2.371,0,0,1,12.5,29.125Zm-1.25,0a1.242,1.242,0,0,0-.173-.625H8.924a1.236,1.236,0,0,0-.174.625,1.25,1.25,0,1,0,2.5,0Z" transform="translate(0 -19.125)" fill="#7e829e"/>
      </g>
    </g>
  </g>
</svg>
