<svg xmlns="http://www.w3.org/2000/svg" width="30.274" height="18.689" viewBox="0 0 30.274 18.689">
  <g id="transfer" transform="translate(0 -97.946)">
    <path id="Path_590" data-name="Path 590" d="M56.066,301.67H48.95a.444.444,0,0,0,0,.887h7.117a.444.444,0,0,0,0-.887Z" transform="translate(-45.637 -191.676)" fill="#7e829e"/>
    <path id="Path_591" data-name="Path 591" d="M56.066,331.336H48.95a.444.444,0,0,0,0,.887h7.117a.444.444,0,0,0,0-.887Z" transform="translate(-45.637 -219.588)" fill="#7e829e"/>
    <path id="Path_592" data-name="Path 592" d="M56.066,361H48.95a.444.444,0,0,0,0,.887h7.117a.444.444,0,0,0,0-.887Z" transform="translate(-45.637 -247.5)" fill="#7e829e"/>
    <path id="Path_593" data-name="Path 593" d="M336.151,301.67h-7.117a.444.444,0,1,0,0,.887h7.117a.444.444,0,1,0,0-.887Z" transform="translate(-309.159 -191.676)" fill="#7e829e"/>
    <path id="Path_594" data-name="Path 594" d="M336.151,331.336h-7.117a.444.444,0,1,0,0,.887h7.117a.444.444,0,1,0,0-.887Z" transform="translate(-309.159 -219.588)" fill="#7e829e"/>
    <path id="Path_595" data-name="Path 595" d="M336.151,361h-7.117a.444.444,0,1,0,0,.887h7.117a.444.444,0,1,0,0-.887Z" transform="translate(-309.159 -247.5)" fill="#7e829e"/>
    <path id="Path_596" data-name="Path 596" d="M29.83,107.353a.443.443,0,0,0,.444-.444v-4.666a.445.445,0,0,0-.13-.314L26.29,98.076a.449.449,0,0,0-.314-.13H17.614a1.083,1.083,0,0,0-1.081,1.081v6.019l-.577-.366a.826.826,0,0,0-1.268.7v.794h-.947v-3.928a.446.446,0,0,0-.13-.314L9.757,98.076a.448.448,0,0,0-.314-.13H6.377a.444.444,0,1,0,0,.887H9v2.773a1.083,1.083,0,0,0,1.081,1.081h2.773v3.484H11.461a.84.84,0,0,0-.839.84v1.273a.84.84,0,0,0,.839.84h1.393v6.43a.194.194,0,0,1-.194.194H1.081a.194.194,0,0,1-.194-.194V99.027a.194.194,0,0,1,.194-.194H4.307a.444.444,0,0,0,0-.887H1.081A1.083,1.083,0,0,0,0,99.027v16.527a1.083,1.083,0,0,0,1.081,1.081H12.66a1.083,1.083,0,0,0,1.081-1.081v-6.43h.947v.794a.826.826,0,0,0,1.268.7l.577-.366v5.305a1.083,1.083,0,0,0,1.081,1.081H29.193a1.083,1.083,0,0,0,1.081-1.081V108.98a.444.444,0,1,0-.887,0v6.574a.194.194,0,0,1-.194.194H17.614a.194.194,0,0,1-.194-.194v-5.868l2.116-1.341a.826.826,0,0,0,0-1.395l-2.116-1.341V99.027a.194.194,0,0,1,.194-.194h7.918v2.773a1.083,1.083,0,0,0,1.081,1.081h2.773v4.222a.443.443,0,0,0,.443.444ZM10.081,101.8a.194.194,0,0,1-.194-.194V99.46l2.34,2.34Zm5.494,8.005v-.83a.74.74,0,0,0-.739-.739H11.509v-1.178h3.327a.74.74,0,0,0,.739-.739v-.83l3.4,2.158ZM26.614,101.8a.194.194,0,0,1-.194-.194V99.46l2.34,2.34Z" transform="translate(0 0)" fill="#7e829e"/>
  </g>
</svg>
