<svg xmlns="http://www.w3.org/2000/svg" width="26.996" height="16.666" viewBox="0 0 26.996 16.666">
  <g id="Group_1572" data-name="Group 1572" transform="translate(207.993 -8610.497)">
    <path id="Subtraction_11" data-name="Subtraction 11" d="M11.124,15.806H.615l-.432-.128L0,14.968v-5L2.26,8.222,1.445,7.3l-1.075-.6L0,6.36V.845L.183.3l.6-.3H7.879l.3.3V2.948l.354.381h.658l2.4.148v11.8l-.126.4-.337.128h0ZM2.711,13.428a.4.4,0,1,0,0,.791H9.058a.4.4,0,1,0,0-.791Zm0-1.565a.4.4,0,0,0,0,.791H9.058a.4.4,0,0,0,0-.791Zm0-1.564a.4.4,0,1,0,0,.791H9.058a.4.4,0,1,0,0-.791Z" transform="translate(-192.981 8610.941)" fill="#7e829e"/>
    <path id="Subtraction_10" data-name="Subtraction 10" d="M11.281,15.785H.412L0,14.865.288,0H8.339L8.159,2.7l.181.337.883.254h2.291l.238.374v3.1L11.513,7l-.627.262H9.814l-.3.46.175.851.124.442.016,0a3.986,3.986,0,0,1,.441-.031.557.557,0,0,1,.239.034.465.465,0,0,0,.212.034,2.738,2.738,0,0,0,.378-.034h.413l.238.523v5.673l-.469.578ZM2.756,13.3a.4.4,0,0,0,0,.791H9.1a.4.4,0,0,0,0-.791Zm0-1.565a.4.4,0,0,0,0,.791H9.1a.4.4,0,0,0,0-.791Zm0-1.563a.4.4,0,0,0,0,.791H9.1a.4.4,0,1,0,0-.791Z" transform="translate(-207.796 8611.071)" fill="#7e829e"/>
    <g id="Group_1570" data-name="Group 1570" transform="translate(-207.993 8610.497)">
      <g id="Group_1571" data-name="Group 1571" transform="translate(0 0)">
        <path id="Path_596" data-name="Path 596" d="M26.6,106.335a.4.4,0,0,0,.4-.4v-4.16a.4.4,0,0,0-.116-.28l-3.437-3.437a.4.4,0,0,0-.28-.116H15.707a.965.965,0,0,0-.964.964v5.368l-.514-.326a.737.737,0,0,0-1.131.622v.708h-.844v-3.5a.4.4,0,0,0-.116-.28L8.7,98.062a.4.4,0,0,0-.28-.116H3.012a.4.4,0,1,0,0,.791H8.025v2.473a.965.965,0,0,0,.964.964h2.473v3.107H10.22a.749.749,0,0,0-.749.749v1.135a.749.749,0,0,0,.749.749h1.242v5.734a.173.173,0,0,1-.173.173H.964a.173.173,0,0,1-.173-.173V98.91a.173.173,0,0,1,.173-.173H3.841a.4.4,0,0,0,0-.791H.964A.965.965,0,0,0,0,98.91v14.737a.965.965,0,0,0,.964.964H11.289a.965.965,0,0,0,.964-.964v-5.734H13.1v.708a.737.737,0,0,0,1.13.622l.515-.326v4.731a.965.965,0,0,0,.964.964H26.032a.965.965,0,0,0,.964-.964V105.11a.4.4,0,1,0-.791,0v8.538a.173.173,0,0,1-.173.173H15.707a.173.173,0,0,1-.173-.173v-5.232l1.887-1.2a.736.736,0,0,0,0-1.244l-1.887-1.2V98.91a.173.173,0,0,1,.173-.173h7.061v2.473a.965.965,0,0,0,.964.964h2.473v3.765a.4.4,0,0,0,.4.4ZM8.989,101.383a.173.173,0,0,1-.173-.173V99.3l2.087,2.087Zm4.9,7.138v-.74a.66.66,0,0,0-.659-.659H10.263v-1.05H13.23a.66.66,0,0,0,.659-.659v-.74l3.035,1.924Zm9.843-7.138a.173.173,0,0,1-.173-.173V99.3l2.087,2.087Z" transform="translate(0 -97.946)" fill="#7e829e"/>
      </g>
    </g>
  </g>
</svg>
