<svg id="Component_3" data-name="Component 3" xmlns="http://www.w3.org/2000/svg" width="18" height="18.001" viewBox="0 0 18 18.001">
  <path id="Subtraction_2" data-name="Subtraction 2" d="M9,18a9,9,0,1,1,9-9A9.01,9.01,0,0,1,9,18ZM5.354,6.954A4.357,4.357,0,0,0,9.04,13.638v1.634l2.178-2.18L9.04,10.913v1.635a3.269,3.269,0,0,1-2.89-4.8ZM9.04,6.009h0a3.271,3.271,0,0,1,2.889,4.8l.795.795A4.356,4.356,0,0,0,9.04,4.92V3.285L6.86,5.465l2.18,2.18V6.011Z" transform="translate(0 0)" fill="#7e829e"/>
</svg>
