<svg xmlns="http://www.w3.org/2000/svg" width="23.979" height="24" viewBox="0 0 23.979 24">
  <g id="Group_16869" data-name="Group 16869" transform="translate(-8835.5 -910.831)">
    <path id="Path_11304" data-name="Path 11304" d="M39.318,26.767h0l-9.429-9.429a.857.857,0,0,0-1.212,0l-9.429,9.429h0l-1.714,1.714a.857.857,0,0,0,1.212,1.212l.25-.252V40.23a.857.857,0,0,0,.857.857H38.711a.857.857,0,0,0,.857-.857V29.442l.251.251a.857.857,0,0,0,1.212-1.212ZM26.711,39.373V32.516h5.143v6.857Zm11.143,0H33.568V31.659a.857.857,0,0,0-.857-.857H25.854a.857.857,0,0,0-.857.857v7.715H20.711V27.727l8.572-8.572,8.572,8.572Z" transform="translate(8818.207 893.744)" fill="#7e829e"/>
    <path id="Path_11305" data-name="Path 11305" d="M8838.833,934.2V921.533l9.2-9.2,9.734,9.867-.667,12h-4.934v-8.8h-7.6v8.8Z" transform="translate(-0.667 -0.3)" fill="#7e829e" opacity="0.3"/>
  </g>
</svg>
