<svg xmlns="http://www.w3.org/2000/svg" width="129.96" height="170.808" viewBox="0 0 129.96 170.808">
  <g id="Group_20353" data-name="Group 20353" transform="translate(-141.999 -347)">
    <path id="Path_11974" data-name="Path 11974" d="M980.658,480.68h0V649.2h124.97V480.68Z" transform="translate(-833.668 -131.393)" fill="#e2e2e2"/>
    <path id="Path_11975" data-name="Path 11975" d="M1077.94,467.985v168.52H952.97V467.985Z" transform="translate(-810.971 -120.985)" fill="#f3f3f3"/>
    <rect id="Rectangle_1191" data-name="Rectangle 1191" width="85.838" height="7.574" transform="translate(161.701 365.856)" fill="#e2e2e2"/>
    <rect id="Rectangle_1192" data-name="Rectangle 1192" width="73.294" height="5.365" transform="translate(161.701 383.371)" fill="#e2e2e2"/>
    <rect id="Rectangle_1193" data-name="Rectangle 1193" width="36.844" height="7.968" transform="translate(161.701 397.533)" fill="#e2e2e2"/>
    <rect id="Rectangle_1194" data-name="Rectangle 1194" width="38.106" height="7.968" transform="translate(209.432 397.533)" fill="#e2e2e2"/>
    <rect id="Rectangle_1195" data-name="Rectangle 1195" width="58.698" height="5.681" transform="translate(161.701 412.878)" fill="#e2e2e2"/>
    <rect id="Rectangle_1196" data-name="Rectangle 1196" width="66.134" height="3.156" transform="translate(161.701 427.079)" fill="#e2e2e2"/>
    <rect id="Rectangle_1197" data-name="Rectangle 1197" width="79.526" height="3.156" transform="translate(161.701 441.28)" fill="#e2e2e2"/>
    <path id="Path_11976" data-name="Path 11976" d="M1079.909,1188.554h-37.385v-17.9h37.385Zm-36.844-.541h36.3V1171.2h-36.3Z" transform="translate(-881.094 -715.445)" fill="#e2e2e2"/>
    <rect id="Rectangle_1198" data-name="Rectangle 1198" width="33.452" height="4.103" transform="translate(207.775 455.481)" fill="#e2e2e2"/>
    <rect id="Rectangle_1199" data-name="Rectangle 1199" width="23.71" height="4.103" transform="translate(207.775 464.16)" fill="#e2e2e2"/>
    <rect id="Rectangle_1200" data-name="Rectangle 1200" width="71.518" height="3.156" transform="translate(161.701 483.884)" fill="#e2e2e2"/>
    <rect id="Rectangle_1201" data-name="Rectangle 1201" width="37.672" height="3.156" transform="translate(161.701 498.085)" fill="#e2e2e2"/>
  </g>
</svg>
