<svg id="date_range-24px" xmlns="http://www.w3.org/2000/svg" width="20" height="20" viewBox="0 0 20 20">
  <path id="Path_10708" data-name="Path 10708" d="M0,0H20V20H0Z" fill="none"/>
  <path id="Path_10709" data-name="Path 10709" d="M5,7.667H16.667V6H5Z" transform="translate(-0.833 -1)" fill="#a7a7a7" opacity="0.3"/>
  <path id="Path_10710" data-name="Path 10710" d="M6.333,9.5H8v1.667H6.333Zm10-5.833H15.5V2H13.833V3.667H7.167V2H5.5V3.667H4.667A1.659,1.659,0,0,0,3.008,5.333L3,17a1.666,1.666,0,0,0,1.667,1.667H16.333A1.672,1.672,0,0,0,18,17V5.333A1.672,1.672,0,0,0,16.333,3.667Zm0,13.333H4.667V8.667H16.333Zm0-10H4.667V5.333H16.333ZM13,9.5h1.667v1.667H13Zm-3.333,0h1.667v1.667H9.667Z" transform="translate(-0.5 -0.333)" fill="#a7a7a7"/>
</svg>
